<?xml version="1.0" encoding="UTF-8"?>
<svg width="135px" height="166px" viewBox="0 0 135 166" version="1.1" xmlns="http://www.w3.org/2000/svg" xmlns:xlink="http://www.w3.org/1999/xlink">
    <title>illu/ui</title>
    <g id="how.dactrtr.rocks" stroke="none" stroke-width="1" fill="none" fill-rule="evenodd">
        <g id="landing.Desktop" transform="translate(-995.000000, -1040.000000)">
            <g id="section.skills" transform="translate(134.000000, 863.000000)">
                <g id="type1-copy-2" transform="translate(760.000000, 160.000000)">
                    <g id="Group" transform="translate(69.000000, 0.000000)">
                        <g id="Group-104" transform="translate(33.920000, 16.960000)">
                            <path d="M63.4093129,128.646024 L63.3926541,128.625478 C63.0669741,128.157642 62.2779012,127.145896 62.02552,126.648908 C61.6409788,125.891765 61.97832,125.340635 62.1993271,125.185153 C63.4487388,124.317784 64.5351718,123.93824 65.4328047,124.137035 C66.3451529,124.339162 67.1742071,125.050772 67.6673082,126.625031 C67.7739247,126.891294 67.6442635,127.193929 67.378,127.300268 C67.1117365,127.406885 66.8091012,127.277224 66.7024847,127.01096 C66.2560282,126.104165 65.7915247,125.637162 65.2204047,125.596626 C64.7936612,125.566362 64.3646965,125.803195 63.8854776,126.192734 C64.1522965,126.457054 64.5546071,126.769962 64.7450729,127.018734 C65.1365553,127.530715 65.3309082,128.0116 65.3447906,128.154311 C65.3825506,128.725708 65.3808847,129.311544 65.3414588,129.908485 C65.2562212,131.189826 65.0360471,132.497544 64.9074965,133.723078 C64.8797318,134.610993 64.8297553,135.498075 64.8233694,136.386268 C64.8053224,138.880649 64.9502541,141.362814 64.9474776,143.856918 C64.9460894,144.923082 64.9363718,145.989525 64.8877835,147.054579 C64.7864424,149.2752 64.5909788,151.487214 64.4027341,153.702199 C64.2139341,155.921404 63.9746024,158.125672 63.75776,160.342628 C63.7458212,160.629104 63.5037129,160.852 63.2171812,160.840033 C62.9306494,160.828094 62.7076988,160.585819 62.7196376,160.299343 C62.6882635,158.072669 62.6299576,155.856935 62.6205176,153.6304 C62.6110776,151.408362 62.5908094,149.188852 62.66272,146.967953 C62.6971482,145.902621 62.7698918,144.839233 62.8501318,143.7764 C63.0383765,141.290071 63.3698871,138.826786 63.5361976,136.338513 C63.5956141,135.452541 63.6111624,134.564348 63.6480894,133.677266 C63.6164376,132.634701 63.6450353,131.524946 63.5981129,130.430461 C63.5717365,129.819915 63.5139859,129.221308 63.4093129,128.646024 Z M63.7224988,126.013652 C63.7699765,125.847619 63.8230071,125.622447 63.6864047,125.709351 C63.5864518,125.772932 63.6194918,125.881214 63.7224988,126.013652 Z" id="Fill-1" fill="#000000"></path>
                            <path d="M71.2758871,119.932348 C71.2120282,119.900696 70.8447012,119.722447 70.5462306,119.641096 C69.6988518,119.410094 68.5377318,119.295981 67.4835059,119.347901 C66.8685176,119.377887 66.2896235,119.443689 65.8464988,119.612776 C65.6191059,119.699402 65.4014306,119.748824 65.3453459,119.919854 C65.0565929,120.797219 65.1765365,121.434974 65.5244282,121.96528 C66.2632471,123.092249 67.6692518,123.850504 68.3292188,125.003016 C68.46832,125.223468 68.4025176,125.515553 68.1820659,125.654654 C67.9616141,125.793755 67.6698071,125.727675 67.5307059,125.507501 C66.7730071,124.414682 65.2987012,123.786645 64.4663153,122.724922 C63.8416094,121.928631 63.5278682,120.935765 63.87104,119.501718 C64.0034776,118.950588 64.4416047,118.488584 65.1121224,118.150132 C65.8878682,117.758649 67.0445459,117.539031 68.2242682,117.512654 C69.5705788,117.482668 70.9366024,117.716169 71.7698212,118.068226 C72.3040141,118.293675 72.6635671,118.602141 72.8482024,118.900056 C73.1264047,119.348734 73.2432941,119.8696 73.2441271,120.428504 C73.2455153,121.250894 72.9348282,122.178513 72.9642588,122.897896 C72.9859153,123.565638 73.3043765,124.159802 73.4656894,124.786174 C73.5620329,125.159887 73.6208941,125.536932 73.6108988,125.925638 C73.5925741,126.655294 73.4601365,127.408551 73.2519012,128.175134 C73.0792047,128.810113 72.8551435,129.445092 72.6477412,130.086179 C72.3401082,131.036842 72.0613506,131.986395 71.89504,132.86376 C71.4044376,135.584146 70.9915765,138.330908 70.8355388,141.101271 C70.6714494,144.012678 70.8696894,146.927694 70.8835718,149.840489 C70.88968,151.091289 70.8352612,152.339868 70.8252659,153.585698 C70.7725129,156.121116 71.18232,158.434082 71.0934729,160.730307 C71.0318353,162.325417 70.7441929,163.910476 69.9351294,165.547816 C69.8262918,165.784622 69.5455906,165.888378 69.3087576,165.77943 C69.0719247,165.670453 68.9680847,165.389752 69.0772,165.152947 C69.7299482,163.623944 69.9051435,162.16838 69.8851529,160.715342 C69.8532235,158.417312 69.3348565,156.127224 69.2618353,153.591945 C69.2415671,152.337647 69.1979765,151.079628 69.2296282,149.820499 C69.2504518,148.981172 69.3134776,148.144621 69.3723388,147.306127 C69.5100518,145.349271 69.7588235,143.407685 69.94096,141.454438 C70.21472,138.522762 70.4426682,135.589976 70.9218871,132.696616 C71.0623765,131.782325 71.3583482,130.800009 71.5982353,129.792984 C71.6940235,129.390673 71.7717647,128.984475 71.8417318,128.579944 C71.9952706,127.689252 72.0652376,126.815496 71.9669506,126.004489 C71.9316894,125.713238 71.8103576,125.450584 71.7081835,125.177379 C71.5785224,124.830042 71.4485835,124.478819 71.33808,124.12232 C71.2239671,123.754438 71.1428941,123.377393 71.12096,122.983689 C71.0865318,122.323722 71.3014306,121.495501 71.3611247,120.718367 C71.3827812,120.434889 71.3983294,120.158353 71.2758871,119.932348 Z" id="Fill-2" fill="#000000"></path>
                            <path d="M73.6436612,117.193638 C73.81608,117.156711 74.1564753,117.303586 74.4002494,117.311082 C74.7370353,117.321078 75.0524424,117.375219 75.2781694,117.517652 C75.9550729,117.93912 76.8177224,118.626019 77.7781035,119.080249 C78.1437647,119.252946 78.5269176,119.376776 78.9064612,119.454795 C79.6602729,119.61 80.3999247,119.504772 81.0276847,118.917271 C81.3211576,118.646842 81.4805271,118.215101 81.6801553,117.777807 C81.9103247,117.272767 82.1443812,116.740795 82.4103671,116.274626 C82.5805647,115.976155 82.7696424,115.705727 82.9770447,115.476391 C83.8296988,114.547939 84.8955859,113.792184 86.0797506,113.213567 C87.7631247,112.390621 89.6602871,111.903628 91.3944706,111.651802 C91.6507388,111.604047 91.8975671,111.773412 91.9450447,112.02968 C91.9928,112.285948 91.8234353,112.532776 91.5671671,112.580532 C90.2277976,112.885111 88.7979153,113.356555 87.4749271,114.015412 C86.2016376,114.649558 85.0366306,115.466673 84.1886965,116.520066 C83.8988329,116.868513 83.7025365,117.354951 83.4720894,117.830838 C83.2955059,118.195388 83.1078165,118.557718 82.9015247,118.885064 C82.6113835,119.345958 82.2898682,119.744104 81.9072706,120.010367 C81.0970965,120.567605 80.26832,120.726141 79.42816,120.593704 C78.7407059,120.485421 78.0643576,120.187228 77.4013365,119.834061 C76.4409553,119.322358 75.5130588,118.699318 74.8128329,118.27896 C74.6673459,118.193167 74.44856,118.218711 74.2328282,118.225652 C73.8593929,118.237313 73.4870682,118.249529 73.2374635,118.170122 C72.8990118,118.06184 72.6943859,117.836113 72.6646776,117.440744 C72.6391341,117.099793 72.7240941,116.717751 72.8640282,116.338485 C73.042,115.855656 73.3163153,115.377548 73.5253835,115.025769 C74.2980753,113.50232 75.2765035,112.863732 76.3573835,112.530555 C76.8743624,112.371186 77.4235482,112.309271 77.9971671,112.271233 C78.9811482,112.205986 80.0536988,112.257628 81.2100988,111.893078 C81.9619671,111.671515 82.6052753,111.350833 83.2061035,111.039591 C84.43136,110.405167 85.4767012,109.759915 86.5839576,109.492819 C87.80616,109.198513 89.1149882,109.296245 90.8011388,110.461252 C91.0243671,110.595911 91.0962776,110.886329 90.9616188,111.109558 C90.82696,111.332786 90.5365412,111.404696 90.3133129,111.270038 C88.9120282,110.53816 87.9102776,110.528165 87.0004282,110.863562 C86.0231106,111.223948 85.1782306,111.977482 84.0995718,112.631619 C83.4160047,113.046146 82.6460894,113.409586 81.7642824,113.692786 C80.4296329,114.093708 79.2021553,114.073718 78.0693553,114.105092 C77.7789365,114.113144 77.4968471,114.134522 77.2200329,114.153125 C76.8327153,114.179501 76.4562259,114.180334 76.0886212,114.311939 C75.5213882,114.514899 74.9738682,114.890833 74.4341224,115.598833 C74.2364376,115.894805 73.9707294,116.294616 73.7966447,116.7072 C73.7272329,116.871289 73.6689271,117.035656 73.6436612,117.193638 Z" id="Fill-3" fill="#000000"></path>
                            <path d="M98.4522588,156.084744 C98.6491106,153.35067 98.5552659,150.572922 98.2087624,147.818108 C98.0019153,146.171939 97.7437035,144.52688 97.3325082,142.926522 C97.0565271,141.852028 96.6892,140.809741 96.3277035,139.773285 C95.7443671,138.182922 95.0644094,136.654198 94.4874588,135.084104 C94.2409082,134.413586 94.03184,133.730852 93.8213835,133.050061 C93.1294871,130.812226 92.5644753,128.541351 92.2971012,126.155807 C92.2412941,125.137953 92.2421271,124.073454 92.3681788,123.020894 C92.4287059,122.516409 92.5464282,122.027751 92.6588753,121.537981 C92.7682682,121.062372 92.8837694,120.591205 93.0609082,120.142249 C93.3441082,119.411205 94.2125882,118.5716 94.6190635,117.732828 C94.9341929,117.082024 95.0308141,116.428442 94.8259106,115.807624 C94.5171671,114.888334 93.8327671,114.318325 92.9678965,114.060113 C91.96448,113.760532 90.7142353,113.902965 89.8429788,114.173671 C88.4239247,114.630678 87.2178259,115.447515 86.4057082,116.551162 C85.60192,117.643704 85.1551859,118.987515 85.2751294,120.489308 C85.2829035,120.749741 85.5008565,120.954922 85.7615671,120.947148 C86.022,120.939374 86.2271812,120.721421 86.2194071,120.460988 C86.2432847,119.245727 86.6991812,118.199275 87.4302259,117.384659 C88.1451671,116.588089 89.1441412,116.045012 90.2811059,115.794852 C90.7953082,115.677685 91.4822071,115.644367 92.0946965,115.764866 C92.5050588,115.845384 92.9023718,115.989482 93.0373082,116.403454 C93.1269882,116.669995 92.9376329,116.92904 92.7688235,117.210296 C92.2943247,118.000758 91.5943765,118.79816 91.3372753,119.486169 C91.1404235,120.021751 90.9768894,120.574546 90.8941506,121.145111 C90.8408424,121.514659 90.8225176,121.887539 90.8155765,122.264028 C90.7897553,123.627831 90.9674494,125.003016 91.2306588,126.292132 C91.4438918,127.751445 91.77568,129.161336 92.1616094,130.550405 C92.6119529,132.171586 93.1872376,133.746955 93.6881129,135.354254 C94.1823247,136.939341 94.5899106,138.548861 94.9916659,140.181426 C95.2318306,141.115153 95.4184094,142.064984 95.6469129,143.01176 C96.1733318,145.195176 96.7122447,147.393586 97.0354259,149.624758 C97.3450024,151.763195 97.5282494,153.91049 97.5085365,156.045929 C97.4977082,156.306362 97.7003906,156.526508 97.9608235,156.537631 C98.2212565,156.547943 98.4414306,156.345177 98.4522588,156.084744 Z" id="Fill-4" fill="#000000"></path>
                            <path d="M85.8334776,123.364621 C85.0283012,123.265501 83.2610776,123.174155 82.5602965,122.582767 C82.0405412,122.143807 81.7706682,121.491614 82.5003247,120.505134 L83.5512188,119.300979 C83.72808,119.109402 84.0271059,119.097741 84.2184047,119.274602 C84.4099812,119.451464 84.4216424,119.750489 84.2447812,119.942066 L83.3801882,121.104296 C83.2477506,121.316419 83.1808376,121.470235 83.2136,121.596842 C83.2455294,121.719562 83.4090635,121.721506 83.5631576,121.770372 C84.3305741,122.013591 85.5194588,121.928353 86.05504,121.966113 C86.4790071,121.996099 86.7216706,122.182122 86.8082965,122.277355 C87.3022306,122.820433 87.7250871,123.535929 88.0740894,124.315007 C88.4019906,125.046329 88.6771388,125.830405 88.8684376,126.570056 C88.9570071,126.912118 89.0172565,127.245572 89.0775059,127.554871 C89.3562635,129.276282 89.4717647,131.006024 89.7421929,132.727158 C89.9193318,133.854127 90.1908706,134.96416 90.4724047,136.071416 C90.9133082,137.680104 91.3020141,139.278795 91.7951153,140.828899 C92.1357882,141.898951 92.5936282,142.9032 92.8945976,143.970475 C93.4013035,145.767962 93.7125459,147.602376 93.9193929,149.445675 C94.0235106,150.373016 94.0745976,151.306466 94.0820941,152.246856 C94.0993082,154.375826 93.8846871,156.524648 93.4251812,158.743353 C93.3876988,159.001315 93.1478118,159.180203 92.8898776,159.142638 C92.6319435,159.105072 92.4528612,158.865157 92.4906212,158.607195 C92.6755341,156.439716 92.5822447,154.372939 92.3778965,152.339035 C92.2879388,151.445012 92.1685506,150.561816 92.0477741,149.678621 C91.8048329,147.898348 91.44056,146.143896 91.1470871,144.358904 C90.9693929,143.278024 90.9219153,142.189369 90.7197882,141.098494 C90.4235388,139.499247 89.9756941,137.914993 89.6053129,136.288814 C89.3273882,135.163233 89.14192,134.019605 88.8875953,132.890414 C88.5091624,131.209816 88.0402165,129.563647 87.5326776,127.915812 C87.4541035,127.628169 87.3563718,127.323035 87.2664141,127.000687 C87.0795576,126.331002 86.8840941,125.602734 86.6197741,124.923054 C86.3968235,124.349991 86.1472188,123.804692 85.8334776,123.364621 Z" id="Fill-5" fill="#000000"></path>
                            <path d="M74.9863624,109.143539 C75.7682165,108.768993 76.6064329,108.383896 77.4713035,108.120965 C78.0257647,107.952711 78.5899435,107.839708 79.1580094,107.820273 C79.8102024,107.79112 81.1712282,108.143454 82.5730682,108.330033 C84.0143341,108.521609 85.4864188,108.516334 86.4107059,108.010739 C87.3705318,107.485986 87.9158306,106.470631 87.3685882,104.572913 C87.0937176,103.673336 86.5126024,102.979496 85.7646212,102.464739 C84.7623153,101.775341 83.4604282,101.411346 82.3515059,101.217548 C81.1479059,100.996264 79.6716565,101.000428 78.1695859,101.148969 C76.7480329,101.289736 75.3006588,101.557666 74.0390306,102.125176 C73.2871624,102.463351 72.5897129,102.883153 72.0308094,103.433172 C71.1564988,104.293045 70.6025929,105.419459 70.4404471,106.749666 C70.2960706,108.033784 70.6328565,109.155755 71.3466871,109.972038 C72.0330306,110.756946 73.0395012,111.285031 74.2672565,111.347224 C74.5923812,111.363605 75.6988047,111.338339 76.4584471,111.104838 C76.9701506,110.947412 77.3313694,110.682259 77.4066118,110.360188 C77.4332659,110.246631 77.4490918,110.126687 77.4518682,110.001468 C77.4593647,109.640527 77.3652424,109.232664 77.4274353,108.880052 C77.4613082,108.729845 77.3669082,108.580471 77.2167012,108.54632 C77.0664941,108.512447 76.9168424,108.606847 76.8829694,108.757054 L76.7355388,110.168889 C76.7108282,110.242466 76.6058776,110.249962 76.5006494,110.286334 C76.2879718,110.360188 76.0142118,110.392395 75.7346212,110.411275 C75.1654447,110.449868 74.5735012,110.402668 74.3638776,110.371849 C73.4787388,110.241078 72.7715718,109.811835 72.3315012,109.193793 C71.9144753,108.607958 71.7887012,107.839986 71.9719482,107.002325 C72.1762965,106.021675 72.73048,105.290353 73.3954447,104.656207 C74.0920612,103.992075 74.9213929,103.415402 75.8826071,103.025308 C76.8579812,102.629661 77.9127624,102.344795 78.9525506,102.244842 C80.0934024,102.135172 81.2009365,102.237346 82.12328,102.421981 C83.0631153,102.613558 84.1628753,102.945901 85.0072,103.546729 C85.5052988,103.901285 85.91344,104.352739 86.0961318,104.95912 C86.35712,105.778734 86.3657271,106.327365 86.0803059,106.683586 C85.8537459,106.966231 85.4814212,107.106442 85.0463482,107.190014 C83.86496,107.416574 82.2759859,107.18696 81.0060282,107.039529 C80.1958541,106.945407 79.5047906,106.885435 79.0908188,106.933468 C78.4555624,107.008433 77.8316894,107.182518 77.2264188,107.425736 C76.3568282,107.775572 75.5280518,108.253958 74.7561929,108.714852 C74.6379153,108.778155 74.5934918,108.925864 74.6567953,109.044141 C74.7203765,109.162419 74.8680847,109.20712 74.9863624,109.143539 Z" id="Fill-6" fill="#000000"></path>
                            <path d="M66.6613929,108.897544 C67.1794824,108.592687 67.6295482,108.174551 68.1734588,107.974645 C68.4988612,107.855256 68.8514729,107.802504 69.2540612,107.851369 C70.4043529,107.992692 71.3255859,108.931416 71.7473318,110.099755 C72.1571388,111.234499 72.0727341,112.549435 71.4544141,113.415416 C71.0268376,113.996809 70.4482212,114.537944 69.7971388,114.979958 C69.1602165,115.412532 68.4619341,115.757092 67.7914165,115.968104 C67.6295482,116.018913 67.4090965,116.026409 67.17976,115.87176 C66.9706918,115.730715 66.6822165,115.38088 66.4256706,115.074358 C66.3240518,114.952748 66.1727341,114.792268 66.1521882,114.770889 C65.8784282,114.729242 65.5613553,114.82392 65.2409506,114.963576 C64.6401224,115.225675 64.0406824,115.63576 63.6442024,115.871482 C63.5334212,115.94728 63.3818259,115.918682 63.3063059,115.807624 C63.2305082,115.696842 63.2591059,115.545247 63.3701647,115.469449 C63.8166212,115.122668 64.5210118,114.496019 65.2167953,114.159788 C65.6049459,113.972099 65.9953176,113.889915 66.3459859,113.927398 C66.4745365,113.941002 66.6533412,114.035402 66.8471388,114.194772 C67.0373271,114.351087 67.3152518,114.774499 67.51488,114.951915 C68.05768,114.738405 68.6115859,114.416889 69.1166259,114.033181 C69.6302729,113.643087 70.08728,113.182471 70.4135153,112.689092 C70.7991671,112.122969 70.7519671,111.280033 70.4932,110.548155 C70.2410965,109.835713 69.7788141,109.181854 69.0824753,109.071628 C68.8181553,109.029148 68.5946494,109.082456 68.38808,109.180744 C67.91608,109.40536 67.5046071,109.78296 67.0176141,110.022569 C66.9323765,110.066438 66.8143765,110.096701 66.6680565,110.100588 C66.4673176,110.105586 66.0602871,109.982311 65.9000847,109.995082 C65.3817176,110.051167 64.8369741,110.297718 64.3269365,110.604795 C63.8288376,110.904376 63.3915435,111.296692 63.0886306,111.703445 C62.3067765,112.509732 61.9955341,113.484273 62.1726729,114.376908 C62.3564753,115.302306 62.9825694,116.124419 64.0073647,116.557826 C64.4504894,116.175228 65.2542776,115.200409 65.3892141,115.050202 C65.4844471,114.929148 65.65992,114.908047 65.7809741,115.00328 C65.9020282,115.098513 65.9231294,115.273986 65.8278965,115.395318 C65.7010118,115.580231 64.9216565,116.810485 64.5196235,117.229454 C64.2780706,117.481002 64.0162494,117.482113 63.9057459,117.456569 C62.3203812,117.095351 61.2817035,116.011139 60.8507953,114.728965 C60.4093365,113.416805 60.6719906,111.878918 61.7006729,110.514838 C62.1984941,110.007299 62.8720659,109.529746 63.6239341,109.216005 C64.3685835,108.905318 65.1582118,108.718739 65.8642682,108.754 C66.0225271,108.757609 66.5819859,108.732344 66.6613929,108.897544 Z M67.5193224,114.95608 C67.6098353,115.035209 67.6836894,115.062419 67.7250588,114.988565 C67.7722588,114.904993 67.6220518,114.928593 67.5193224,114.95608 Z" id="Fill-7" fill="#000000"></path>
                            <path d="M59.6877318,107.433511 C59.4223012,106.955402 58.9130965,106.634165 58.3478071,106.363459 C57.3282871,105.875078 56.0930353,105.603261 55.2845271,105.330889 C54.9180329,105.20456 54.5618118,105.054908 54.2166965,104.880546 C52.9556235,104.244179 51.8269882,103.336828 50.4967812,102.910362 C49.5733271,102.610781 48.6906871,102.441139 47.80888,102.328414 C47.1589082,102.24512 46.5142118,102.197642 45.8572988,102.072424 C45.1626259,101.939986 44.4685082,101.733139 43.7385741,101.402461 C43.4362165,101.254475 43.1346918,101.087609 42.8562118,100.87632 C41.9394212,100.180814 41.2086541,99.1579624 40.2157882,98.6870729 C39.5188941,98.3522306 38.4852141,98.3089176 37.5775859,98.5699059 C36.6438588,98.8386682 35.8253553,99.3914635 35.6773694,100.302146 C35.6623765,100.455407 35.5260518,100.567854 35.3725129,100.553139 C35.2192518,100.538146 35.1068047,100.401821 35.1217976,100.248282 C35.15928,99.0474588 36.0907859,98.1689835 37.2507953,97.6628329 C38.3938682,97.1639012 39.7585035,97.0903247 40.7291576,97.4065647 C41.2105976,97.5614918 41.6626071,97.8094306 42.1082306,98.09624 C42.7243294,98.4932753 43.3293224,98.9527812 43.9171012,99.3922965 C44.1417176,99.5602729 44.3488424,99.7426871 44.5790118,99.8837318 C45.3347671,100.38544 46.0708094,100.697793 46.8298965,100.910471 C47.2136047,101.018198 47.5953694,101.114264 47.9862965,101.183953 C48.9178024,101.349708 49.8706871,101.439666 50.8616094,101.732306 C51.4199576,101.893064 51.95304,102.121012 52.4702965,102.390885 C53.5539529,102.956729 54.5656988,103.701656 55.7237647,104.127845 C56.6969176,104.512108 58.2806165,104.925247 59.3759341,105.692664 C59.9448329,106.091087 60.3929553,106.575304 60.6125741,107.168358 C60.6478353,107.267755 60.6814306,107.437675 60.6025788,107.647299 C60.4831906,107.964372 60.0156329,108.597129 59.9659341,108.877275 C59.9198447,109.128268 59.9503859,109.373708 60.0197976,109.616649 C60.1441835,110.051167 60.3599153,110.473468 60.4909647,110.889106 C60.5389976,111.014602 60.4765271,111.155369 60.3513082,111.20368 C60.2258118,111.251713 60.0850447,111.189242 60.0367341,111.063746 C59.8176706,110.584805 59.4828282,110.108918 59.3117976,109.596659 C59.2248941,109.335393 59.1868565,109.066075 59.2035153,108.785374 C59.2204518,108.521609 59.5822259,107.674508 59.6877318,107.433511 Z" id="Fill-8" fill="#000000"></path>
                            <path d="M57.71616,108.901431 C57.8888565,109.09384 59.0024988,110.292442 59.6002729,111.33112 C59.7357647,111.566565 59.8390494,111.792292 59.8918024,111.991642 C59.9145694,112.077158 59.9220659,112.152955 59.9009647,112.214315 C59.8968,112.225976 59.8820847,112.192381 59.8679247,112.197656 C59.8237788,112.214038 59.7696376,112.217925 59.7074447,112.2232 C59.5797271,112.235972 59.4131388,112.151012 59.2221176,112.066607 C58.6348941,111.807007 57.9518824,111.371656 57.5665082,111.224504 L55.4983153,110.628395 C55.0787906,110.454588 54.6867529,110.223308 54.2999906,109.974259 C52.6379953,108.903929 51.1628565,107.361322 49.3909129,106.497285 C48.7456612,106.179934 48.0704235,105.914781 47.4035153,105.618532 C45.8864518,104.945238 44.3943765,104.167826 42.8220612,103.595595 C41.8736188,103.250202 40.8996329,103.008927 39.9692376,102.671864 C39.7440659,102.5944 39.5230588,102.546922 39.2976094,102.544146 C39.0219059,102.540814 38.7475906,102.58024 38.4771624,102.618 C38.2700376,102.646875 38.0643012,102.724894 37.8743906,102.601619 C36.9456612,101.992184 36.4422871,101.414955 36.4175765,100.778866 C36.3909224,100.084193 36.8684753,99.4003482 37.7261271,98.6951247 C37.8505129,98.6043341 37.878,98.4296941 37.7874871,98.3053082 C37.6966965,98.1806447 37.5220565,98.1531576 37.3976706,98.2439482 C36.2046212,99.0091435 35.5882447,99.87568 35.5177224,100.760541 C35.4472,101.648456 35.9428,102.598565 37.1333506,103.598094 C37.3299247,103.764127 37.5459341,103.852419 37.7655529,103.916278 C38.0540282,104.000127 38.3613835,103.995407 38.67568,103.989576 C38.9125129,103.984856 39.1551765,103.967365 39.3809035,104.079256 C40.3015812,104.517661 41.2308659,104.973002 42.2145694,105.311454 C43.7771671,105.849256 45.4286118,106.119129 46.9631671,106.694692 C47.6184141,106.940409 48.2422871,107.251096 48.85672,107.564282 C50.3426871,108.334475 51.5615576,109.651355 52.9359106,110.649496 C53.5942118,111.127327 54.2897176,111.527972 55.0329788,111.80784 L57.1764141,112.328706 C57.6187059,112.472249 58.4613647,112.970071 59.0941224,113.161647 C59.3803765,113.248273 59.6377553,113.283256 59.8371059,113.252993 C60.3174353,113.170532 60.5942494,112.971459 60.7330729,112.721021 C60.9182635,112.387012 60.9007718,111.899186 60.6089647,111.367769 C59.9945318,110.249685 58.2953318,108.76816 58.0604424,108.557426 C57.9654871,108.462471 57.8111153,108.462471 57.71616,108.557426 C57.6212047,108.652381 57.6212047,108.806475 57.71616,108.901431 Z" id="Fill-9" fill="#000000"></path>
                            <path d="M38.9075153,95.8911671 C37.4859624,94.6339812 35.5940753,93.7069176 33.9665082,92.5805035 C33.2951576,92.1157224 32.6668424,91.6231765 32.1587482,91.0304 C31.91192,90.7447012 31.9305224,90.3146259 31.8960941,89.8573412 C31.8530588,89.2842776 31.8019718,88.6690118 31.5704141,88.0942824 C31.2902682,87.3990541 30.7641271,86.75408 29.7162871,86.2984612 C28.8500282,85.9400188 27.4867812,86.2954071 26.4153412,87.0847576 C25.3372376,87.8791059 24.6036941,89.05272 24.8149835,90.0478071 C24.9290965,90.8091153 25.2572753,91.4166071 25.6712471,91.9616282 C26.2865129,92.7709694 27.13528,93.4184424 27.9529506,94.0706353 C28.2516988,94.3088565 28.5493365,94.5409694 28.80616,94.8052894 C29.7623765,95.6440612 30.3493224,97.3296565 31.2352941,98.4824471 C31.7456094,99.1463012 32.3253365,99.6693882 33.0647106,99.8773459 C33.4367576,99.9820188 33.9490165,99.9847953 34.5137506,99.8940047 C35.5160565,99.7326918 36.6957788,99.3342682 37.3707388,99.1496329 C37.5212235,99.1177035 37.6175671,98.96944 37.5856376,98.8186776 C37.5537082,98.6681929 37.4054447,98.5718494 37.2546824,98.6037788 C36.6719012,98.6926259 35.7070776,98.8958635 34.8163859,98.9777694 C34.2588706,99.0291341 33.73856,99.0330212 33.4037176,98.8953082 C32.9131153,98.6934588 32.5799388,98.2653271 32.2839671,97.7686165 C31.8463953,97.0347953 31.5426494,96.1307765 31.1786541,95.3167153 C30.8668565,94.6192659 30.5023059,93.9951153 30.0694541,93.5228376 C29.6324376,93.1191388 29.1343388,92.7573647 28.6081976,92.4277976 C27.9343482,92.0057741 27.2127435,91.6495529 26.6785506,91.0973129 C26.3453741,90.7527529 26.0788329,90.346 25.9486165,89.8226353 C25.8331153,89.1987624 26.4439388,88.5615624 27.13056,88.0859529 C27.8199576,87.6089553 28.6520659,87.2705035 29.1901459,87.514 C29.8365082,87.79248 30.1724612,88.1734118 30.3532094,88.5982118 C30.5911529,89.1573929 30.6069788,89.7696047 30.6794447,90.3076847 C30.7616282,90.9160094 30.9118353,91.4482588 31.2713882,91.8303012 C31.8777694,92.4697224 32.5979859,93.0130776 33.3920565,93.4798024 C35.0882024,94.4765553 37.0750447,95.1653976 38.6034918,96.2709882 C38.7081647,96.3551153 38.8614259,96.3381788 38.9452753,96.2332282 C39.0294024,96.1285553 39.0124659,95.9752941 38.9075153,95.8911671 Z" id="Fill-10" fill="#000000"></path>
                            <path d="M51.5007529,88.4077459 L51.4860376,87.9729506 C51.4485553,87.6239482 51.3905271,87.1988706 51.2680847,86.7985035 C51.1670212,86.4683812 51.03264,86.1490871 50.8002494,85.9414071 C50.2807718,85.4838447 49.6330212,85.1989788 48.9125271,85.0623765 C48.4374729,84.9721412 47.9335435,84.9568706 47.4196188,84.9657553 C46.0522071,84.9893553 44.6214918,85.2939341 43.3426494,85.4835671 C42.6688,85.58352 42.0352094,85.6440471 41.4807482,85.6726447 C40.4059765,85.6690353 39.3217647,85.6065647 38.2439388,85.4682965 C37.1716659,85.3305835 36.1110541,85.1270682 35.0748753,84.8619153 C33.9859435,84.5873224 33.0830353,84.2508141 32.3222824,84.0531294 C31.7034071,83.8926494 31.2022541,83.7979718 30.78384,84.0245318 C30.2379859,84.3202259 29.8653835,85.0620988 29.5255435,86.5158588 C29.4969459,86.6671765 29.3509035,86.7668518 29.1995859,86.7385318 C29.0482682,86.7099341 28.9485929,86.5638918 28.9769129,86.4125741 C29.23568,84.6148094 29.7248941,83.7249506 30.3551529,83.3090353 C31.3866118,82.6285224 32.9844706,83.2610024 35.3272565,83.6394353 C36.3292847,83.7976941 37.3490824,83.8893176 38.3736,83.9309647 C39.3917318,83.9723341 40.4095859,83.9562306 41.4146682,83.8784894 C41.9294259,83.8671059 42.5158165,83.8021365 43.1457976,83.75216 C44.4984941,83.6447106 46.0274965,83.5628047 47.4584894,83.6744188 C48.0443247,83.7199529 48.6104471,83.8049129 49.1490824,83.9276329 C50.0678165,84.1367012 50.9043671,84.4684894 51.5776612,85.0496047 C51.9016753,85.3250306 52.1443388,85.7120706 52.3212,86.1438118 C52.5472047,86.6949412 52.6599294,87.3232565 52.7265647,87.8235765 L52.7870918,88.8467059 C52.7845929,88.9352753 52.80736,89.1254635 52.7984753,89.2129224 C52.7823718,89.37368 52.7185129,89.4850165 52.6696471,89.5535953 C52.5374871,89.7396188 52.3586824,89.81264 52.1646071,89.82208 C52.0646541,89.8270776 51.9208329,89.8162494 51.7661835,89.7063012 C51.7684047,89.7038024 51.7695153,89.6999153 51.7700706,89.6943624 C51.8314306,89.0582729 49.7821176,90.3190682 49.3564847,90.4392894 C47.9987906,90.7930118 46.7452141,90.9634871 45.4955247,90.9357224 C44.2491671,90.9082353 43.0078071,90.6883388 41.6720471,90.2743671 C39.7607247,89.6585459 37.9812847,89.1021412 36.1316,88.7478635 C34.9182824,88.5154729 33.6794212,88.3624894 32.3450494,88.3630447 C32.2109459,88.3685976 32.0973882,88.2639247 32.0921129,88.1298212 C32.08656,87.9957176 32.1909553,87.88216 32.3250588,87.8768847 C33.6985788,87.76416 34.9885271,87.8027529 36.2551529,87.9554588 C38.1631435,88.1853506 40.0058871,88.6695671 41.9888424,89.1859906 C43.2235388,89.5224988 44.3649459,89.6813129 45.50552,89.6746494 C46.6416518,89.6677082 47.7766729,89.49168 49.00304,89.1426776 C49.4256188,89.0316188 50.6667012,88.4943718 51.4566071,88.4116329 L51.5007529,88.4077459 Z M51.7661835,89.7063012 C51.7492471,89.7318447 51.6798353,89.6363341 51.6520706,89.6077365 C51.6903859,89.64744 51.7284235,89.6799247 51.7661835,89.7063012 Z" id="Fill-11" fill="#000000"></path>
                            <path d="M54.9663435,84.4707106 C54.5690306,84.43184 54.1575576,84.4379482 53.7202635,84.5179106 C53.5706118,84.5537271 53.4198494,84.4615482 53.3837553,84.3116188 C53.3479388,84.1619671 53.4403953,84.0112047 53.5900471,83.9751106 C54.2522353,83.7777035 54.8763859,83.7413318 55.4880424,83.78048 C56.8485129,83.8673835 58.1240235,84.3901929 59.5927765,84.4207341 C60.1361318,84.4301741 60.6780988,84.3982447 61.22312,84.3521553 C62.5319482,84.2416518 63.8368894,84.0173129 65.1254494,83.8523906 L67.1095153,83.8398965 C67.3430165,83.8493365 67.7997459,83.7355012 68.0071482,83.7685412 C68.26536,83.8093553 68.4547153,83.9007012 68.5663294,84.0336941 C68.7290306,84.2274918 68.9011718,84.4879247 68.7443012,84.8813506 C68.3883576,85.8056376 67.8014118,86.7379765 67.1128471,87.64616 C66.4839765,88.4754918 65.7809741,89.2939953 64.9760753,89.9667341 C63.8007953,90.9493271 62.4611482,91.6531624 61.1151153,91.8716706 C60.4784706,91.9605176 59.8157271,91.9527435 59.1449318,91.8738918 C57.7339294,91.7084141 56.2851671,91.2452988 54.9688424,90.9895859 C54.6800894,90.9323906 53.7916188,90.7710776 53.2876894,90.5411859 C52.9822776,90.4023624 52.7820941,90.2168941 52.7051859,90.0505835 C52.3303624,89.1937647 52.4355906,88.2825271 52.8359576,87.4084941 C53.3443294,86.2984612 54.2933271,85.2547859 54.9346918,84.5043059 C54.9444094,84.4918118 54.95496,84.4807059 54.9663435,84.4707106 Z M55.3306165,84.5192988 C55.3861459,84.6034259 55.3853129,84.7169835 55.3203435,84.8013882 C54.7894824,85.5674165 53.9945788,86.6341365 53.6158682,87.7219576 C53.40208,88.3363906 53.3321129,88.9563765 53.6053176,89.5166682 C53.6938871,89.5380471 54.9005412,89.8268 55.1637506,89.8659482 C56.2837788,90.0367012 57.5065365,90.3432235 58.7106918,90.5075906 C59.4656141,90.6105976 60.2124847,90.6586306 60.9193741,90.5467388 C62.3342635,90.3587718 63.7522071,89.5191671 64.9194353,88.3971953 C65.4958306,87.8430118 66.0278024,87.2296894 66.4353882,86.5691671 C66.6522306,86.2173882 66.8299247,85.8539482 66.9756894,85.4902306 L65.26344,85.6668141 C64.13536,85.6956894 62.9911765,85.7731529 61.8483812,85.7714871 C61.0593082,85.7700988 60.2766212,85.7351153 59.5014306,85.6309976 C58.0121318,85.4363671 56.77216,84.7697365 55.3989176,84.5301271 L55.3306165,84.5192988 Z" id="Fill-12" fill="#000000"></path>
                            <path d="M50.8141318,89.0141271 C51.9694212,90.9909741 52.9062024,93.07888 53.9390494,95.1204188 C54.3857835,96.0036141 54.8583388,96.8726494 55.3547718,97.7286353 C56.2024282,99.1796188 57.3099624,100.47984 58.2278635,101.888621 C58.4488706,102.227628 58.6593271,102.572466 58.8503482,102.928687 C59.36816,103.858805 59.4236894,105.041304 59.7782447,106.033059 C59.8865271,106.335972 60.0184094,106.623336 60.1877741,106.887101 C60.7164141,107.712546 62.7690588,108.451087 64.4996329,108.422212 C65.8739859,108.399167 66.9965129,107.878579 67.2475059,106.735228 C67.4862824,105.730424 67.17504,104.712847 66.6078071,103.752744 C66.2543624,103.154414 65.80624,102.571633 65.3225788,102.055209 C64.8236471,101.522405 64.2864,101.068452 63.8763153,100.659755 C62.7601741,99.5686024 61.7848,98.3439012 60.8996612,97.0434024 C59.5505741,95.0610024 58.4080565,92.9214541 57.2777553,90.8563153 C57.2225035,90.7463671 57.0884,90.7016659 56.9781741,90.75664 C56.8679482,90.8118918 56.8232471,90.9462729 56.8784988,91.0562212 C57.8655341,93.2218682 58.8650635,95.4599812 60.0747718,97.5606588 C60.8988282,98.9916518 61.8208941,100.351567 62.9009412,101.583487 C63.2854824,102.013562 63.7599812,102.526099 64.2591906,103.055016 C64.6878776,103.508969 65.1401647,103.970141 65.4924988,104.472127 C65.9489506,105.122376 66.2874024,105.804555 66.1832847,106.533101 C66.0702824,107.236381 65.3111953,107.469327 64.4754776,107.499035 C63.1061224,107.547901 61.4441271,107.015096 61.0382071,106.353741 C60.9143765,106.151059 60.8221976,105.929219 60.7444565,105.697939 C60.3904565,104.644268 60.3249318,103.403186 59.7935153,102.413096 C59.4772753,101.845308 59.1182776,101.303064 58.7354024,100.775256 C57.8802494,99.5963671 56.9140376,98.4860565 56.1488424,97.2510824 C54.9238635,95.3214353 53.8760235,93.2868376 52.7207341,91.3141553 C52.2215247,90.4615012 51.6987153,89.6252282 51.1436988,88.8070024 C51.0867812,88.7160663 50.9662824,88.6887247 50.8754918,88.74592 C50.7842903,88.8031153 50.7569365,88.9233365 50.8141318,89.0141271 Z" id="Fill-13" fill="#000000"></path>
                            <path d="M50.8660518,76.8440235 C50.79664,76.8479106 50.7366682,76.8470776 50.6969647,76.8356941 L49.2637506,76.4170024 C48.6618118,76.2573553 47.3912988,76.0749412 46.2590541,76.3042776 C45.3914071,76.4800282 44.5917835,76.8698447 44.5612424,77.6525318 C44.5568,77.7480424 44.6112188,77.8085694 44.6523106,77.8685412 C44.7269976,77.9776565 44.8291718,78.0678918 44.9538353,78.1439671 C45.4444376,78.4432706 46.0533176,78.6573365 46.4747859,78.9205459 C46.9331812,79.2087435 47.3971294,79.7834729 47.7791718,80.5372847 C48.4124847,81.7872518 48.9289082,83.4670165 49.3456565,84.2835765 C49.4261741,84.4149035 49.3848047,84.5867671 49.2534776,84.6672847 C49.1221506,84.7478024 48.9502871,84.7064329 48.8697694,84.5751059 C48.33752,83.84184 47.5825976,82.2764659 46.7671482,81.1564376 C46.4453553,80.7144235 46.1199529,80.3618118 45.7970494,80.2268753 C45.4183388,80.0675059 44.9108,79.9800471 44.4518494,79.8151247 C44.0048376,79.6543671 43.5983624,79.42864 43.3179388,79.1143435 C42.9508894,78.7028706 42.7468188,78.1584047 42.8767576,77.4467953 C43.0874918,76.49752 43.7041459,75.8542118 44.6325976,75.5068753 C45.0873835,75.3366776 45.6010306,75.2295059 46.1352235,75.1539859 C47.4471059,74.9685176 48.8728235,75.0123859 49.5686071,75.1670353 L51.0837271,75.5532424 C51.2977929,75.6198776 51.7520235,75.6204329 51.9372141,75.6995624 C52.1504471,75.7906306 52.2784424,75.9300094 52.3450776,76.0685553 C52.4425318,76.2715153 52.4972282,76.5333365 52.2745553,76.8379153 C51.7800659,77.4989929 52.0890871,78.4879718 52.5297129,79.5360894 C53.2402118,81.2258494 54.4524188,83.0258353 55.0774024,83.9978776 C55.1565318,84.10616 55.1332094,84.2585882 55.0246494,84.3377176 C54.9163671,84.4171247 54.7639388,84.3935247 54.6848094,84.2852424 C54.1267388,83.6261082 53.1644141,82.58632 52.3511859,81.4124282 C51.8480894,80.6863812 51.4174588,79.9070259 51.1306494,79.16904 C50.8049694,78.3308235 50.7011294,77.5300894 50.8660518,76.8440235 Z M51.24976,76.8195906 C51.3313882,76.9584141 51.4277318,77.0719718 51.45272,76.9350918 C51.4691012,76.8443012 51.3769224,76.8198682 51.24976,76.8195906 Z" id="Fill-14" fill="#000000"></path>
                            <path d="M37.3149318,55.7545082 L37.3179859,55.654 C37.3160424,55.5198965 37.4234918,55.4093929 37.5578729,55.4074271 C37.6819812,55.4057835 37.7858212,55.4976847 37.8022024,55.6176282 C38.3883153,55.4876894 39.0518918,55.4454871 39.7079718,55.4937976 C40.5581271,55.5562682 41.3880141,55.7864376 42.0349318,56.1712565 C42.3239624,56.3433976 42.5768988,56.7293271 42.7784706,57.2168753 C43.0847153,57.9581929 43.2812894,58.9691059 43.4600941,59.4269459 C43.9418118,60.6499812 44.4693412,61.8635765 45.0365741,63.0621788 C45.43,63.8928988 45.8653506,64.6997412 46.2837647,65.51408 C46.4628471,65.8625271 46.6255482,66.2181929 46.8051859,66.5646965 C47.1980565,67.3812565 48.5774071,69.1554212 49.3417694,70.3684612 C49.6804988,70.9059859 49.9117788,71.3566071 49.9567576,71.6303671 C49.9975718,71.8449882 49.9703624,72.1259671 49.8795718,72.4269365 C49.7532424,72.8467388 49.5119671,73.3323435 49.3914682,73.6169318 C48.8753224,74.8638447 47.9674165,75.2317271 46.9298494,75.1784188 C45.7712282,75.1187247 44.3938212,74.41128 43.3273788,73.9123482 C43.2588,73.8795859 43.0119718,73.6669082 42.8037365,73.2379435 C42.3653318,72.3353129 41.4657553,70.0541647 41.2836188,69.7065506 L38.3280659,64.4170965 C37.7100235,63.2432047 37.3954494,62.0965224 37.2666212,60.9295718 C37.1003106,59.4222259 37.2335812,57.8935012 37.2979953,56.2456659 C37.2371906,56.2104047 37.1894353,56.1520988 37.1691671,56.0788 C37.1330729,55.9474729 37.1969318,55.8122588 37.3149318,55.7545082 Z M44.0698071,72.8145318 C44.9635529,73.2709835 46.0563718,73.88736 47.0078682,73.9601035 C47.5542776,74.0017506 48.0329412,73.8104518 48.3205835,73.1590918 C48.4044329,72.9661271 48.5557506,72.6759859 48.67264,72.3791812 C48.7484376,72.1876047 48.8350635,71.9996376 48.8061882,71.8688659 C48.7617647,71.6914494 48.5543624,71.4271294 48.2994824,71.0956188 C47.3860235,69.9084 45.7579012,68.2161412 45.2603576,67.4106871 C45.0923812,67.1280424 44.9188518,66.8478965 44.7683671,66.5544235 C44.4196424,65.8750212 44.1336659,65.1634118 43.8507435,64.4504141 C43.2488047,62.9336282 42.74432,61.3799153 42.2920329,59.8256471 C42.1707012,59.4119529 42.0701929,58.5792894 41.8872235,57.8599059 C41.7886588,57.4717553 41.7120282,57.1052612 41.5154541,56.9639388 C41.0040282,56.5960565 40.3243482,56.3553365 39.6202353,56.2415012 C39.0094118,56.1426588 38.3838729,56.1312753 37.8310776,56.2142918 C37.8991012,57.8310306 37.8966024,59.3350447 38.1598118,60.8001882 C38.3461129,61.8394212 38.6701271,62.8564424 39.2837271,63.8792941 C40.0000565,65.1006635 40.77608,66.2853835 41.5090682,67.4967576 C41.82864,68.0245647 42.1384941,68.5576471 42.4344659,69.0993365 C42.6207671,69.4502824 43.5547718,71.7480894 43.9940094,72.6634918 L44.0698071,72.8145318 Z" id="Fill-15" fill="#000000"></path>
                            <path d="M30.1727388,39.3153035 C30.1416424,39.2961459 30.1136,39.2700471 30.0913882,39.2381176 C30.0030965,39.1117882 30.0341929,38.9377035 30.1605224,38.8494118 C32.2550918,37.2279529 33.6558212,37.4100894 34.6878353,38.2483059 C36.1563106,39.4410776 36.8593129,42.3908 37.9790635,44.1208188 C38.3416706,44.7024894 38.7870165,45.2383482 39.1946024,45.8091906 C39.6199576,46.4044659 40.0081082,47.0275059 40.3893176,47.6505459 C40.9298965,48.5334635 41.4110588,49.4352612 41.7178588,50.4078588 C41.8444659,50.7538071 41.6526118,52.1217741 41.3061082,53.2878918 C41.0409553,54.1796941 40.6672424,54.93656 40.3870965,55.1386871 C40.3046353,55.1981035 40.1808047,55.2536329 40.0117176,55.2797318 C39.7751624,55.3161035 39.3092706,55.2761224 38.7667482,55.1767247 C37.6453318,54.9715435 36.1710259,54.5209224 35.9133694,54.3526682 C35.6923624,54.2069035 35.4835718,53.94536 35.3186494,53.6138494 C35.0965318,53.1673929 34.9441035,52.5679529 34.8030588,52.2622635 C33.4997835,49.3114306 31.8305694,47.2049224 30.8857365,44.7272 C30.2846306,43.1504424 29.9744988,41.4368047 30.1727388,39.3153035 Z M39.7479529,54.0675247 C39.7768282,54.0153271 39.8043153,53.9442494 39.8412424,53.8662306 C40.0042212,53.5233365 40.1721976,53.0507812 40.2971388,52.5665647 C40.4887153,51.8230259 40.6425318,51.0636612 40.5567388,50.8518165 C40.3718259,50.4406212 40.1455435,50.0530259 39.8998259,49.6729271 C39.2912235,48.7319812 38.5004847,47.9032047 37.8160847,46.9961318 C37.3265929,46.3472706 36.9065129,45.6556518 36.5300235,44.9570918 C36.0666306,44.0483529 35.7298447,42.8611341 35.3580753,41.7166729 C35.0090729,40.6424565 34.6459106,39.6076659 34.0223153,38.9882353 C33.3176471,38.2882871 32.31312,38.2160988 30.6891624,39.1798118 C30.6602871,41.2560565 31.1253459,42.8641882 31.8014165,44.3437694 C32.9014541,46.7506918 34.5906588,48.8111106 36.0061035,51.7022494 C36.1310447,51.96768 36.2712565,52.4518965 36.4481176,52.8697553 C36.5147529,53.0269035 36.5561224,53.1871059 36.6524659,53.2526306 C36.9220612,53.4394871 38.8692,53.9953365 39.6990871,54.0650259 L39.7479529,54.0675247 Z" id="Fill-16" fill="#000000"></path>
                            <path d="M31.1164612,35.0925694 C31.3730071,34.2057647 31.3371906,33.2301129 31.2053082,32.2353035 C30.9926306,30.6316141 30.5222965,28.9882212 30.2154965,27.5944329 C30.1785694,27.4653271 30.2535341,27.3303906 30.38264,27.2934635 C30.5114682,27.2565365 30.6464047,27.3312235 30.6833318,27.4603294 C31.1717129,28.83496 31.9052565,30.4308753 32.2731388,32.0431718 C32.5416235,33.2187294 32.5927106,34.3948424 32.33672,35.4740565 C32.2398212,35.8752565 31.9566212,36.1270824 31.5159953,36.2303671 C31.1783765,36.3092188 30.6747247,36.2670165 30.1141553,36.0993176 C29.1740424,35.8183388 28.0284706,35.2055718 27.3407388,34.75856 C26.8995576,34.4717506 26.6269082,34.2002118 26.5638824,34.07888 C26.4747576,33.9064612 26.4042353,33.6249271 26.3750824,33.2584329 C26.3400988,32.8153082 26.3689741,32.2139247 26.3684188,31.5589553 C26.3678635,30.2154212 26.3176094,28.6428282 26.1524094,27.9356612 C26.0230259,26.1092988 24.9957318,24.5744659 24.3374306,22.5390353 C24.0856047,21.7599576 23.8795906,20.9234071 23.7882447,19.9757976 C23.7618682,19.8242024 23.8637647,19.6795482 24.01536,19.6531718 C24.1672329,19.6267953 24.3118871,19.7286918 24.3382635,19.8802871 C25.0062824,22.5015529 26.4758682,24.1008 27.3443482,25.8763529 C27.6247718,26.4502494 27.8280094,27.0416376 27.9615576,27.6710635 C28.0181976,28.5367671 27.6197741,30.4919576 27.5259294,32.0212376 C27.4873365,32.6517741 27.4976094,33.1879106 27.5992282,33.44168 C27.6380988,33.4705553 27.7247247,33.5344141 27.7966353,33.5807812 C28.1548,33.8128941 28.7497976,34.1144188 29.3672847,34.3898447 C29.9259106,34.6386165 30.7991106,35.1114494 31.1164612,35.0925694 Z M31.1209035,35.0920141 C31.2033647,35.0864612 31.2469553,35.0459247 31.2352941,34.9573553 C31.2247435,34.8787812 31.1569976,35.0017788 31.1209035,35.0920141 Z" id="Fill-17" fill="#000000"></path>
                            <path d="M23.9484471,19.5593271 C24.2721835,19.2691859 24.69032,19.4174494 25.1470494,19.6595576 C25.4391341,19.8144847 25.7295529,20.0352141 26.0294118,20.2653835 C26.85208,20.8961976 27.64976,21.6672235 28.0595671,22.00984 C28.3472094,22.2294588 28.5898729,22.5551388 28.8219859,22.9377365 C29.1401694,23.4627671 29.4464141,24.0880282 29.6649224,24.7968612 C29.7221176,24.9823294 29.7801459,25.1714071 29.8145741,25.3679812 C29.9486776,26.1356753 29.8367859,26.94224 29.8995341,27.7510259 C29.9081412,27.8604188 29.9350729,27.9667576 29.9556188,28.0742071 C30.3179482,29.9891388 30.5231294,31.8352141 30.3015671,32.9971671 C30.2552,33.1440424 30.3365506,33.3011906 30.4834259,33.3475576 C30.6303012,33.3942024 30.7871718,33.3128518 30.8338165,33.1659765 C31.3427435,32.0487247 31.7092376,30.1759953 31.7311718,28.1605553 C31.7333929,27.9487106 31.7395012,27.7352 31.7106259,27.5236329 C31.6814729,27.3109553 31.6162259,27.1088282 31.5593082,26.9017035 C31.3852235,26.2695012 31.1364518,25.6833882 30.9509835,25.0817271 C30.6042024,23.9569788 30.3390494,22.8841506 29.8542776,22.0970212 C29.5624706,21.6236329 29.2192988,21.2452 28.8514165,20.9686635 C28.4013506,20.6579765 27.5373129,19.9097176 26.6155247,19.3832988 C26.2307059,19.1634024 25.8408894,18.9823765 25.4688424,18.8718729 C24.6789365,18.6375388 23.9889835,18.6708565 23.58584,19.2347576 C23.4964376,19.3347106 23.5050447,19.4888047 23.6049976,19.5782071 C23.7049506,19.6678871 23.8590447,19.65928 23.9484471,19.5593271 Z" id="Fill-18" fill="#000000"></path>
                            <path d="M59.79768,80.2104941 C59.2362776,80.6116941 59.0583059,81.0923012 59.0930118,81.6090024 C59.1643671,82.6698918 59.8668141,83.8132424 60.3368706,84.63952 C60.4135012,84.7500235 60.3860141,84.9016188 60.2757882,84.9782494 C60.1652847,85.0546024 60.0136894,85.0273929 59.9370588,84.9168894 C59.4589506,84.3596518 58.8117553,83.6663671 58.3891765,82.8917318 C58.1892706,82.5252376 58.0573882,82.1387529 57.9868659,81.7567106 C57.8172235,80.8388094 58.0707153,79.9309035 59.0533082,79.1287812 C59.2584894,78.9738541 59.8368282,78.8094871 60.6159059,78.7728376 C61.4813318,78.7320235 62.6374541,78.8683482 63.6439247,78.8497459 C64.5490541,78.8328094 65.3092518,78.7070353 65.6399294,78.6789929 C65.7171153,78.6742729 66.3276612,78.6129129 66.5678259,78.6492847 C67.1908659,78.7434071 67.3677271,79.2423388 67.3879953,79.3950447 C67.4102071,79.5646871 67.43936,79.9281271 67.1461647,80.2907341 C66.9090541,80.5839294 66.3795812,81.0498212 65.9872659,81.4360282 C65.8620471,81.5593035 65.6918494,81.7236706 65.6918494,81.7236706 C65.6918494,81.7236706 65.6949035,81.6803576 65.7001788,81.6631435 C65.6021694,81.9793835 65.5832894,82.3083953 65.6307671,82.6460141 C65.7168376,83.2560047 65.9253506,83.8590541 66.0700047,84.3993553 C66.1263671,84.5426212 66.0555671,84.7047671 65.9123012,84.7614071 C65.7690353,84.8177694 65.6068894,84.7469694 65.5505271,84.6037035 C65.2720471,84.0792282 64.9166588,83.5025553 64.6820471,82.8914541 C64.4985224,82.4130682 64.4241129,81.9235765 64.46104,81.4276988 C64.4749224,81.2361224 64.9502541,80.75024 65.3250776,80.2860141 C64.9855153,80.2141035 64.4660376,80.0999906 63.8538259,80.0325224 C63.6186588,80.0064235 63.3701647,80.0017035 63.1175059,79.9969835 C62.0760518,79.9781035 60.9551906,80.0547341 60.2369176,80.1402494 C60.0411765,80.1635718 59.7563106,80.1210918 59.7965694,80.2093835 L59.79768,80.2104941 Z M65.9842118,80.3282165 C66.0766682,80.4206729 66.2438118,80.5942024 66.2699106,80.44816 C66.2854588,80.3623671 66.1438588,80.3343247 65.9842118,80.3282165 Z M59.79768,80.2104941 L59.8404376,80.1796753 C59.8279435,80.1882824 59.8060094,80.2252094 59.79768,80.2104941 Z M65.6415953,79.8503859 C65.7909694,79.6030024 65.83928,79.4000424 65.6685271,79.3084188 C65.4661224,79.2001365 65.5921741,79.6812988 65.6154965,79.7623718 C65.6235482,79.7906918 65.6318776,79.8204 65.6415953,79.8503859 Z" id="Fill-19" fill="#000000"></path>
                            <path d="M71.9191953,102.118791 C71.9130871,101.743134 71.8656094,101.374141 71.7973082,101.008202 C71.6712565,100.331576 71.4685741,99.6677224 71.2775529,99.00248 C70.9610353,97.7719482 70.5556706,96.59056 70.1261506,95.42472 C69.6127812,94.0314871 69.0433271,92.6699059 68.4963624,91.2908329 C67.9471765,89.9059294 67.4360282,88.5076988 66.9612518,87.0708753 C66.9118306,86.9459341 66.9734682,86.8043341 67.0984094,86.7551906 C67.2233506,86.7060471 67.3646729,86.7674071 67.4138165,86.8923482 C68.0607341,88.29752 68.7790071,89.6388329 69.4578541,91.0015247 C69.9165271,91.9219247 70.3540988,92.8484329 70.7702918,93.7874353 C71.4657976,95.3564188 72.0780094,96.9656612 72.5594494,98.6573647 C72.7382541,99.3684188 72.9281647,100.07864 73.0367247,100.799967 C73.1130776,101.308061 73.1519482,101.821153 73.1230729,102.342574 C73.1225176,102.355068 73.0997506,102.676028 73.0864235,102.802635 C73.0295059,103.349045 72.4420047,103.391802 72.4159059,103.388193 C71.6284988,103.291294 70.9346588,103.120264 70.3032894,102.944513 C68.2825741,102.381445 66.87296,101.470485 65.9550588,100.080028 C65.3736659,99.1996094 65.0446541,98.1445506 64.7378541,97.0284094 C64.1611812,94.9310635 63.8210635,92.5344141 62.9148235,90.0891765 C62.8520753,89.9484094 62.9156565,89.7832094 63.0564235,89.7207388 C63.1971906,89.6582682 63.3623906,89.7218494 63.4248612,89.8626165 C65.0768612,93.0294588 65.7110071,96.2165694 67.1400565,98.5718494 C67.2894306,98.8181224 67.4540753,99.04968 67.6131671,99.2840141 C67.8483341,99.6305176 68.0735059,99.9786871 68.3664235,100.286598 C68.9500376,100.900475 69.6649788,101.461322 70.6586776,101.813656 C71.0415529,101.949148 71.4627435,102.044936 71.9191953,102.118791 Z" id="Fill-20" fill="#000000"></path>
                            <path d="M59.4547859,78.0187482 C59.2237835,78.1753412 59.0005553,78.3211059 58.7895435,78.4479906 C58.3186541,78.7309129 57.8919106,78.9102729 57.5665082,78.9683012 C57.4268518,78.9932894 57.2672047,78.9571953 57.0895106,78.8616847 C56.9140376,78.7672847 56.6519388,78.4649271 56.3781788,78.0248565 C55.7515294,77.0181082 54.9560706,75.1667576 54.8252988,74.6625506 C54.7422824,74.2510776 54.5221082,73.8615388 54.3371953,73.5375247 C53.9831953,72.9175388 53.7008282,72.4538682 53.7005506,72.4527576 C53.6577929,72.2281412 53.6439106,71.9596565 53.7663529,71.6678494 C53.9173929,71.3096847 54.2544565,70.8432376 54.7372847,70.3870635 C55.1917929,69.9575435 55.7623576,69.5269129 56.3023812,69.1379294 C57.0548047,68.59624 57.7675247,68.1639435 58.1837176,68.0875906 C60.3116047,67.6736188 61.3780471,68.11008 61.9408376,68.7289553 C62.4161694,69.2517647 62.5733176,69.9703153 62.6196847,70.6774824 C62.6418965,71.0184329 62.6352329,71.3529976 62.6671624,71.6384188 C62.6802118,71.7566965 62.6754918,71.8652565 62.7304659,71.9357788 C63.5189835,72.9652941 65.0168894,73.9145694 65.4566824,75.1173365 C65.68824,75.7503718 65.6979576,76.4472659 65.25872,77.2391153 C65.2215153,77.3063059 65.15488,77.4123671 65.0046729,77.4864988 C64.9113835,77.5325882 64.7106447,77.5975576 64.4282776,77.6508659 C63.1952471,77.8838118 60.0978165,78.1792282 59.7443718,78.2305929 C59.6124894,78.2572471 59.4842165,78.1717318 59.45784,78.0401271 L59.4547859,78.0187482 Z M64.3905176,76.6480047 C64.6387341,76.0527294 64.4896376,75.5696235 64.1814494,75.1387153 C63.5520235,74.2591294 62.3825741,73.5530729 61.7117788,72.7526165 C61.4230259,72.4022259 61.3283482,71.78224 61.2969741,71.0822918 C61.2742071,70.5714212 61.3047482,69.9894729 60.96352,69.59216 C60.5920282,69.1598635 59.8479341,69.0249271 58.3897318,69.2553741 C58.0415624,69.3172894 57.4124141,69.7159906 56.81464,70.2301929 C56.1957647,70.76272 55.8850776,71.8785835 55.4991482,72.1323529 C55.7046071,72.3780706 55.9586541,72.7184659 56.1635576,73.1204988 C56.3509694,73.4886588 56.4814635,73.9084612 56.5475435,74.3265976 C56.6141788,74.8341365 57.2469365,76.9253741 57.7000565,77.70584 C57.8727529,77.6583624 58.07016,77.5806212 58.2850588,77.484 C59.5480753,76.9151012 61.2664329,75.8189506 62.4006212,75.5765647 C62.5491624,75.5354729 62.7029788,75.6226541 62.7440706,75.7711953 C62.7848847,75.9197365 62.6977035,76.0735529 62.54944,76.1146447 C61.8067341,76.3678588 60.8427435,77.0572565 59.9353929,77.6880706 C60.7958212,77.4973271 63.1716471,76.9939529 64.1958871,76.6893741 C64.2569694,76.6713271 64.3297129,76.6602212 64.3905176,76.6480047 Z M64.3758024,76.6821553 C64.3588659,76.7171388 64.3458165,76.7482353 64.3399859,76.7598965 C64.3527576,76.7337976 64.3646965,76.7079765 64.3758024,76.6821553 Z M64.3932941,76.6474494 C64.4746447,76.6321788 64.5346165,76.6146871 64.5171247,76.5763718 C64.4840847,76.5030729 64.43272,76.57304 64.3932941,76.6474494 Z" id="Fill-21" fill="#000000"></path>
                            <path d="M126.735609,101.041798 C126.175318,100.504273 125.185506,99.8037694 124.945064,99.5844282 C123.563769,98.3200235 122.150268,97.31272 120.624875,96.5064329 C119.103647,95.7018118 117.471082,95.0979294 115.650273,94.6362024 C110.579605,93.3545835 105.295981,92.1806918 99.9887576,91.6120706 C96.4640282,91.2347482 92.9295812,91.1292424 89.4445553,91.4202165 C87.8119906,91.5565412 86.1758165,91.7689412 84.5518588,92.0513082 C82.9276235,92.3336753 81.3158824,92.6868424 79.7319059,93.1044235 C79.0538918,93.2826729 77.8483482,93.9062682 76.818,94.2527718 C76.1388753,94.4809976 75.5119482,94.5851153 75.0624376,94.5218118 C74.9794212,94.5101506 74.3419435,94.3471718 74.2716988,93.6380612 C74.2553176,93.4714729 74.2442118,93.0541694 74.2419906,93.0058588 C74.2064518,92.2664847 74.2064518,91.5279435 74.2231106,90.78968 C74.2478212,89.7107435 74.3097365,88.6323624 74.3491624,87.5528706 C74.4482824,84.8766306 74.52408,82.2028894 74.5965459,79.5297035 C74.7051059,75.5196471 74.7964518,71.5104235 74.8422635,67.4923153 C74.9486024,62.7531576 74.9461035,58.0359341 74.8278259,53.3203765 C74.7095482,48.6048188 74.4766024,43.8925929 74.1023341,39.1642635 C73.9579576,37.4095341 73.8327388,35.6595247 73.7077976,33.9106259 C73.5201082,31.2838071 73.3451906,28.6589318 73.2341318,26.0165647 C73.2044235,25.4104612 73.0178447,24.6305506 72.9578729,23.92616 C72.9245553,23.5338447 72.9298306,23.1612424 72.9942447,22.8375059 C73.0214541,22.7011812 73.0997506,22.5076612 73.3510212,22.3766118 C73.4245976,22.3382965 73.5925741,22.2841553 73.8327388,22.25056 C74.5648941,22.1478306 76.4043059,22.0825835 76.6747341,22.06176 C78.7554212,21.9015576 80.8330541,21.7482965 82.9137412,21.6269647 C84.30392,21.5461694 85.6952094,21.4798118 87.0895529,21.4359435 C90.5140518,21.3329365 93.8069459,21.22632 96.9935012,21.2907341 C102.183002,21.3954071 107.090136,21.9084988 111.820965,23.2589741 C116.857482,24.6966306 121.693816,27.1110494 126.455741,31.1080565 C126.716452,31.3235106 126.752824,31.7099953 126.537369,31.9704282 C126.321915,32.2308612 125.935431,32.2675106 125.674998,32.0517788 C121.019412,28.2544 116.313572,25.9912988 111.42976,24.6613694 C106.803882,23.4014071 102.017247,23.0074259 96.9601835,22.8988659 C93.79584,22.83112 90.5262682,22.8588847 87.1245365,22.9177459 C85.7429647,22.93968 84.3638918,22.9841035 82.9853741,23.04352 C80.9119059,23.1329224 78.8409365,23.25592 76.7669129,23.3847482 C76.5264706,23.3997412 75.0135718,23.4294494 74.2100612,23.5030259 C74.2089506,23.6079765 74.2136706,23.7165365 74.2217224,23.8275953 C74.2728094,24.5469788 74.4513365,25.3452141 74.4738259,25.9638118 C74.5415718,27.7152094 74.6218118,29.4599435 74.7417553,31.2007906 C74.9222259,33.8162259 75.1762729,36.4227765 75.4392047,39.0420988 C75.9309176,43.7876424 76.2868612,48.5195812 76.5139765,53.2587388 C76.7416471,57.99984 76.8391012,62.7459388 76.8341035,67.5159153 C76.7960659,70.8737788 76.7419247,74.2263671 76.6441929,77.5772894 C76.5467388,80.9290447 76.4054165,84.2788565 76.24688,87.6331106 C76.1955153,88.70344 76.1213835,89.7726588 76.0844565,90.8429882 C76.0644659,91.4241035 76.0553035,92.0054965 76.0680753,92.5877224 C76.1274918,92.5696753 76.1880188,92.5499624 76.2496565,92.5302494 C77.3227624,92.1831906 78.5849459,91.5612612 79.2904471,91.3844 C80.9277318,90.9751482 82.5925035,90.6325318 84.2692141,90.3632141 C85.9462024,90.0936188 87.6342965,89.8962118 89.3179482,89.7771012 C92.9051482,89.5236094 96.5364941,89.6871435 100.157012,90.1105553 C105.526428,90.7383153 110.871967,91.9444141 115.99872,93.2768424 C117.930033,93.7768847 119.659774,94.4288 121.271238,95.2917271 C122.891586,96.1590965 124.392824,97.2388659 125.856856,98.5935059 C126.117567,98.8350588 127.215939,99.6380141 127.78456,100.216631 C128.177431,100.616165 128.327915,101.020974 128.314588,101.230042 C128.307369,101.344155 128.255727,101.587929 127.995016,101.785059 C127.800386,101.931934 127.255642,102.192089 127.169849,102.241511 L120.235336,105.955873 C119.388791,106.424541 118.533638,106.872941 117.685704,107.334946 C114.288136,109.185464 110.876687,110.986005 107.393605,112.644113 C103.044541,114.714805 98.6202353,116.630014 94.1412329,118.448325 C94.0418353,118.489139 93.9282776,118.441384 93.8874635,118.341986 C93.8469271,118.242588 93.8944047,118.128753 93.9938024,118.088216 C98.4555906,116.24936 102.863515,114.318047 107.192588,112.224866 C110.655402,110.550654 114.091285,108.814527 117.417496,106.861002 C118.246551,106.374009 119.058113,105.858141 119.873007,105.343661 L126.508216,101.122593 C126.530984,101.108711 126.624273,101.080113 126.735609,101.041798 Z M127.021586,100.930184 C127.150692,100.869379 127.239816,100.801355 127.18984,100.736941 C127.100993,100.623384 127.049073,100.776922 127.021586,100.930184 Z" id="Fill-22" fill="#000000"></path>
                            <path d="M125.590038,30.9964424 C123.416616,34.4214965 122.062809,37.9670494 121.23792,41.6256047 C120.609882,44.4115153 120.282814,47.2610071 120.135661,50.1657506 C119.994061,52.9630447 120.030711,55.8119812 120.074301,58.7061741 C120.231172,65.7384188 120.441351,72.9844518 121.340649,80.0952706 C121.944532,84.8696894 122.856602,89.5838588 124.275934,94.1319953 C124.549416,94.9219012 124.87704,95.6798776 125.238259,96.4220282 C126.057595,98.1065129 127.028805,99.7032612 127.766513,101.434946 C127.835092,101.615139 128.037219,101.705652 128.217134,101.637073 C128.397327,101.568494 128.48784,101.366367 128.419261,101.186452 C127.813991,99.3931294 126.969944,97.7150306 126.275271,95.9650212 C125.988461,95.2425835 125.729694,94.5093176 125.526734,93.7488424 C124.179313,89.2634541 123.329713,84.6203624 122.789689,79.9203529 C121.977849,72.8531247 121.864292,65.6590118 121.793492,58.6784094 C121.744071,55.8192 121.730466,53.00608 121.835139,50.2407153 C121.941755,47.4217647 122.179421,44.6533459 122.708616,41.9343482 C123.397459,38.3937929 124.556913,34.9354212 126.528485,31.5686729 C126.686466,31.3096282 126.60456,30.9711765 126.345515,30.8131953 C126.086471,30.6554918 125.748019,30.7373976 125.590038,30.9964424 Z" id="Fill-23" fill="#000000"></path>
                            <path d="M71.6362729,67.1199906 C71.7276188,67.0464141 71.8389553,66.9956047 71.9627859,66.9764471 C72.3414965,66.9181412 72.6963294,67.1782965 72.7543576,67.5570071 C72.8618071,68.4524188 72.9792518,69.3442212 73.1250165,70.2332471 C73.2219153,70.8238024 73.3304753,71.4115812 73.4531953,71.9976941 C73.9554588,74.1755576 73.7347294,75.5038212 73.0072941,76.16712 C72.2751388,76.8345835 70.8993976,76.9295388 68.8206541,76.3661929 C68.5310682,76.2751247 67.69424,76.1385224 67.1922541,75.9494447 C66.9173835,75.84616 66.7147012,75.7192753 66.6203012,75.6029412 C66.40568,75.3322353 66.2096612,75.0229365 66.0300235,74.6825412 C65.6643624,73.9895341 65.3883812,73.1726965 65.0704753,72.4136094 C64.8528,71.8944094 64.6018071,71.4132471 64.36664,70.9976094 C64.3347106,70.9462447 64.2125459,70.7821553 64.1803388,70.6913647 C64.1525741,70.6133459 64.1634024,70.5431012 64.1711765,70.4872941 C64.2483624,69.9089553 64.5654353,69.5141412 64.9683012,69.1940141 C65.7384941,68.5818024 66.9926259,68.3968894 67.64232,68.0162353 C68.5355106,67.4781553 69.2163012,67.1494212 69.9701129,67.0147624 C70.4740424,66.9248047 70.9985176,66.9708941 71.6362729,67.1199906 Z M71.7142918,69.4369553 C71.4952282,69.4849882 71.2603388,69.4713835 71.036,69.3842024 C70.5778824,69.1432047 70.2341553,68.9977176 69.8510024,69.02576 C69.3748376,69.0607435 68.8917318,69.2006776 68.2748,69.4014165 C67.6589788,69.6099294 66.6297412,69.5749459 65.7937459,69.8556471 C65.4247529,69.9794776 65.0904659,70.1591153 64.9272094,70.5256094 C64.9508094,70.5775294 64.9624706,70.6566588 64.9716329,70.6774824 C65.1340565,71.0187106 65.2737129,71.4110259 65.4489082,71.8102824 C65.6826871,72.3428094 65.9622776,72.8908847 66.2526965,73.4150824 C66.5786541,74.0031388 66.9451482,74.5384424 67.3552329,74.9363106 L69.1302306,75.2808706 C70.7000471,75.7512047 71.7576047,75.91224 72.3165082,75.4063671 C72.8654165,74.9099341 72.7929506,73.8845835 72.3848094,72.2547953 C72.1824047,71.5129224 72.0047106,70.7671624 71.8392329,70.0172376 C71.7964753,69.8239953 71.7548282,69.6304753 71.7142918,69.4369553 Z" id="Fill-24" fill="#000000"></path>
                            <path d="M68.8020518,79.4139247 C68.5977035,79.8226212 68.7009882,80.3798588 68.8797929,80.9593082 C69.2746071,82.2400941 70.1025506,83.5889035 70.3990776,84.2899624 C70.7319765,84.9779718 71.0096235,85.8220188 71.31448,86.7463059 C71.8836565,88.4716047 72.5350165,90.4862118 73.0728188,92.5135906 C73.5870212,94.4518447 74.0329224,96.3831576 74.6232,97.9427012 C75.0979765,99.1971106 75.6221741,100.214687 76.2835294,100.777755 C76.4670541,100.927129 76.5470165,100.681134 76.6594635,100.49872 C76.9240612,100.068922 77.1117506,99.5047435 77.2419671,99.2520847 C77.6706541,98.4141459 77.8416847,97.6886541 77.8572329,96.9787106 C77.8827765,95.8212 77.5054541,94.7081129 77.1556188,93.26296 C77.0739906,92.8886918 77.3119341,92.5185882 77.6862024,92.4372376 C78.0604706,92.3556094 78.4305741,92.5935529 78.5119247,92.9678212 C78.8181694,94.5512424 79.1430165,95.7789976 79.06,97.0317412 C79.0028047,97.8949459 78.7693035,98.7720329 78.2054024,99.7701741 C77.9841176,100.165821 77.5737553,101.228099 77.0437271,101.616805 C76.6314212,101.919162 76.1616424,101.998292 75.6388329,101.545449 C74.58072,100.671972 73.7352847,98.8353365 73.0333929,96.6019435 C72.6746729,95.4610918 72.3226165,94.2219529 72.0341412,92.9539388 C71.5638071,90.8871341 71.2611718,88.7498071 70.7408612,86.9814729 C70.4709882,86.0641271 70.1386447,85.2547859 69.79936,84.5878776 C69.3398541,83.7907529 68.0648988,82.1690165 67.5792941,80.7246965 C67.2786024,79.8306729 67.3219153,78.99912 67.7450494,78.3408188 C67.7941929,78.2630776 67.9288518,78.1450776 68.1695718,78.0320753 C68.3492094,77.9479482 68.73736,77.8313365 69.2371247,77.6925129 C70.7428047,77.2740988 73.3179812,76.7176941 73.7089082,76.6752141 C74.3602682,76.6566118 74.9039012,77.1708141 74.9222259,77.8221741 C74.9408282,78.4735341 74.4266259,79.0171671 73.7752659,79.0354918 C73.3632376,79.0141129 70.2777459,79.1979153 69.0297224,79.3789412 C68.9542024,79.3900471 68.8681318,79.4033741 68.8020518,79.4139247 Z" id="Fill-25" fill="#000000"></path>
                            <path d="M75.9847812,69.6787859 C75.5208329,69.2773082 74.9658165,68.9005412 74.4846541,68.4532518 C74.2275529,68.2141976 73.9723953,67.9870824 73.8191341,67.6891671 C73.6575435,67.3657082 73.4651341,66.3112047 73.3071529,64.9243576 C73.23552,64.2971529 73.1544471,63.6169176 73.1261271,62.9036424 C73.1119671,62.5535294 73.1200188,62.1970306 73.1314024,61.8394212 C73.1783247,60.3401271 73.3501882,58.8252847 73.3618494,57.5714306 C73.3710118,56.5755106 73.2996565,55.7506212 73.2405176,55.2430824 C73.1361224,54.3354541 72.5486212,52.5127012 72.2545929,51.0553318 C72.1185459,50.3812047 72.0433035,49.8009224 72.1268753,49.4952329 C72.1438118,49.4341506 72.22072,49.3908376 72.2934635,49.3242024 C72.5311294,49.1076376 72.8879059,48.8935718 73.2593976,48.6922776 C73.8704988,48.3613224 74.5310212,48.0858965 74.8689176,47.9584565 C75.2223624,47.8104706 75.3892282,47.4037176 75.24152,47.0502729 C75.0935341,46.6968282 74.6865035,46.5299624 74.3330588,46.6776706 C73.8419012,46.9039529 72.7238165,47.4792376 71.9650071,48.0634071 C71.4494165,48.46072 71.0965271,48.8880188 71.0254494,49.2270259 C70.9593694,49.5382682 70.9985176,50.0444188 71.1104094,50.65552 C71.3808376,52.1309365 72.0480235,54.3407294 72.15464,55.3602494 C72.2029506,55.8469647 72.1904565,56.6379812 72.2315482,57.5905882 C72.2851341,58.8394447 72.4583859,60.3476235 72.5169694,61.84192 C72.5308518,62.1998071 72.5455671,62.5568612 72.5330729,62.9075294 C72.4408941,65.4502212 72.1987859,67.6705647 72.34816,68.2339106 C72.4417271,68.6278918 72.6299718,68.9857788 72.8387624,69.3489412 C73.2344094,70.0366729 73.8016424,70.6505506 74.2342165,71.2638729 C74.6717882,71.7469788 75.4189365,71.7839059 75.9020424,71.3466118 C76.3851482,70.90904 76.4220753,70.1618918 75.9847812,69.6787859 Z" id="Fill-26" fill="#000000"></path>
                            <path d="M72.0188706,45.5290447 C72.1779624,45.4610212 72.3489929,45.2974871 72.5575059,45.1403388 C73.3088188,44.5739388 74.0970588,43.7148988 74.5460141,43.3620094 C75.1188,43.0510447 75.83624,43.2634447 76.1472047,43.8362306 C76.4581694,44.4087388 76.2457694,45.1261788 75.6729835,45.4371435 C75.0538306,45.6495435 73.7855388,46.3275576 72.8365412,46.5741082 C72.4231247,46.6815576 72.0732894,46.7545788 71.8011953,46.6915529 C71.4988376,46.6213082 71.1281788,46.3478259 70.9196659,45.7805929 C70.7561318,45.3355247 70.6481271,44.7324753 70.50264,44.16552 C70.3191153,43.4503012 70.0906118,42.8125459 70.0411906,42.6212471 C69.8510024,41.966 69.7879765,41.3063106 69.8571106,40.6421788 C70.0048188,39.2300659 70.6839435,37.8596 70.9249412,36.4838588 C70.9424329,36.3514212 70.9499294,35.3352329 71.0099012,34.9307012 C71.0596,34.5958588 71.2558965,34.4353788 71.3322494,34.3876235 L73.9338024,33.0024424 C74.2828047,32.8441835 74.6945553,32.9991106 74.8528141,33.3481129 C75.0110729,33.6968376 74.8561459,34.1085882 74.5071435,34.2668471 C73.9776706,34.4761929 73.4312612,34.6763765 72.8951247,34.8976612 C72.6130353,35.0142729 72.3342776,35.1356047 72.0635718,35.2666541 C71.9891624,35.7142212 71.9383529,36.5305035 71.9158635,36.6460047 C71.7073506,38.0175812 71.2009224,39.4116471 70.94632,40.7987718 C70.8447012,41.3537882 70.7405835,41.8985318 70.8011106,42.4721506 C70.8266541,42.6615059 70.8569176,43.3259153 71.0657082,44.0092047 C71.2595059,44.6433506 72.0402494,45.1917035 72.0188706,45.5290447 Z" id="Fill-27" fill="#000000"></path>
                            <path d="M71.9630635,31.35072 C71.8342353,31.3918118 71.6545976,31.4442871 71.5596424,31.4534494 C71.3172565,31.4767718 71.1034682,31.4876 70.9316047,31.38376 C70.7850071,31.2951906 70.6175859,31.2113412 70.5267953,31.0178212 C70.5009741,30.9634024 70.3829741,30.8281882 70.4051859,30.5791388 C70.41296,30.4905694 70.4337835,30.31232 70.4798729,30.0585506 C70.5839906,29.4852094 70.7891718,28.4990071 70.9868565,27.3909176 C71.0898635,26.8120235 71.2145271,26.2117506 71.2703341,25.6192518 C71.4108235,24.1249553 71.34752,22.7597647 71.3133694,22.3519012 C71.2658918,21.8254824 71.1737129,21.3073929 71.1090212,20.7820847 C71.0648753,20.4264188 71.0373882,20.0685318 71.0074024,19.7114776 C70.9560376,19.1009318 70.9224424,18.4901082 70.9238306,17.8787294 C70.9238306,17.8604047 70.90856,17.5175106 70.9260518,17.3850729 C70.9652,17.0866024 71.1601082,16.9591624 71.2406259,16.9233459 C72.1807388,16.4966024 72.9403812,16.5102071 73.5653647,16.7606447 C74.0479153,16.9538871 74.4552235,17.2987247 74.8022824,17.7493459 C75.8181929,19.0695576 76.2577082,21.3876329 76.5436847,22.6003953 C76.6189271,22.9760518 76.3748753,23.3419906 75.9992188,23.4172329 C75.6235624,23.4921976 75.2576235,23.2484235 75.1823812,22.8727671 C74.9988565,21.7591247 74.8108894,19.6101365 73.9532376,18.3687765 C73.7450024,18.0672518 73.4992847,17.8190353 73.1888753,17.6929835 C72.8532,17.5563812 72.4569976,17.5722071 71.9874965,17.7482353 L71.9938824,17.8642918 C72.0133176,18.8938071 72.1832376,19.9172141 72.2459859,20.9481176 C72.2737506,21.4067906 72.2654212,21.8643529 72.2512612,22.3233035 C72.2415435,22.7453271 71.9663953,24.1252329 71.8536706,25.6681176 C71.81008,26.2620047 71.8306259,26.8750494 71.8342353,27.4631059 C71.8392329,28.2593976 71.8611671,28.9957176 71.8853224,29.5610071 C71.9744471,29.5535106 72.0621835,29.5551765 72.1460329,29.5560094 C72.7054918,29.5621176 73.2316329,29.6742871 73.7847059,29.7287059 C73.9590682,29.74592 74.1312094,29.7384235 74.3108471,29.7328706 C74.9597082,29.7950635 75.4355953,30.3722918 75.3731247,31.0211529 C75.3109318,31.6697365 74.7334259,32.1456235 74.0848424,32.0834306 C73.8119153,32.0215153 73.5514824,31.9582118 73.2954918,31.8643671 C72.8432047,31.6980565 72.4270118,31.4845459 71.9630635,31.35072 Z" id="Fill-28" fill="#000000"></path>
                            <path d="M83.9438118,122.212386 C82.8196188,122.420344 81.7062541,122.682165 80.5817835,122.8904 C79.8326918,123.028946 79.0794353,123.113906 78.3292329,123.246344 C78.0501976,123.295765 77.7706071,123.34352 77.4946259,123.4096 C76.8504847,123.563416 76.2282776,123.786367 75.5833035,123.936574 C74.6695671,124.149252 73.7408376,124.292795 72.8109976,124.430508 C72.5075294,124.472711 72.2951294,124.753412 72.3376094,125.05688 C72.3798118,125.360348 72.6605129,125.572748 72.9639812,125.530268 C73.8782729,125.410325 74.7822918,125.235129 75.6918635,125.093529 C76.2990776,124.999407 76.9096235,124.952485 77.5140612,124.841426 C77.8519576,124.779511 78.1870776,124.703158 78.5194212,124.616809 C79.2951671,124.414682 80.0450918,124.140645 80.8188941,123.930744 C81.9142118,123.633384 83.0242447,123.395995 84.1331671,123.155275 C84.3933224,123.103078 84.5621318,122.849308 84.5099341,122.589153 C84.4577365,122.328998 84.2039671,122.160188 83.9438118,122.212386 Z" id="Fill-29" fill="#000000"></path>
                            <path d="M63.1116753,126.294075 C60.0309035,126.665845 56.0127953,127.243073 51.6356894,127.698969 C47.9385412,128.084066 43.9834588,128.308127 40.1394353,128.484988 C38.1834118,128.574946 36.2576518,128.689614 34.4015812,128.675176 C29.6854682,128.638527 25.4471859,128.085732 22.4819153,126.733868 C22.2034353,126.605318 21.8733129,126.727205 21.7447624,127.005407 C21.6164894,127.283609 21.7380988,127.613732 22.0163012,127.742282 C24.5551059,128.920894 27.9982071,129.507007 31.8797129,129.772438 C33.9937176,129.916814 36.2384941,130.005939 38.5415765,129.95624 C39.7751624,129.929586 41.0248518,129.867671 42.2773176,129.777435 C45.1945553,129.567534 48.1242871,129.190212 50.93352,128.845652 C55.6213129,128.2712 59.95816,127.670927 63.2307859,127.248348 C63.4939953,127.215586 63.6811294,126.975144 63.6483671,126.711656 C63.6153271,126.448447 63.3748847,126.261313 63.1116753,126.294075 Z" id="Fill-30" fill="#000000"></path>
                            <path d="M6.22568,51.9526871 C6.47000941,55.57376 6.88453647,59.1320847 7.38263529,62.6718071 C8.12811765,67.9723671 9.05879059,73.2290588 9.84980706,78.5918118 C10.4939482,82.8703529 11.1430871,87.1300141 11.9354918,91.3574682 C12.2761647,93.1757788 12.6504329,94.9863153 13.0458024,96.7926871 C13.9673129,101.004038 15.0590212,105.172353 16.1590588,109.35816 C16.6280047,111.142598 17.0827906,112.933976 17.5775576,114.719525 C18.2827812,117.298866 18.8758353,119.880151 19.6346447,122.412847 C20.1463482,124.121209 20.7327388,125.807915 21.4793318,127.457139 C21.6059388,127.736174 21.9352282,127.860005 22.2145412,127.733398 C22.4935765,127.607068 22.6174071,127.277779 22.4908,126.998466 C21.7636424,125.395887 21.1914118,123.756659 20.6938682,122.095774 C19.9378353,119.571407 19.3517224,116.997619 18.6512188,114.426607 C18.172,112.645779 17.7005553,110.867172 17.2788094,109.07968 C16.8556753,107.285525 16.4811294,105.484428 16.1129694,103.683054 C15.42496,100.313807 14.8541176,96.9304 14.2357976,93.5511576 C13.3101224,88.4938165 12.3558494,83.4361976 11.5290165,78.3277694 C10.6380471,72.9830635 9.61602824,67.7458071 8.76448471,62.4632941 C8.20030588,58.9641082 7.70914824,55.4460424 7.38985412,51.8616188 C7.36486588,51.5401035 7.08360941,51.2996612 6.76237176,51.3249271 C6.44085647,51.3501929 6.20041412,51.6314494 6.22568,51.9526871 Z" id="Fill-31" fill="#000000"></path>
                            <path d="M6.77014588,52.47272 C11.8674682,53.9051012 16.7590541,55.2400282 21.7405976,56.0893506 C22.5021835,56.2192894 23.2668235,56.3284047 24.0353506,56.4133647 C25.82312,56.6110494 27.6197741,56.6471435 29.4344753,56.7715294 C31.9560659,56.9445035 34.5059765,57.1680094 37.1291859,57.2238165 C37.4357082,57.2313129 37.6905882,56.9886494 37.6982664,56.6824047 C37.7058588,56.3758824 37.4631953,56.1210024 37.1566729,56.1135059 C34.9835294,56.0563106 32.8545318,55.9644094 30.7627388,55.74368 C29.8476141,55.6470588 28.9419294,55.5210071 28.04152,55.3752424 C26.7690635,55.1692282 25.52576,54.8779765 24.2669082,54.6433647 C23.4281365,54.4870494 22.5879765,54.3460047 21.7467059,54.2074588 C16.9039859,53.4086682 12.0693176,52.5065929 7.06056471,51.3415859 C6.74848941,51.2613459 6.43002824,51.4495906 6.34978824,51.7616659 C6.26954824,52.0740188 6.45807059,52.39248 6.77014588,52.47272 Z" id="Fill-32" fill="#000000"></path>
                            <path d="M42.7176659,57.2235388 C47.7311388,57.4836941 52.5938494,57.3640282 57.3971435,56.6837929 C58.1254118,56.5805082 58.8506259,56.4552894 59.5713976,56.30536 C61.2478306,55.95608 62.8806729,55.4479859 64.55544,55.0279059 C66.89656,54.4404047 69.2732188,53.9103765 71.6526541,53.2490212 C71.9483482,53.1679482 72.1224329,52.8622588 72.0416376,52.5665647 C71.9605647,52.2711482 71.6548753,52.0967859 71.3591812,52.1778588 C69.3773365,52.7173271 67.4160376,53.2456894 65.4447435,53.6552188 C64.5893129,53.8329129 63.7327718,53.9828424 62.8740094,54.1136141 C61.6643012,54.2982494 60.4548706,54.3954259 59.2473835,54.5497976 C58.4444282,54.6525271 57.6448047,54.7696941 56.8451812,54.8871388 C52.2254118,55.5657082 47.5828753,56.0760235 42.7504282,56.0563106 C42.4283576,56.0471482 42.1593176,56.3011953 42.1501927,56.6235435 C42.1412706,56.9456141 42.3953176,57.2143765 42.7176659,57.2235388 Z" id="Fill-33" fill="#000000"></path>
                            <path d="M84.5640753,27.7601882 C84.6457035,27.7152094 84.7395482,27.6904988 84.8395012,27.6921647 C85.1457459,27.6979953 85.3900753,27.9512094 85.3845224,28.2577318 C85.3467624,30.4555859 85.3017835,31.7988424 85.2659671,32.4418729 C85.2515294,32.7009176 85.2345929,32.8650071 85.2190447,32.94136 C85.1343624,33.3578306 84.8117365,33.4097506 84.7206682,33.4230776 C84.4191435,33.4697224 84.1309459,33.5027624 83.8582965,33.54552 C82.2254541,33.8020659 81.0382353,33.8764753 80.0817412,33.5399671 C79.4026165,33.3011906 78.8378824,32.8708376 78.3561647,32.2316941 C77.8913835,31.6153176 77.5232235,30.7640518 77.1761647,29.6445788 C77.1003671,29.3924753 76.84632,28.6617082 76.8277176,28.2002588 C76.8096706,27.7585224 76.9526588,27.4286776 77.1461788,27.24904 C77.8147529,26.6318306 78.4677788,26.4341459 79.1202494,26.4716282 C79.7749412,26.5093882 80.4343529,26.7975859 81.0926541,27.1068847 C81.5607671,27.3267812 82.0244376,27.5686118 82.51504,27.5694447 C82.9387294,27.5705553 83.2585788,27.4667153 83.6489506,27.4811529 C83.8380282,27.4883718 84.0404329,27.5111388 84.2672706,27.5777741 C84.3869365,27.6080376 84.4888329,27.6732847 84.5640753,27.7601882 Z M84.2642165,28.7105741 C84.1742588,28.7330635 84.0776376,28.7344518 83.9815718,28.7100188 C83.8116518,28.6742024 83.6694965,28.6814212 83.5370588,28.6969694 C83.2136,28.7347294 82.9290118,28.8321835 82.5611294,28.8593929 C81.5077365,28.9354682 80.4510118,28.2599529 79.4337129,28.0536612 C79.1288565,27.9920235 78.83344,28.0186776 78.5430212,28.2219153 C78.6240941,28.4665224 78.7879059,28.9587906 78.8364941,29.0903953 C79.1513459,29.9705365 79.4831341,30.6241176 79.84824,31.1199953 C80.1145035,31.4814918 80.3940941,31.7488659 80.7567012,31.9268376 C81.3189365,32.2030965 82.0011153,32.3688518 82.9112424,32.3807906 C83.2918965,32.3860659 83.7036471,32.3641318 84.1517694,32.3313694 C84.1936941,31.7322071 84.2275671,30.56248 84.2642165,28.7105741 Z" id="Fill-34" fill="#000000"></path>
                            <path d="M77.2089271,37.6249882 C83.5587153,36.5635435 91.4111294,35.9274541 99.0611388,36.4932988 C99.9693224,36.5602118 100.873896,36.6473929 101.775416,36.7334635 C102.683322,36.8200894 103.587064,36.9028282 104.483586,37.01472 C106.933266,37.3209647 109.334913,37.7279953 111.597736,38.4343294 C115.161892,39.5468612 118.376489,41.2788235 121.060781,43.5819059 C121.292894,43.7820894 121.64384,43.7557129 121.843746,43.5236 C122.043929,43.2914871 122.017553,42.9405412 121.78544,42.7403576 C119.001473,40.3337129 115.622786,38.6436753 111.962287,37.3420659 C109.657261,36.5227294 107.251449,35.8169506 104.749572,35.3360659 C103.834447,35.1600376 102.910715,35.0020565 101.976433,34.8876659 C101.051313,34.7743859 100.117586,34.7035859 99.1816376,34.6502776 C91.3914165,34.2082635 83.4215576,35.1989082 76.9990259,36.4760847 C76.6819529,36.5341129 76.4714965,36.8386918 76.5295247,37.1554871 C76.5875529,37.47256 76.8921318,37.6827388 77.2089271,37.6249882 Z" id="Fill-35" fill="#000000"></path>
                            <path d="M95.75936,58.9604988 C95.7388141,58.9405082 95.7188235,58.9205176 95.6991106,58.9005271 C94.9153129,58.0909082 93.6256424,56.8567671 92.1632753,55.6001365 C91.4799859,55.0129129 90.7550494,54.4276329 90.0406635,53.8634541 C87.7089835,52.0220988 85.4939153,50.4042494 84.9291812,49.9328047 C84.5854541,49.6251718 84.5563012,49.0962541 84.8639341,48.7525271 C85.1715671,48.4088 85.7004847,48.3796471 86.0442118,48.68728 C86.4262541,49.0565506 87.6106965,50.1193835 89.0927765,51.4112753 C90.0592659,52.2539341 91.1323718,53.2112612 92.2151953,54.11056 C93.8566447,55.4738071 95.4878212,56.7332141 96.4948471,57.6244612 C97.0426447,58.1092329 97.4235765,58.4951624 97.5848894,58.7214447 C97.7051106,58.8896988 97.7503671,59.0404612 97.7731341,59.1437459 C97.7778541,59.16568 97.8778071,59.7262494 97.3064094,60.0147247 C97.2586541,60.0386024 97.1584235,60.0877459 97.0207106,60.1524376 C96.3085459,60.4867247 94.5377129,61.2819059 94.3280894,61.3901882 C93.0239812,62.0446024 91.7362541,62.7303906 90.4665741,63.4486635 C88.5491435,64.5334306 86.6683624,65.6817788 84.7745318,66.8059718 C84.3200235,67.0672376 83.7386306,66.9103671 83.4770871,66.4558588 C83.2158212,66.0010729 83.3726918,65.41968 83.8274776,65.1581365 C86.0814165,63.8995624 88.3314682,62.6298824 90.6112282,61.41712 C91.5946541,60.8940329 92.5808565,60.3764988 93.5806635,59.8850635 C93.7508612,59.8037129 94.9058729,59.3172753 95.75936,58.9604988 Z M96.2416329,59.4130635 C96.2363576,59.4255576 96.2335812,59.4330541 96.2338588,59.4349976 C96.2399671,59.4741459 96.2285835,59.6249082 96.2904988,59.5893694 C96.3449176,59.5579953 96.3154871,59.4955247 96.2416329,59.4130635 Z" id="Fill-36" fill="#000000"></path>
                            <path d="M66.1019341,163.701352 C66.2501976,161.021281 66.3862447,158.350455 66.6844376,155.68235" id="Stroke-37" stroke="#000000" stroke-width="0.5" stroke-linecap="round" stroke-linejoin="round"></path>
                            <path d="M69.9734447,130.071741 C69.1618824,133.490409 68.5754918,136.892419 68.3692,140.404099" id="Stroke-38" stroke="#000000" stroke-width="0.5" stroke-linecap="round" stroke-linejoin="round"></path>
                            <path d="M65.6185506,128.055468 C65.6937929,129.158282 65.7509882,130.261929 65.7954118,131.366409" id="Stroke-39" stroke="#000000" stroke-width="0.5" stroke-linecap="round" stroke-linejoin="round"></path>
                            <path d="M70.5379012,131.926424 C69.9037553,136.080024 69.1307859,140.142833 68.9394871,144.351962" id="Stroke-40" stroke="#000000" stroke-width="0.5" stroke-linecap="round" stroke-linejoin="round"></path>
                            <path d="M70.4573835,137.329991 C69.2832141,143.255534 68.5582776,149.132489 69.1244,155.177477" id="Stroke-41" stroke="#000000" stroke-width="0.5" stroke-linecap="round" stroke-linejoin="round"></path>
                            <path d="M91.2781365,117.545694 C89.8601929,121.819238 89.8204894,125.735449 90.8172424,130.100061" id="Stroke-42" stroke="#000000" stroke-width="0.5" stroke-linecap="round" stroke-linejoin="round"></path>
                            <path d="M90.9952141,134.230894 C91.6085365,137.677882 92.3095953,141.078781 93.1011671,144.488565" id="Stroke-43" stroke="#000000" stroke-width="0.5" stroke-linecap="round" stroke-linejoin="round"></path>
                            <path d="M92.4142682,136.66336 C93.1475341,141.366979 93.6897788,146.116965 94.0329506,150.865007" id="Stroke-44" stroke="#000000" stroke-width="0.5" stroke-linecap="round" stroke-linejoin="round"></path>
                            <path d="M71.2039765,106.896819 C72.1252094,108.092367 72.9809176,109.344278 73.9257506,110.519835" id="Stroke-45" stroke="#000000" stroke-width="0.5" stroke-linecap="round" stroke-linejoin="round"></path>
                            <path d="M71.8417318,105.382254 C72.95704,107.178908 74.0445835,108.991666 75.1698871,110.782212" id="Stroke-46" stroke="#000000" stroke-width="0.5" stroke-linecap="round" stroke-linejoin="round"></path>
                            <path d="M71.0443294,105.142922 C72.5658353,107.378536 73.8119153,109.770188 75.2498494,112.057722" id="Stroke-47" stroke="#000000" stroke-width="0.5" stroke-linecap="round" stroke-linejoin="round"></path>
                            <path d="M72.5591718,104.186428 C73.2060894,105.623252 73.8630024,107.0548 74.5412941,108.476908" id="Stroke-48" stroke="#000000" stroke-width="0.5" stroke-linecap="round" stroke-linejoin="round"></path>
                            <path d="M73.8346824,103.149972 C74.1806306,104.236127 74.4982588,105.332 74.8725271,106.408993" id="Stroke-49" stroke="#000000" stroke-width="0.5" stroke-linecap="round" stroke-linejoin="round"></path>
                            <path d="M74.8711388,102.352847 C75.2626212,104.075647 75.7457271,105.772626 76.2638165,107.461275" id="Stroke-50" stroke="#000000" stroke-width="0.5" stroke-linecap="round" stroke-linejoin="round"></path>
                            <path d="M74.6215341,117.760315 C76.51592,116.981515 78.3420047,116.239365 80.3407859,115.75848" id="Stroke-51" stroke="#000000" stroke-width="0.5" stroke-linecap="round" stroke-linejoin="round"></path>
                            <path d="M75.2068141,118.504965 C76.9682071,117.624546 78.6810118,117.059812 80.6006635,116.636122" id="Stroke-52" stroke="#000000" stroke-width="0.5" stroke-linecap="round" stroke-linejoin="round"></path>
                            <path d="M76.3240659,118.930598 C77.27112,118.473035 78.2464941,117.973271 79.2765647,117.726165" id="Stroke-53" stroke="#000000" stroke-width="0.5" stroke-linecap="round" stroke-linejoin="round"></path>
                            <path d="M67.3866071,108.982504 C67.1944753,109.993694 66.8124329,110.952687 66.3218306,111.857539" id="Stroke-54" stroke="#000000" stroke-width="0.5" stroke-linecap="round" stroke-linejoin="round"></path>
                            <path d="M66.64168,108.929195 C66.0514024,110.678649 65.5291482,112.193769 64.38552,113.684179" id="Stroke-55" stroke="#000000" stroke-width="0.5" stroke-linecap="round" stroke-linejoin="round"></path>
                            <path d="M67.9718871,108.982504 C67.7450494,110.032842 67.4304753,111.027374 67.0040094,112.014132" id="Stroke-56" stroke="#000000" stroke-width="0.5" stroke-linecap="round" stroke-linejoin="round"></path>
                            <path d="M57.01288,95.2570212 C58.6243435,98.2814306 60.1011482,101.40968 62.1196424,104.191704" id="Stroke-57" stroke="#000000" stroke-width="0.5" stroke-linecap="round" stroke-linejoin="round"></path>
                            <path d="M56.5339388,91.4799106 C58.2425788,95.8470212 61.1670353,99.7762824 64.2464188,103.267139" id="Stroke-58" stroke="#000000" stroke-width="0.5" stroke-linecap="round" stroke-linejoin="round"></path>
                            <path d="M64.8330871,91.1608941 C65.6107765,93.4625882 66.0555671,95.8681224 66.7891106,98.1842541" id="Stroke-59" stroke="#000000" stroke-width="0.5" stroke-linecap="round" stroke-linejoin="round"></path>
                            <path d="M65.7906918,91.42688 C66.4878635,94.6825694 67.3221929,98.0582024 68.4794259,101.185896" id="Stroke-60" stroke="#000000" stroke-width="0.5" stroke-linecap="round" stroke-linejoin="round"></path>
                            <path d="M67.0673129,93.6611059 C67.5784612,95.6068565 68.1412518,97.5356706 68.9086682,99.3964612" id="Stroke-61" stroke="#000000" stroke-width="0.5" stroke-linecap="round" stroke-linejoin="round"></path>
                            <path d="M73.3979435,79.5102682 C73.8416235,81.2286259 74.1964565,82.9800235 74.4890965,84.7303106" id="Stroke-62" stroke="#000000" stroke-width="0.5" stroke-linecap="round" stroke-linejoin="round"></path>
                            <path d="M72.7596329,80.5209035 C73.4629129,83.42648 74.2206118,86.3253929 74.9563765,89.2237506" id="Stroke-63" stroke="#000000" stroke-width="0.5" stroke-linecap="round" stroke-linejoin="round"></path>
                            <path d="M72.8129412,83.8193506 C73.2743906,85.9269694 73.9346353,88.0009929 74.5046447,90.0819576" id="Stroke-64" stroke="#000000" stroke-width="0.5" stroke-linecap="round" stroke-linejoin="round"></path>
                            <path d="M72.5469553,86.3728706 C73.0109035,88.2358824 73.6092329,90.0913976 74.2164471,91.9133176" id="Stroke-65" stroke="#000000" stroke-width="0.5" stroke-linecap="round" stroke-linejoin="round"></path>
                            <path d="M76.9090682,97.8105412 C76.2918588,96.3401224 75.6627106,94.8935812 75.1448988,93.3831812" id="Stroke-66" stroke="#000000" stroke-width="0.5" stroke-linecap="round" stroke-linejoin="round"></path>
                            <path d="M77.2283624,96.8532141 C76.8224424,95.6396188 76.2068988,94.5259765 75.7137976,93.3490306" id="Stroke-67" stroke="#000000" stroke-width="0.5" stroke-linecap="round" stroke-linejoin="round"></path>
                            <path d="M77.6006871,96.0549788 C77.3777365,95.2911718 77.1470118,94.5295859 76.9118447,93.7693882" id="Stroke-68" stroke="#000000" stroke-width="0.5" stroke-linecap="round" stroke-linejoin="round"></path>
                            <path d="M60.8430212,71.5304141 C59.6347012,71.6325882 58.6154588,72.2120376 57.8175012,73.1080047" id="Stroke-69" stroke="#000000" stroke-width="0.5" stroke-linecap="round" stroke-linejoin="round"></path>
                            <path d="M59.8854165,72.4347106 C59.4400706,72.7478965 59.0260988,73.1396565 58.6937553,73.5725082" id="Stroke-70" stroke="#000000" stroke-width="0.5" stroke-linecap="round" stroke-linejoin="round"></path>
                            <path d="M60.3110494,72.9666824 C60.0736612,73.2559906 59.8618165,73.5489082 59.7027247,73.8884706" id="Stroke-71" stroke="#000000" stroke-width="0.5" stroke-linecap="round" stroke-linejoin="round"></path>
                            <path d="M41.1062024,100.098353 C42.5038776,101.783393 44.4604565,102.254005 46.4758965,102.867882" id="Stroke-72" stroke="#000000" stroke-width="0.5" stroke-linecap="round" stroke-linejoin="round"></path>
                            <path d="M49.9906306,103.556169 C50.6836376,104.014565 51.4074635,104.422984 52.1124094,104.863054" id="Stroke-73" stroke="#000000" stroke-width="0.5" stroke-linecap="round" stroke-linejoin="round"></path>
                            <path d="M47.7028188,105.045746 C49.6072,106.223525 51.4216235,107.456 53.2324376,108.769548" id="Stroke-74" stroke="#000000" stroke-width="0.5" stroke-linecap="round" stroke-linejoin="round"></path>
                            <path d="M52.5441506,107.33328 C53.4717694,108.133181 54.3216471,109.025261 55.2612047,109.809336" id="Stroke-75" stroke="#000000" stroke-width="0.5" stroke-linecap="round" stroke-linejoin="round"></path>
                            <path d="M29.9345176,89.0327294 C30.0783388,90.8018965 31.1764329,92.1032282 32.4039106,93.29128" id="Stroke-76" stroke="#000000" stroke-width="0.5" stroke-linecap="round" stroke-linejoin="round"></path>
                            <path d="M29.3492376,92.1715294 C30.7805082,93.3673553 31.8869318,95.0415671 32.8512,96.6255435" id="Stroke-77" stroke="#000000" stroke-width="0.5" stroke-linecap="round" stroke-linejoin="round"></path>
                            <path d="M48.9264094,88.1284329 C45.7845553,89.0688235 42.6257647,89.0207906 39.4303247,88.2539294" id="Stroke-78" stroke="#000000" stroke-width="0.5" stroke-linecap="round" stroke-linejoin="round"></path>
                            <path d="M41.4785271,87.2771671 C40.6483624,87.3035435 39.8201412,87.3374165 38.9902541,87.3737882" id="Stroke-79" stroke="#000000" stroke-width="0.5" stroke-linecap="round" stroke-linejoin="round"></path>
                            <path d="M56.0552753,86.4792094 C58.2342494,86.8420941 60.4221082,87.1702729 62.5872,86.55584" id="Stroke-80" stroke="#000000" stroke-width="0.5" stroke-linecap="round" stroke-linejoin="round"></path>
                            <path d="M60.2580188,88.2347718 C61.1448235,87.9190871 61.9983106,87.5959059 62.8429129,87.1766588" id="Stroke-81" stroke="#000000" stroke-width="0.5" stroke-linecap="round" stroke-linejoin="round"></path>
                            <path d="M61.8006259,89.0327294 C62.6979812,88.6448565 63.5420282,88.1453694 64.2564141,87.4729082" id="Stroke-82" stroke="#000000" stroke-width="0.5" stroke-linecap="round" stroke-linejoin="round"></path>
                            <path d="M47.9432612,78.6251294 C49.35704,80.1646824 50.4773459,81.9280188 51.4704894,83.7624329" id="Stroke-83" stroke="#000000" stroke-width="0.5" stroke-linecap="round" stroke-linejoin="round"></path>
                            <path d="M50.7785929,80.1577412 C51.3152847,81.1675435 51.8728,82.17096 52.3264753,83.2218541" id="Stroke-84" stroke="#000000" stroke-width="0.5" stroke-linecap="round" stroke-linejoin="round"></path>
                            <path d="M39.05328,60.7688141 C39.8884424,63.7837835 41.5154541,66.4117129 42.9306212,69.1787435" id="Stroke-85" stroke="#000000" stroke-width="0.5" stroke-linecap="round" stroke-linejoin="round"></path>
                            <path d="M42.0421506,59.9258776 C43.0094729,63.4778165 44.3852141,66.6477129 46.3592847,69.7379247" id="Stroke-86" stroke="#000000" stroke-width="0.5" stroke-linecap="round" stroke-linejoin="round"></path>
                            <path d="M41.6589976,64.9837741 C42.8059576,67.03392 43.6622212,69.1817976 44.2247341,71.4629459" id="Stroke-87" stroke="#000000" stroke-width="0.5" stroke-linecap="round" stroke-linejoin="round"></path>
                            <path d="M73.4731859,52.3036329 C73.6780894,55.2322541 73.7275106,58.1689271 73.8921553,61.10088" id="Stroke-88" stroke="#000000" stroke-width="0.5" stroke-linecap="round" stroke-linejoin="round"></path>
                            <path d="M33.1707718,41.1805365 C34.4262918,44.3162824 36.3309506,47.1257929 37.2133129,50.4156329" id="Stroke-89" stroke="#000000" stroke-width="0.5" stroke-linecap="round" stroke-linejoin="round"></path>
                            <path d="M33.2773882,44.9096141 C34.6870024,47.1466165 35.9253082,49.3733459 36.4942071,51.9815624" id="Stroke-90" stroke="#000000" stroke-width="0.5" stroke-linecap="round" stroke-linejoin="round"></path>
                            <path d="M29.0155059,26.2642259 C29.3397976,27.8001694 29.80208,29.3508282 29.8628847,30.9275859" id="Stroke-91" stroke="#000000" stroke-width="0.5" stroke-linecap="round" stroke-linejoin="round"></path>
                            <path d="M27.8435576,27.4361741 C28.4243953,29.53352 29.0860282,31.6205929 29.1932,33.8056753" id="Stroke-92" stroke="#000000" stroke-width="0.5" stroke-linecap="round" stroke-linejoin="round"></path>
                            <path d="M72.5922118,36.9186541 C72.7718494,39.3125271 73.0061835,41.6469835 72.72104,44.0505741" id="Stroke-93" stroke="#000000" stroke-width="0.5" stroke-linecap="round" stroke-linejoin="round"></path>
                            <path d="M71.8464518,39.2625506 C71.88088,40.2487529 71.9108659,41.2410635 71.8406212,42.2267106" id="Stroke-94" stroke="#000000" stroke-width="0.5" stroke-linecap="round" stroke-linejoin="round"></path>
                            <path d="M72.9117835,24.5594729 C72.9453788,25.5134682 72.9506541,26.4624659 72.8881835,27.4156282" id="Stroke-95" stroke="#000000" stroke-width="0.5" stroke-linecap="round" stroke-linejoin="round"></path>
                            <path d="M72.5922118,18.5928376 C72.6610682,20.6615859 72.9053976,22.7941929 72.73048,24.8626635" id="Stroke-96" stroke="#000000" stroke-width="0.5" stroke-linecap="round" stroke-linejoin="round"></path>
                            <path d="M36.70744,130.90968 C33.37512,127.645106 29.9322965,124.521576 26.0507906,121.991101 C25.0240518,121.321694 24.7339106,119.944287 25.4033176,118.917548 C26.0727247,117.890532 27.4501318,117.600391 28.4771482,118.269798 C32.4880376,120.884955 36.0444188,124.116212 39.4911294,127.486847 C41.9463624,124.519633 44.4474071,121.632104 46.9415106,118.914772 C47.7705647,118.011586 49.1768471,117.951336 50.0800329,118.780113 C50.9829412,119.609167 51.0431906,121.015449 50.2144141,121.918635 C47.6833835,124.675948 45.1456894,127.611788 42.6590824,130.628701 C45.7137553,133.680598 48.76704,136.726386 52.0668753,139.422894 C53.0161506,140.19864 53.1571953,141.599092 52.3814494,142.548367 C51.6057035,143.497642 50.2052518,143.638687 49.2559765,142.862941 C45.9597506,140.169209 42.9186824,137.116202 39.87456,134.061252 C37.0805976,137.562104 34.3821459,141.117929 31.8633318,144.580466 C31.1420047,145.571944 29.7518259,145.791285 28.7603482,145.069958 C27.7691482,144.348908 27.5498071,142.958452 28.2708565,141.967252 C30.9193318,138.326744 33.7632706,134.585172 36.70744,130.90968 Z" id="Fill-97" fill="#000000"></path>
                            <path d="M95.5827765,12.3499435 C93.3210635,9.12812706 90.9466259,6.00681882 88.1165694,3.30947765 C87.3677553,2.59592471 87.3391576,1.40870588 88.0529882,0.659891765 C88.7665412,-0.0889223529 89.95376,-0.117242353 90.7025741,0.596310588 C93.6270306,3.38360941 96.0792094,6.61208941 98.4194965,9.93941176 C100.913045,7.85622588 103.432969,5.84606118 105.920687,3.97610824 C106.74752,3.35445647 107.923355,3.52132235 108.544729,4.34815529 C109.166381,5.17498824 108.999515,6.35082353 108.172682,6.97219765 C105.648593,8.86963765 103.090908,10.9142306 100.563209,13.0337882 C102.62696,16.0362635 104.690711,19.0331859 107.012673,21.7788376 C107.680692,22.5684659 107.581849,23.7520753 106.791944,24.4198165 C106.002315,25.0878353 104.818706,24.9889929 104.150687,24.1990871 C101.831501,21.4567671 99.7791341,18.45568 97.7245459,15.4523718 C94.86728,17.9259294 92.0810918,20.4600141 89.4578824,22.9444 C88.7068471,23.6554541 87.5196282,23.6232471 86.8082965,22.8722118 C86.0972424,22.1214541 86.1294494,20.9342353 86.8804847,20.2229035 C89.6383529,17.6108 92.5739153,14.9453882 95.5827765,12.3499435 Z" id="Fill-98" fill="#000000"></path>
                            <path d="M55.5777224,163.294905 C56.9881694,151.45112 58.8239718,139.050014 58.4580329,127.09592 C58.4330447,126.275195 54.0159576,120.571214 53.1197129,120.024805 C50.4098776,118.372249 46.4528518,118.095435 43.4684235,116.978461 C34.44184,113.600607 27.8679906,108.221751 22.08488,100.532593 C20.7804941,98.7984094 18.8169741,96.4900518 18.2197553,94.3788235 C17.7016659,92.5463529 21.0389835,81.0950776 22.6601647,79.4966635 C22.6973694,79.4597365 23.0266588,79.5208188 23.0857976,79.5252612 C27.44208,79.8431671 31.9363529,80.2646353 36.3001318,79.9011953 C36.45728,79.8881459 38.1398212,79.7432141 38.1384329,79.6974024 C38.1109459,78.7869976 37.7591671,77.7702541 37.5706447,76.8790071 C34.1411482,60.6708047 26.46032,45.7667106 22.0335153,29.8730824 C21.2050165,26.8983718 18.8833318,15.0303482 21.7278259,12.6886729 C25.4394118,9.63288941 30.9334918,13.9478024 32.8312094,17.1254729 C39.0463388,27.5327953 43.7022024,39.4296941 47.9910165,50.7143812 C49.3251106,54.2241176 50.6528188,57.7183059 51.7334212,61.3163341 C52.0929741,62.5141035 52.4392,63.7146494 52.7604376,64.9235247 C52.86872,65.3297224 52.9714494,65.7375859 53.0711247,66.1460047 C53.1224894,66.3556282 53.1263765,66.9700612 53.2199435,66.7757082 C54.8636141,63.3581506 55.4272376,60.60056 59.8976329,60.7388282 C60.7947106,60.7665929 62.1807247,61.2941224 63.0070024,61.1369741 C63.6819624,61.0087012 63.9840424,59.0837741 64.9422024,58.8252847 C65.7854165,58.5976141 68.52024,59.4938588 69.0105647,59.1101506 C69.0930259,59.0454588 69.0549882,58.50016 69.0563765,58.3921553 C69.1077412,54.2313365 68.4055718,49.9422447 68.0821129,45.7955859 C67.3146965,35.95744 65.1051812,25.8458118 65.8720424,15.9563012 C66.7258071,4.94481882 73.0275624,8.60392941 77.4837976,15.5842541 C78.8034541,17.6513365 79.0744376,17.9728518 80.1022871,20.1920847" id="Stroke-99" stroke="#FFC900" stroke-width="2.22117647" stroke-linecap="round" stroke-linejoin="round"></path>
                            <path d="M100.788659,47.3468 C102.911548,55.0134682 105.972052,62.4430259 108.920664,69.8245506" id="Stroke-100" stroke="#FFC900" stroke-width="2.22117647" stroke-linecap="round" stroke-linejoin="round"></path>
                            <path d="M94.4385929,91.1606165 C94.4385929,95.6820988 92.7993647,106.926249 93.6781176,110.472358 C93.8000047,110.964348 101.169591,113.548965 101.656861,114.788381 C101.912019,115.436965 99.5678447,127.273614 99.5461882,129.388174 C99.4573412,138.040212 102.183002,150.714245 103.894974,159.398878" id="Stroke-101" stroke="#FFC900" stroke-width="2.22117647" stroke-linecap="round" stroke-linejoin="round"></path>
                            <path d="M20.7568941,50.9631529 C15.6409694,50.3609365 10.4128753,49.7459482 5.65428235,47.6547106 C5.01458353,47.3734541 0.41064,44.9115576 0.229891765,45.1272894 C-0.932061176,46.5130259 6.54303059,82.9111671 7.42095059,87.9176988" id="Stroke-102" stroke="#FFC900" stroke-width="2.22117647" stroke-linecap="round" stroke-linejoin="round"></path>
                            <path d="M112.206061,114.288616 C117.390565,111.388315 127.879238,106.922918 131.937882,102.83984 C132.193318,102.582739 129.972696,97.8124847 129.790005,97.3352094 C127.891732,92.3783765 126.987158,87.6053459 126.384108,82.3528188" id="Stroke-103" stroke="#FFC900" stroke-width="2.22117647" stroke-linecap="round" stroke-linejoin="round"></path>
                        </g>
                    </g>
                </g>
            </g>
        </g>
    </g>
</svg>