<?xml version="1.0" encoding="UTF-8"?>
<svg width="177px" height="41px" viewBox="0 0 177 41" version="1.1" xmlns="http://www.w3.org/2000/svg" xmlns:xlink="http://www.w3.org/1999/xlink">
    <title>Artboard</title>
    <g id="Artboard" stroke="none" stroke-width="1" fill="none" fill-rule="evenodd">
        <g id="githubpages" transform="translate(4.000000, 5.000000)" fill="#333333" fill-rule="nonzero">
            <path d="M98.955,23.733 L96.874,23.733 L96.874,0.78 L103.883,0.78 C109.606,0.78 111.565,4.085 111.565,7.666 C111.565,11.247 109.606,14.552 103.883,14.552 L98.956,14.552 L98.956,23.733 L98.955,23.733 Z M98.955,12.624 L104.158,12.624 C108.473,12.624 109.299,9.869 109.299,7.666 C109.299,5.463 108.472,2.708 104.158,2.708 L98.955,2.708 L98.955,12.624 Z M119.193,10.023 C117.143,10.023 115.796,10.39 114.602,10.788 L114.602,8.951 C115.949,8.37 117.724,8.125 119.193,8.125 C123.784,8.125 124.978,10.206 124.978,13.266 L124.978,23.732 L123.784,23.732 L123.325,22.508 C121.948,23.518 120.234,24.038 118.704,24.038 C114.695,24.038 113.348,21.681 113.348,19.11 C113.348,16.509 114.787,14.581 118.796,14.336 L122.836,14.091 L122.836,13.234 C122.835,11.002 122.04,10.023 119.193,10.023 Z M118.642,15.991 C116.469,16.205 115.52,17.338 115.52,19.112 C115.52,20.489 115.857,22.142 118.764,22.142 C120.417,22.142 121.518,21.682 122.834,20.918 L122.834,15.593 L118.642,15.991 Z M131.71,19.449 C131.373,19.785 131.128,20.214 131.128,20.581 C131.128,21.346 131.495,21.683 132.291,21.774 L137.494,22.386 C140.371,22.692 141.687,23.825 141.687,26.487 C141.687,30.221 137.953,31.69 133.73,31.69 C129.445,31.69 126.875,30.435 126.875,27.069 C126.875,24.988 128.314,23.61 130.028,23.029 L130.028,22.998 C129.446,22.6 129.049,21.988 129.049,20.978 C129.049,20.122 129.569,19.418 130.212,18.897 C128.376,17.887 127.764,16.02 127.764,13.878 C127.764,10.726 129.11,8.124 133.732,8.124 C134.681,8.124 135.477,8.246 136.181,8.43 L141.384,8.43 L141.384,9.593 L138.813,10.328 C139.456,11.307 139.7,12.531 139.7,13.878 C139.7,17.031 138.353,19.632 133.732,19.632 C132.965,19.633 132.291,19.571 131.71,19.449 Z M132.597,23.58 C130.577,24.04 128.863,24.988 128.863,26.947 C128.863,29.212 130.577,29.855 133.729,29.855 C136.79,29.855 139.666,29.09 139.666,26.488 C139.666,24.927 138.931,24.315 137.065,24.1 L132.597,23.58 Z M137.708,13.879 C137.708,11.859 137.31,9.992 133.729,9.992 C130.148,9.992 129.751,11.859 129.751,13.879 C129.751,15.899 130.149,17.765 133.729,17.765 C137.309,17.765 137.708,15.899 137.708,13.879 Z M149.206,8.125 C154.409,8.125 155.021,11.675 155.021,16.082 L155.021,17.061 L144.921,17.061 C145.044,19.723 145.748,22.142 149.206,22.142 C151.409,22.142 152.756,21.928 154.256,21.285 L154.256,23.121 C152.542,23.886 150.706,24.039 149.206,24.039 C144.034,24.039 142.779,20.489 142.779,16.082 C142.779,11.675 144.033,8.125 149.206,8.125 Z M144.921,15.317 L152.878,15.317 C152.878,12.593 152.725,10.022 149.205,10.022 C145.655,10.023 145.013,12.563 144.921,15.317 Z M163.191,14.95 C167.537,15.348 168.578,16.817 168.578,19.326 C168.578,21.682 167.078,24.039 162.427,24.039 C160.958,24.039 158.846,23.671 157.867,23.274 L157.867,21.438 C158.816,21.774 160.285,22.142 162.458,22.142 C165.641,22.142 166.498,20.795 166.498,19.357 C166.498,17.949 166.069,16.97 163.04,16.725 C158.602,16.327 157.684,14.766 157.684,12.655 C157.684,10.482 159.092,8.126 163.407,8.126 C164.845,8.126 166.467,8.309 167.814,8.891 L167.814,10.728 C166.621,10.33 165.427,10.024 163.376,10.024 C160.346,10.024 159.703,11.157 159.703,12.656 C159.703,14.001 160.253,14.705 163.191,14.95 Z M17.184,10.327 L9.687,10.327 C9.493,10.327 9.337,10.484 9.337,10.677 L9.337,14.343 C9.337,14.536 9.494,14.693 9.687,14.693 L12.612,14.693 L12.612,19.248 C12.612,19.248 11.955,19.471 10.14,19.471 C7.998,19.471 5.006,18.688 5.006,12.109 C5.006,5.527 8.122,4.662 11.047,4.662 C13.579,4.662 14.67,5.108 15.364,5.322 C15.582,5.389 15.784,5.172 15.784,4.978 L16.621,1.437 C16.621,1.347 16.59,1.238 16.487,1.163 C16.204,0.963 14.484,0 10.139,0 C5.134,0 0,2.129 0,12.366 C0,22.607 5.878,24.132 10.832,24.132 C14.934,24.132 17.421,22.38 17.421,22.38 C17.523,22.323 17.535,22.18 17.535,22.115 L17.535,10.678 C17.535,10.484 17.378,10.327 17.184,10.327 Z M56.129,1.226 C56.129,1.031 55.974,0.874 55.78,0.874 L51.559,0.874 C51.366,0.874 51.21,1.031 51.21,1.226 C51.21,1.227 51.211,9.384 51.211,9.384 L44.631,9.384 L44.631,1.226 C44.631,1.031 44.475,0.874 44.282,0.874 L40.061,0.874 C39.869,0.874 39.712,1.031 39.712,1.226 L39.712,23.321 C39.712,23.515 39.869,23.674 40.061,23.674 L44.282,23.674 C44.475,23.674 44.631,23.516 44.631,23.321 L44.631,13.868 L51.211,13.868 C51.211,13.868 51.199,23.32 51.199,23.321 C51.199,23.515 51.356,23.674 51.548,23.674 L55.78,23.674 C55.973,23.674 56.128,23.516 56.129,23.321 L56.129,1.226 Z M25.303,4.125 C25.303,2.605 24.085,1.377 22.581,1.377 C21.079,1.377 19.859,2.605 19.859,4.125 C19.859,5.644 21.079,6.876 22.581,6.876 C24.085,6.876 25.303,5.644 25.303,4.125 Z M25.002,18.657 C25.002,18.091 25.002,8.46 25.002,8.46 C25.002,8.266 24.846,8.108 24.653,8.108 L20.445,8.108 C20.253,8.108 20.08,8.307 20.08,8.501 C20.08,8.501 20.08,20.771 20.08,23.114 C20.08,23.543 20.348,23.67 20.694,23.67 C20.694,23.67 22.49,23.67 24.486,23.67 C24.902,23.67 25.004,23.467 25.004,23.106 C25.002,22.323 25.002,19.252 25.002,18.657 Z M72.511,8.141 L68.322,8.141 C68.13,8.141 67.973,8.299 67.973,8.494 L67.973,19.325 C67.973,19.325 66.909,20.104 65.398,20.104 C63.887,20.104 63.487,19.419 63.487,17.939 C63.487,16.459 63.487,8.495 63.487,8.495 C63.487,8.3 63.331,8.142 63.138,8.142 L58.887,8.142 C58.695,8.142 58.538,8.3 58.538,8.495 C58.538,8.495 58.538,14.263 58.538,18.655 C58.538,23.052 60.986,24.127 64.354,24.127 C67.117,24.127 69.345,22.601 69.345,22.601 C69.345,22.601 69.451,23.405 69.499,23.501 C69.547,23.597 69.672,23.691 69.808,23.691 L72.513,23.679 C72.705,23.679 72.862,23.522 72.862,23.328 L72.86,8.495 C72.86,8.3 72.704,8.141 72.511,8.141 Z M84.19,7.645 C81.811,7.645 80.193,8.706 80.193,8.706 L80.193,1.226 C80.193,1.031 80.037,0.874 79.845,0.874 L75.612,0.874 C75.419,0.874 75.263,1.031 75.263,1.226 L75.263,23.321 C75.263,23.515 75.419,23.674 75.612,23.674 C75.612,23.674 78.549,23.674 78.549,23.674 C78.681,23.674 78.781,23.605 78.855,23.486 C78.928,23.368 79.033,22.468 79.033,22.468 C79.033,22.468 80.765,24.108 84.042,24.108 C87.889,24.108 90.095,22.156 90.095,15.344 C90.094,8.535 86.571,7.645 84.19,7.645 Z M82.538,20.091 C81.085,20.046 80.1,19.387 80.1,19.387 L80.1,12.392 C80.1,12.392 81.071,11.796 82.265,11.69 C83.774,11.555 85.227,12.011 85.227,15.609 C85.227,19.404 84.571,20.152 82.538,20.091 Z M37.058,8.106 L33.892,8.106 C33.892,8.106 33.887,3.923 33.887,3.922 C33.887,3.764 33.806,3.684 33.622,3.684 L29.307,3.684 C29.139,3.684 29.049,3.758 29.049,3.919 L29.049,8.241 C29.049,8.241 26.887,8.763 26.74,8.805 C26.595,8.848 26.487,8.982 26.487,9.142 L26.487,11.858 C26.487,12.053 26.643,12.211 26.836,12.211 L29.048,12.211 C29.048,12.211 29.048,15.052 29.048,18.746 C29.048,23.604 32.452,24.081 34.75,24.081 C35.8,24.081 37.055,23.743 37.263,23.667 C37.388,23.622 37.461,23.492 37.461,23.35 L37.465,20.359 C37.465,20.164 37.301,20.006 37.115,20.006 C36.931,20.006 36.458,20.082 35.973,20.082 C34.417,20.082 33.891,19.359 33.891,18.422 C33.891,17.487 33.89,12.211 33.89,12.211 L37.057,12.211 C37.25,12.211 37.406,12.053 37.406,11.858 L37.406,8.458 C37.407,8.263 37.25,8.106 37.058,8.106 Z" id="Shape"></path>
        </g>
    </g>
</svg>