<?xml version="1.0" encoding="UTF-8"?>
<svg width="780px" height="132px" viewBox="0 0 780 132" version="1.1" xmlns="http://www.w3.org/2000/svg" xmlns:xlink="http://www.w3.org/1999/xlink">
    <title>gsap</title>
    <g id="Page-1" stroke="none" stroke-width="1" fill="none" fill-rule="evenodd">
        <g id="gsap" fill-rule="nonzero">
            <g id="Group">
                <path d="M56.669,8.149 C73.778,8.149 89.666,14.259 89.666,18.944 C89.666,21.796 86,28.924 83.759,28.924 C81.926,28.924 73.574,21.388 56.872,21.388 C26.319,21.388 16.339,39.109 16.339,69.254 C16.339,95.733 24.282,118.139 55.039,118.139 C64.001,118.139 72.76,117.121 77.241,115.899 L77.241,81.069 L57.076,81.069 C54.632,81.069 53.613,79.439 53.613,75.976 L53.613,73.124 C53.613,69.458 54.632,68.032 57.076,68.032 L87.426,68.032 C91.092,68.032 92.518,69.661 92.518,73.124 L92.518,118.954 C92.518,128.73 73.779,131.379 54.021,131.379 C19.598,131.379 0.655,112.028 0.655,70.884 C0.655,27.703 20.616,8.149 56.669,8.149 Z" id="Path" fill="#262626"></path>
                <path d="M110.443,66.2 C110.443,51.941 108.406,45.22 108.406,44.405 C108.406,41.146 115.535,40.332 117.775,40.332 C121.849,40.332 122.868,47.257 123.885,51.738 C129.792,43.386 136.718,38.702 143.847,38.702 C150.569,38.702 153.827,41.554 153.827,45.424 C153.827,48.683 152.401,54.794 150.364,54.794 C148.124,54.794 146.698,52.96 140.791,52.96 C131.829,52.96 124.903,63.552 124.903,63.552 L124.903,126.899 C124.903,129.343 122.867,130.769 117.978,130.769 L117.367,130.769 C112.478,130.769 110.442,129.343 110.442,126.899 L110.442,66.2 L110.443,66.2 Z" id="Path" fill="#262626"></path>
                <path d="M201.083,38.702 C224.71,38.702 236.728,54.386 236.728,83.717 C236.728,85.754 233.062,90.846 231.025,90.846 L176.437,90.846 C177.863,109.992 186.01,118.751 203.12,118.751 C218.193,118.751 226.545,111.418 228.378,111.418 C230.822,111.418 234.488,118.14 234.488,119.974 C234.488,124.047 220.841,130.973 203.324,130.973 C174.604,130.973 160.957,116.307 160.957,85.347 C160.753,54.997 174.604,38.702 201.083,38.702 Z M221.248,78.625 C221.248,60.497 214.322,51.331 200.472,51.331 C185.399,51.331 177.455,60.497 176.233,78.625 L221.248,78.625 Z" id="Shape" fill="#262626"></path>
                <path d="M290.705,38.702 C314.332,38.702 326.35,54.386 326.35,83.717 C326.35,85.754 322.684,90.846 320.647,90.846 L266.059,90.846 C267.485,109.992 275.632,118.751 292.743,118.751 C307.815,118.751 316.167,111.418 318,111.418 C320.444,111.418 324.11,118.14 324.11,119.974 C324.11,124.047 310.464,130.973 292.946,130.973 C264.226,130.973 250.579,116.307 250.579,85.347 C250.578,54.997 264.226,38.702 290.705,38.702 Z M311.073,78.625 C311.073,60.497 304.148,51.331 290.298,51.331 C275.225,51.331 267.281,60.497 266.059,78.625 L311.073,78.625 Z" id="Shape" fill="#262626"></path>
                <path d="M342.034,66.2 C342.034,51.941 339.997,45.22 339.997,44.405 C339.997,41.146 347.126,40.332 349.367,40.332 C353.44,40.332 354.459,47.257 355.477,51.738 C362.809,43.591 372.79,38.702 382.364,38.702 C400.085,38.702 410.472,49.294 410.472,66.607 L410.472,126.491 C410.472,128.935 408.435,130.361 403.546,130.361 L402.936,130.361 C398.047,130.361 396.01,128.935 396.01,126.491 L396.01,67.829 C396.01,57.237 389.696,51.127 378.289,51.127 C370.549,51.127 362.198,55.812 356.495,63.145 L356.495,126.492 C356.495,128.936 354.458,130.362 349.569,130.362 L348.958,130.362 C344.069,130.362 342.032,128.936 342.032,126.492 L342.034,66.2 L342.034,66.2 Z" id="Path" fill="#262626"></path>
                <path d="M441.434,101.03 C444.489,101.03 453.043,108.974 466.895,108.974 C474.227,108.974 483.19,106.733 483.19,96.345 C483.19,75.976 433.286,83.92 433.286,43.183 C433.286,17.722 454.062,7.742 474.227,7.742 C492.559,7.742 505.391,14.055 505.391,19.759 C505.391,24.445 500.095,34.832 495.818,34.832 C493.578,34.832 488.282,30.555 476.672,30.555 C463.229,30.555 460.581,36.869 460.581,40.74 C460.581,60.498 510.483,52.553 510.483,93.088 C510.483,121.808 490.318,131.381 471.376,131.381 C445.101,131.381 430.842,122.011 430.842,116.105 C430.842,111.011 437.767,101.03 441.434,101.03 Z" id="Path" fill="#88CE02"></path>
                <path d="M562.627,38.498 C590.125,38.498 604.383,54.997 604.383,84.939 C604.383,115.085 590.125,131.583 562.627,131.583 C535.129,131.583 520.667,115.085 520.667,84.939 C520.667,54.793 535.129,38.498 562.627,38.498 Z M578.515,84.939 C578.515,67.626 573.626,58.663 562.627,58.663 C551.628,58.663 546.535,67.626 546.535,84.939 C546.535,102.252 551.628,111.418 562.627,111.418 C573.626,111.418 578.515,102.253 578.515,84.939 Z" id="Shape" fill="#88CE02"></path>
                <path d="M659.99,38.498 C672.211,38.498 688.71,42.572 688.71,50.516 C688.71,53.776 682.396,63.756 679.544,63.756 C678.933,63.756 677.915,63.145 676.489,62.533 C673.433,60.904 668.749,58.663 661.416,58.663 C647.565,58.663 641.862,67.219 641.862,84.939 C641.862,102.659 647.157,111.418 660.397,111.418 C668.544,111.418 674.043,108.975 677.303,107.345 C678.729,106.734 679.747,106.326 680.358,106.326 C684.228,106.326 689.321,116.103 689.321,119.362 C689.321,129.138 664.675,131.38 659.175,131.38 C629.641,131.38 615.586,116.307 615.586,85.347 C615.586,54.793 629.029,38.498 659.99,38.498 Z" id="Path" fill="#88CE02"></path>
                <path d="M701.745,5.501 C701.745,1.835 704.801,0.002 712.133,0.002 L717.022,0.002 C724.355,0.002 727.41,1.835 727.41,5.501 L727.41,73.94 L728.021,74.143 L749,42.776 C751.037,39.924 754.5,39.516 759.592,39.516 L765.906,39.516 C772.424,39.516 775.683,40.535 775.683,42.164 C775.683,42.978 775.072,44.201 774.053,45.627 L750.018,79.846 L778.126,124.453 C778.941,126.083 779.552,127.101 779.552,128.12 C779.552,129.749 776.497,130.767 769.776,130.767 L762.443,130.767 C757.351,130.767 753.685,130.156 752.055,127.508 L728.02,87.789 L727.409,87.992 L727.409,125.267 C727.409,128.933 724.354,130.767 717.021,130.767 L712.132,130.767 C704.8,130.767 701.744,128.933 701.744,125.267 L701.744,5.501 L701.745,5.501 Z" id="Path" fill="#88CE02"></path>
            </g>
        </g>
    </g>
</svg>