<?xml version="1.0" encoding="UTF-8"?>
<svg width="43px" height="34px" viewBox="0 0 43 34" version="1.1" xmlns="http://www.w3.org/2000/svg" xmlns:xlink="http://www.w3.org/1999/xlink">
    <title>icon-tw</title>
    <g id="how.dactrtr.rocks" stroke="none" stroke-width="1" fill="none" fill-rule="evenodd">
        <g id="landing.Desktop" transform="translate(-534.000000, -2738.000000)">
            <g id="networks" transform="translate(531.000000, 2731.000000)">
                <g id="Group-4" transform="translate(6.000000, 7.125000)">
                    <path d="M36.162,19.972875 C28.9990875,21.87735 21.6417375,23.5648125 14.635275,25.9854 C12.2307,26.8161 9.8859,27.809025 7.4848875,28.6505625 C6.600825,28.960425 5.714625,29.254275 4.8187875,29.5282875 C4.42995,29.6472375 3.458925,30.253125 3.6561375,29.89755 C4.782375,27.866775 7.8675375,26.0509125 9.6744375,24.6628875 C14.1109875,21.2548875 18.6516,18.0133125 23.1385125,14.673525 C25.1385375,13.1848125 27.0531375,11.5982625 29.0093625,10.055025 C29.6892375,9.5186625 30.3819,9.0006 31.0246875,8.419425 C31.344375,8.1303375 32.3867625,7.6068 31.96275,7.52955 C28.511025,6.900675 23.6914875,9.4814625 20.5047,10.6057125 C18.043275,11.4740625 15.6219375,12.4468125 13.2093,13.4403 C9.198075,15.0921 4.970475,16.5764625 1.087875,18.5111625" id="Stroke-1" stroke="#FFC900" stroke-width="6.75" stroke-linecap="round" stroke-linejoin="round"></path>
                    <path d="M4.7133375,21.852825 C3.6302625,21.1922625 1.421175,19.83585 0.6391125,18.623775 C0.1063125,17.7979875 0.07185,17.0043 0.6376125,16.3413375 C0.7783875,16.176375 1.2387375,15.9298875 1.9154625,15.83655 C2.95875,15.692625 4.715925,15.6690375 5.1235875,15.58275 C7.0690125,15.171 9.0792375,14.6604375 10.99035,13.9378875 C12.2533875,13.460325 13.47255,12.890475 14.6011125,12.201 C14.9710875,11.9722125 15.4738125,11.6760375 15.8561625,11.3025 C16.047225,11.1158625 16.2100875,10.912275 16.2663,10.6798875 C16.6317375,9.144075 16.375575,7.65075 16.54695,6.10755 C16.62495,5.4051 16.7828625,4.6944 17.0923875,3.9657375 C18.084825,1.625925 20.0106375,0.4098 21.975375,0.2709375 C23.987775,0.1287375 26.077275,1.135575 27.3774,3.35655 C27.7090125,3.923025 27.9723,4.539 28.1857125,5.1727875 C28.3477875,5.6540625 28.4776875,6.1464375 28.5834,6.63555 C29.5612125,6.8572125 30.562125,7.021725 31.5379875,7.262625 C32.05485,7.3902375 32.5651125,7.5378375 33.0625875,7.7226375 C33.1196625,7.743825 33.583575,7.914075 33.7573125,8.0043 C34.3552875,8.3148 34.3274625,8.89065 34.302375,9.0295875 C34.255725,9.2877 34.076025,9.637725 33.6927375,9.97935 C33.2542125,10.3702125 32.4496875,10.872675 31.7196375,11.454675 C31.217925,11.85465 30.7172625,12.2679 30.57735,12.7551375 L30.579975,12.7742625 C30.73035,13.5477375 31.5312,14.990175 31.659375,15.597975 C31.9368375,16.913775 32.129475,18.219375 32.155875,19.5232125 C32.18295,20.85915 32.0391,22.193175 31.638975,23.5341 C30.2367,28.098 25.6062,31.54305 20.41005,32.9598 C17.9524875,33.62985 15.382425,33.8269125 12.9887625,33.5390625 C10.35555,33.2224125 7.926375,32.3089125 6.08505,30.6089625 C5.183775,29.78685 5.351325,29.195625 5.6742375,28.8192 C5.850525,28.6136625 6.1838625,28.4335875 6.603525,28.272675 C7.0439625,28.103775 7.61865,27.93975 8.0223375,27.59265 L8.0286,27.5871 C7.5522375,27.5899125 7.0812,27.553725 6.6162,27.479325 C5.5724625,27.3123375 4.5610875,26.9436375 3.5871375,26.373525 C3.4984125,26.3212125 2.29785,25.4335875 1.900425,25.02315 C1.3374,24.441675 1.6632375,23.825025 1.8061875,23.6755125 C2.5173375,22.93875 3.4842375,22.81785 4.305225,22.243875 C4.4508,22.1421 4.589025,22.0173 4.7133375,21.852825 Z M31.6663875,9.2312625 C31.4782875,9.179025 31.288725,9.13125 31.098225,9.0864 C29.9725125,8.8213875 28.8148125,8.6576625 27.695925,8.3919 C27.527775,8.3509875 27.373875,8.2652625 27.2506125,8.1438375 L26.9953875,7.8951375 L26.9574,7.8951375 C26.8068,7.7547 26.706375,7.5732 26.670225,7.376025 L26.670225,7.3852875 C26.5870125,6.8480625 26.4754125,6.2992875 26.3167125,5.7646875 C26.1640875,5.2505625 25.9737,4.748175 25.7243625,4.2846375 C24.87525,2.7062625 23.4699375,1.91265 22.0658625,1.9636125 C20.6381625,2.0154 19.2511125,2.9066625 18.4764375,4.5795375 C18.2093625,5.1570375 18.0646875,5.7243375 17.986875,6.287025 C17.766975,7.8775875 17.9869125,9.4268625 17.5739625,11.0063625 C17.4556125,11.4658125 17.164875,11.8886625 16.78395,12.257025 C16.3284375,12.6975 15.7450875,13.0648125 15.3076875,13.338 C13.8277125,14.27475 12.19425,15.014025 10.5081375,15.6211125 C8.8445625,16.2200625 7.1291625,16.6885125 5.4570375,17.0796 C4.994325,17.187825 2.797125,17.2577625 1.8557625,17.478375 C1.8729375,17.551725 1.95675,17.62695 2.0170875,17.7165 C2.3002125,18.1369125 2.8108875,18.5586 3.36,18.9607875 C4.6480875,19.9042125 6.1731375,20.6965875 6.3855375,20.8633125 C6.510975,20.9626875 6.8484375,21.3162375 6.6624,21.8787375 C6.6033,22.0573875 6.382425,22.47765 6.3442875,22.5432 C6.04425,23.0583 5.6871375,23.4132375 5.2999875,23.6794875 C4.857375,23.983875 4.3741125,24.1623 3.9010875,24.3533625 L3.7586625,24.4120875 C4.075575,24.6843375 4.4002125,24.9612375 4.43475,24.9829875 C5.216175,25.4785875 6.0333375,25.812225 6.8836875,25.979625 C7.7462625,26.149425 8.63955,26.1578625 9.55665,26.0062125 C9.8817375,25.952475 10.0686375,26.0736375 10.173075,26.1652875 C10.33755,26.309625 10.4503875,26.502 10.4259,26.769975 C10.4179875,26.8569375 10.395375,26.989275 10.3033125,27.13065 C10.2479625,27.215625 10.0933125,27.3715125 10.031775,27.451875 C9.8652,27.6694875 9.6855375,27.87915 9.4927875,28.07625 C9.3001875,28.2732375 9.0967875,28.459575 8.8828875,28.6305375 C8.357325,29.0506125 7.6454625,29.274075 7.07445,29.4677625 C6.9861375,29.497725 6.879375,29.5413 6.790575,29.57955 C6.8283,29.6277375 6.873,29.6791125 6.9203625,29.7255375 C8.5495875,31.3033125 10.72965,32.2189875 13.1128875,32.5041 C15.3628125,32.773275 17.780025,32.4748875 20.0718375,31.7826375 C24.7312125,30.3753 28.9092,27.2324625 30.055425,23.0727375 C30.389175,21.8988 30.4964625,20.7334125 30.457725,19.5686625 C30.4179,18.3714375 30.221775,17.1750375 29.9512125,15.969825 C29.8356375,15.455025 29.204925,14.3317125 28.944975,13.5538875 C28.7873625,13.0822875 28.7584875,12.676275 28.8138,12.420075 C28.94895,11.7956625 29.3554875,11.1854625 29.9095875,10.633125 C30.4359375,10.1085375 31.1097375,9.635475 31.6663875,9.2312625 Z" id="Fill-3" fill="#000000"></path>
                </g>
            </g>
        </g>
    </g>
</svg>