<?xml version="1.0" encoding="UTF-8"?>
<svg width="40px" height="36px" viewBox="0 0 40 36" version="1.1" xmlns="http://www.w3.org/2000/svg" xmlns:xlink="http://www.w3.org/1999/xlink">
    <title>icon-github</title>
    <g id="how.dactrtr.rocks" stroke="none" stroke-width="1" fill="none" fill-rule="evenodd">
        <g id="landing.Desktop" transform="translate(-792.000000, -2738.000000)">
            <g id="networks" transform="translate(531.000000, 2731.000000)">
                <g id="Group" transform="translate(256.000000, 0.000000)">
                    <g id="Group-5" transform="translate(4.875000, 6.750000)">
                        <path d="M5.61585,7.653675 C11.6227125,6.5998125 17.56545,5.8855875 23.654325,5.4090375 C25.8112125,5.2402125 27.96465,5.117925 30.127875,5.0686875 C30.846975,5.0523375 31.569525,5.0236875 32.288925,5.0306625 C32.544975,5.033175 33.2329125,4.8603375 33.0568875,5.0463 C26.979525,11.4664875 12.17175,11.8017 4.4573625,16.9228875 C3.966,17.2491 5.63445,17.005725 6.224025,17.022075 C7.83135,17.0667 9.4482,16.9977 11.0547375,16.9436625 C16.3224375,16.7664 21.5487375,16.430625 26.822175,16.57545 C28.5242625,16.6222125 30.2333625,16.6248 31.926825,16.821825 C33.376875,16.9905375 34.2834,17.11755 34.2657375,17.1354375 C29.757075,21.711075 20.5509375,22.23435 14.682975,23.7877875 C12.6952875,24.3139875 10.698825,24.8067375 8.70825,25.321125 C7.9806375,25.50915 7.2551625,25.699875 6.5332875,25.9093125 C6.3150375,25.9726125 5.725125,25.933575 5.8789875,26.100825 C6.9921,27.3106875 11.5783875,27.3943125 13.1119125,27.583275 C17.5053375,28.1247375 32.527425,29.070825 35.8019625,30.5664 C35.9009625,30.611625 35.4167625,30.820125 33.153375,31.2890625 C31.7919,31.5711375 30.4146375,31.7470125 29.03025,31.8672375 C27.683475,31.9842 26.3286,32.058075 24.976575,32.0470125 C22.1361,32.023725 19.2937875,31.8876 16.4547,31.8039375 C12.2923875,31.6812375 8.160225,31.506225 3.994425,31.535925" id="Stroke-1" stroke="#FFC900" stroke-width="6.75" stroke-linecap="round" stroke-linejoin="round"></path>
                        <path d="M11.1359625,33.7925625 C10.90515,33.9993 10.56765,34.0680375 10.26225,33.942075 C5.9499375,32.1972 2.7678,28.719375 1.2787125,24.6497625 C-0.2169375,20.5622625 -0.000375,15.8788125 2.4700875,11.724 C4.9273125,7.608675 9.50325,4.0041 14.6340375,2.00655 C19.83375,-0.018 25.5783375,-0.378375 30.211875,1.8343875 C34.61655,4.026375 37.229625,9.549525 37.810875,15.4459125 C38.071875,18.091425 37.925625,20.7976125 37.3965,23.2837125 C36.79875,26.0929875 35.7110625,28.6252875 34.0774125,30.463575 C32.2517625,32.5364625 30.061125,33.684975 27.6895125,34.2839625 C24.245175,35.1538875 20.4049125,34.8365625 16.76625,34.50735 C15.408975,34.385775 13.9029,34.3348125 12.46605,34.089225 C12.014025,34.011975 11.568825,33.9151875 11.1359625,33.7925625 Z M9.5191875,31.7283375 C9.7504875,31.6027125 10.0381125,31.5904125 10.2890625,31.7208375 C11.037375,32.11725 11.877825,32.3568375 12.7470375,32.5194375 C14.1377625,32.779575 15.5991,32.847825 16.9144875,32.9864625 C20.3886375,33.3494625 24.057,33.735825 27.360075,32.9448 C29.4850125,32.435925 31.4544,31.4319 33.1051125,29.5978875 C34.603275,27.9183 35.6209875,25.601475 36.135,23.023725 C36.6045,20.6705625 36.64875,18.104925 36.322875,15.616575 C35.6412375,10.4061375 33.3048375,5.4904125 29.3303625,3.6894 C25.1781,1.7259 20.0530875,2.17455 15.398025,3.9752625 C10.698675,5.7931875 6.452325,9.002475 4.173,12.7501875 C1.972425,16.3535625 1.7492625,20.4419625 3.0103875,24.0285 C4.12995,27.2124 6.40935,30.00525 9.5191875,31.7283375 Z" id="Fill-2" fill="#000000"></path>
                        <path d="M21.0349125,14.5872375 C21.613125,13.8152625 22.8294,12.0708375 23.989725,10.993875 C24.942975,10.1091375 25.9536375,9.71475 26.6774625,9.884175 C26.82285,9.9186 27.440025,10.15365 27.5266125,10.9318875 C27.5679375,11.3031 27.5623875,12.2480625 27.565725,12.34155 C27.594975,13.1647875 27.5304375,14.1051375 27.5994375,15.003975 C27.6375,15.499575 27.7130625,15.9822375 27.9061125,16.406475 C28.058025,16.7402625 28.4853375,16.998075 28.9528125,17.3038125 C29.7622125,17.833125 30.733425,18.373125 31.49565,18.994875 C31.910925,19.3336125 32.27055,19.69635 32.5369125,20.0870625 C33.912675,22.1053125 34.18935,23.7487125 33.8917875,25.171275 C33.574875,26.686125 32.5674,27.9787875 31.3630875,29.2326375 C29.964975,30.688275 28.2796125,32.0938875 27.64365,34.0229625 C27.5037,34.4620875 27.0336,34.704975 26.594475,34.5650625 C26.15535,34.4251125 25.9124625,33.9550125 26.052375,33.5158875 C26.5438125,31.9188 27.6223875,30.5916 28.7817375,29.3468625 C29.8332,28.2178875 30.955575,27.16545 31.61115,25.9725375 C32.3244,24.6746625 32.341575,23.2070625 30.9259875,21.205725 C30.1381875,20.0899875 28.273875,19.3711875 27.1783125,18.5474625 C26.6425125,18.1446375 26.2505625,17.7087 26.04345,17.266125 C25.815,16.7779125 25.6753125,16.2408375 25.59375,15.6801 C25.44225,14.6382375 25.5100875,13.5035625 25.47165,12.5190375 C25.18425,12.7831125 24.893625,13.1005875 24.610125,13.4314125 C23.762025,14.4210375 22.992375,15.53925 22.6233,16.0196625 C22.4418375,16.254525 22.1506125,16.46835 21.7578,16.5961875 C21.17235,16.7867625 20.222325,16.7834625 19.8427875,16.812825 C18.7161,16.87995 16.1625375,17.3938875 14.497125,17.6095125 C13.7880375,17.70135 13.2160875,17.7393 12.9106125,17.701875 C11.9893125,17.589375 11.30025,17.1478875 10.7802375,16.50555 C10.1568,15.7354875 9.782325,14.672475 9.460125,13.7794875 C9.4459125,13.7401125 9.38475,13.6401375 9.3058875,13.50885 C9.2215125,14.0455125 9.178125,14.6781375 9.162825,15.3199125 C9.124725,16.91595 9.257025,18.565725 9.30165,19.0595625 C9.3175125,19.2288 9.27075,19.5072375 9.133425,19.8510375 C8.7206625,20.8846875 7.3722375,22.9765875 7.1686125,23.867325 C6.715425,25.865925 6.9978,27.1945125 7.7545875,28.1779125 C9.1159875,29.9470125 11.7750375,30.675075 14.0234625,32.0781375 C14.404425,32.322 14.515725,32.8293 14.271825,33.2102625 C14.027925,33.591225 13.520625,33.702525 13.1396625,33.458625 C10.7710875,31.9034625 8.00295,30.97845 6.5871,29.0571375 C5.647125,27.781575 5.2129875,26.0937 5.8389375,23.552775 C5.90715,23.2750875 6.0648375,22.8958875 6.27825,22.4697 C6.7321125,21.563325 7.4444625,20.3992125 7.820625,19.610175 C7.9099875,19.422675 7.995225,19.1770875 8.01075,19.131225 C7.933575,18.2710125 7.712475,14.82165 8.0524875,12.90615 C8.1501375,12.3561 8.3038125,11.914725 8.49375,11.631975 C8.7255375,11.2870125 9.0315375,11.1217125 9.3606,11.0831625 C9.5122875,11.06535 9.9031875,11.1282375 10.1663625,11.5803375 C10.3958625,11.9745375 10.7863125,13.0553625 10.8603375,13.2303 C11.1655875,13.9495875 11.4905625,14.8232625 12.038325,15.427425 C12.301725,15.7179375 12.6349125,15.9192 13.0744125,15.9476625 C13.29645,15.9619875 13.70415,15.884325 14.2125,15.79095 C15.911475,15.4787625 18.5125125,14.8394625 19.6668,14.714475 C19.86225,14.696325 20.233275,14.6919375 20.608575,14.6571375 C20.740125,14.6449125 20.9361,14.6075625 21.0349125,14.5872375 Z M26.1847875,11.938275 C26.190975,11.94165 26.1964875,11.943825 26.2011375,11.944875 C26.226825,11.950725 26.2843125,11.9812125 26.2813875,11.9532375 C26.2762125,11.9033625 26.238375,11.9073375 26.1847875,11.938275 Z" id="Fill-3" fill="#000000"></path>
                        <path d="M18.3012,3.3220875 C18.2482875,3.0112125 18.321075,2.7041625 18.3669,2.6244 C18.399375,2.567925 18.5402625,2.2320375 19.08375,2.139975 C20.5250625,1.8958125 21.9495,1.8079875 23.37225,1.8408375 C24.7788375,1.8733125 26.1837,2.0225625 27.601425,2.253 L30.0965625,2.6782125 C30.3987375,2.7312375 31.04325,2.66745 31.3270875,2.7281625 C31.633725,2.7937125 31.8327375,2.9428875 31.947975,3.0770625 C32.2071375,3.378825 32.410275,3.8233125 31.927125,4.3909125 C31.8081,4.53075 31.5366,4.6957875 31.1452875,4.84335 L31.308525,4.9561125 C31.3718625,5.0023125 31.4351625,5.048475 31.4984625,5.094675 L31.5966,5.1709875 C31.8060375,5.241675 31.894725,5.3619375 31.926675,5.4003 C31.9612875,5.44185 31.9906875,5.4835125 32.0146875,5.52555 L32.0397,5.548725 C32.3845875,5.8762125 32.6765625,6.2454375 32.8717125,6.657675 C32.9406375,6.80325 32.9653875,6.9315 32.9607,7.0446 C33.232425,7.266 33.2982,7.535175 33.2698125,7.7883375 C33.2662125,7.82055 33.2610375,7.8574125 33.2514,7.8972 C33.8440875,8.5016625 34.417275,9.124275 34.9334625,9.7982625 C35.3862375,10.3892625 36.1155,11.127075 36.307125,11.8984125 C36.372375,12.1597875 36.39,12.4258125 36.3435,12.6952125 C36.47925,12.9441 36.4305,13.177575 36.414375,13.2294375 C36.374625,13.3582125 36.237,13.68855 35.8436625,13.719075 C35.8083375,13.7627625 35.771775,13.80555 35.7338625,13.8474 C36.212625,14.1677625 36.14775,14.724225 36.132375,14.755875 C36.0435,14.9383875 35.88825,15.09795 35.643675,15.199425 C35.4045,15.2986125 35.0065125,15.340275 34.5149625,15.3021375 C34.2881625,15.28455 34.0149375,15.2513625 33.71865,15.2081625 L34.352325,15.492375 L36.717375,16.428525 C36.94425,16.53915 37.02075,16.676925 37.0455,16.7203875 C37.1505,16.905825 37.14375,17.0739 37.105125,17.21205 C37.063875,17.3584125 36.941625,17.6668875 36.499875,17.682225 C36.45825,17.68365 36.360375,17.678775 36.214125,17.6466375 C35.943225,17.5871625 35.29305,17.4083625 34.4177625,17.174625 L32.9127375,16.7463375 C33.377325,17.0962875 33.841125,17.40195 34.1635125,17.6419875 C34.4515125,17.85645 35.0980875,18.2247 35.35755,18.404775 C35.5885875,18.5651625 35.6966625,18.74685 35.7288375,18.9255375 C36.036,19.343325 35.6523,19.7617875 35.4670125,19.8630375 C35.6098125,19.9932375 35.7453375,20.1222 35.857425,20.253375 C36.066375,20.4979875 36.208125,20.7571875 36.268125,21.0258 C36.341625,21.3544125 36.235125,21.5823 36.08625,21.751575 C36.045375,21.7983375 35.997,21.842775 35.940525,21.8818875 C36.03675,21.9829875 36.127125,22.07175 36.186375,22.1372625 C36.76875,22.7803875 36.067125,23.474775 36.00675,23.4979125 C35.9188875,23.5315875 35.8288875,23.561925 35.7372,23.5891125 C35.77065,23.851425 35.69505,24.0453 35.65575,24.11595 C35.561175,24.285975 35.4171,24.4219875 35.278425,24.5235 C35.4202875,24.8146875 35.6600625,25.3185 35.7292875,25.527675 C35.831475,25.8362625 35.791275,26.0799 35.74275,26.2124625 C35.661975,26.4331875 35.405175,26.734575 34.93995,26.9278875 C34.6764,27.0373875 34.312425,27.1376625 33.9661125,27.2270625 L34.3479,27.6892125 C34.72875,28.1439375 34.6127625,28.5999 34.5766875,28.6838625 C34.4648625,28.9441875 34.2084,29.2128 33.809025,29.4032625 C33.4325625,29.5828125 32.8794,29.712075 32.4159375,29.8024125 C32.4654,30.08505 32.4235125,30.4156875 32.02665,30.6975375 C31.772775,30.8778375 31.479075,31.022175 31.1687625,31.1393625 C30.8333625,31.2659625 30.477375,31.3602375 30.1459875,31.445175 C30.1002,31.56315 30.0367125,31.6748625 29.9583375,31.782525 C29.7305625,32.095275 29.2714875,32.3750625 28.6796625,32.7169875 C28.2876,32.94255 27.7861125,32.8074 27.56055,32.4153375 C27.33495,32.0232375 27.4701375,31.5217875 27.8622,31.2961875 C28.1208375,31.1479875 28.433025,30.949875 28.5691125,30.8620875 C28.5429,30.64575 28.600125,30.4714875 28.6861125,30.32745 C28.766025,30.19365 28.8819,30.0757875 29.0469375,29.993475 C29.1511875,29.9415 29.504775,29.904975 29.6320125,29.8933875 L29.833875,29.8426875 L30.06645,29.7820125 L30.054525,29.76525 C29.7841125,29.3560875 29.880675,29.0327625 30.0338625,28.794225 C30.1285875,28.646775 30.2896125,28.4910375 30.55395,28.412325 C30.7396875,28.35705 31.1742375,28.3889625 31.3833375,28.348575 C31.5687,28.3128 32.109975,28.17975 32.55315,28.0685625 C32.405175,27.8927625 32.2627875,27.7135125 32.160975,27.5588625 C31.9568625,27.2489625 31.8846375,26.9602125 31.8881625,26.782875 C31.89135,26.6228625 32.029725,26.1210375 32.6606625,25.9213125 C32.923875,25.8379875 33.5590125,25.6561125 33.991275,25.5337875 C33.8184,25.1483625 33.60825,24.6493875 33.5952,24.4791 C33.5755125,24.2217 33.6102375,24.0348375 33.6652875,23.8928625 C33.5784,23.9029875 33.4859625,23.908875 33.3875625,23.9104125 C27.3388125,24.00315 29.0775,22.7293125 33.2947125,22.37685 L33.306825,22.3760625 L33.0458625,21.8019 L32.9773125,21.65325 C32.8946625,21.550125 32.8092,21.450675 32.7253875,21.35775 C32.4682875,21.0724875 32.1870375,20.8119 31.89045,20.5698375 C31.58445,20.3200875 31.2619125,20.090325 30.931425,19.8744375 C30.69165,19.7178 30.0603,19.397925 29.895525,19.2939 C29.1466875,18.8213625 29.7147,18.0447 29.822925,17.967825 C29.8570125,17.9436 30.0304875,17.7991125 30.3454125,17.8297875 L29.65305,17.5077375 C29.399025,17.394225 28.7439,17.2045875 28.6139625,17.1110625 C28.3609875,16.9289625 28.3214625,16.699125 28.3214625,16.551825 C28.3214625,16.3906125 28.3629,15.961875 28.93965,15.874575 C28.8204,15.7661625 28.7052375,15.6547875 28.594575,15.540525 C28.2796875,15.2154 28.339725,14.9247 28.5133875,14.7095625 C28.2365625,14.5627875 27.8756625,14.4094125 27.72015,14.27415 C27.5296125,14.1084375 27.45,13.921575 27.426225,13.7679375 C27.386175,13.509075 27.4335375,13.20105 27.8379375,12.9741375 C28.0653,12.8465625 28.3795875,12.763875 28.732575,12.72825 C29.1370125,12.6874125 29.604375,12.7051125 29.979075,12.7140375 C29.4338625,12.44955 28.9017,12.1579125 28.3916625,11.819475 C28.0044375,11.562825 28.0632375,11.2413375 28.0960125,11.1031125 C28.1359875,10.934475 28.2430875,10.7231625 28.5426375,10.6280625 L28.5548625,10.6252125 L27.8567625,10.48305 C27.4733625,10.406325 26.517225,10.2693 26.2744875,10.1925375 C25.4880375,9.9438 25.7763375,9.2307 25.942875,9.05595 C25.98855,9.008025 26.1354375,8.856225 26.482125,8.8321125 C26.9248125,8.801325 27.3860625,8.805525 27.856575,8.8209 C27.480825,8.777925 27.1243125,8.7366375 26.8007625,8.7099375 L25.9906875,8.65155 C25.950975,9.0364875 25.769025,9.3946125 25.6255125,9.4918125 C25.33635,9.6877125 24.9949875,9.8515125 24.6147375,9.9847875 C25.103325,10.2632625 25.477575,10.5549375 25.69005,10.8360375 C25.77675,10.950525 26.2879125,11.8479 25.376775,12.368775 C25.363275,12.3764625 25.3347,12.3928875 25.2893625,12.41355 C25.28055,12.4175625 25.2621375,12.4257375 25.2346875,12.437325 C25.185825,12.45795 25.0834125,12.5004 24.9440625,12.557775 C24.1510125,12.8844 22.14615,13.7013375 22.0658625,13.7296125 C21.9098625,13.7845125 21.750975,13.8384 21.5899125,13.8916125 C21.5769,13.9885125 21.5491875,14.089875 21.5073375,14.1958125 C21.4701375,14.289975 21.378,14.547525 20.99655,14.75355 C20.5232625,15.0091875 20.029425,15.229125 19.5239625,15.4216875 C18.792975,15.7002375 18.03735,15.9211125 17.2867875,16.1124375 C16.67145,16.2693 16.154175,16.3911375 15.916275,16.4307375 C15.30585,16.5323625 14.9716875,16.2316875 14.9062875,16.169775 C14.705475,15.9797625 14.6094,15.7551375 14.586825,15.5119125 L14.5864125,15.5053875 C14.31525,15.5278125 14.0446875,15.5461125 13.775925,15.5583375 C13.1482875,15.5868375 12.5298,15.5831625 11.934675,15.5253375 C11.42925,15.47625 11.2428375,15.2178 11.1896625,15.1547625 C10.838325,14.7382875 10.8234375,14.3112375 11.1561,13.873575 C11.2033125,13.811475 11.32155,13.6583625 11.5612125,13.553475 C11.32575,13.3502625 11.2653375,13.08705 11.255775,13.05195 C11.2203375,12.9218625 11.17845,12.688275 11.2510125,12.4504125 C10.3521,12.3483 10.4067375,11.2773375 10.4784,11.103 C10.4848875,11.087175 10.4964375,11.053275 10.5185625,11.0086875 L9.938475,10.9923 L9.9035625,10.989825 C10.0516875,11.1888 10.1620875,11.39205 10.2268875,11.5915875 C10.34025,11.940675 10.275825,12.195075 10.1990625,12.368625 C10.0970625,12.5991375 9.9310125,12.770925 9.696075,12.8783625 C9.5344125,12.952275 9.2877375,13.0107 8.97525,12.9444 C8.834475,12.91455 8.6252625,12.8235 8.413575,12.7285875 C8.3817,12.738975 8.348025,12.7480875 8.31255,12.7561125 C8.270925,12.7655625 8.228775,12.7733625 8.1860625,12.7789875 C8.303625,13.0248 8.3811,13.2714 8.4081375,13.501425 C8.45475,13.8981375 8.3022375,14.1511125 8.1164625,14.3293875 C8.0761125,14.3680875 8.0314875,14.4048375 7.9818375,14.4376875 L8.015025,14.4588375 C8.1059625,14.5212 8.1594375,14.5797 8.1906,14.6156625 C8.5955625,15.0828375 8.4133875,15.498225 8.2692375,15.7219875 C8.2231875,15.7935 8.127525,15.9390375 7.952625,16.0398375 C8.19435,16.475025 8.3270625,16.893375 8.328075,17.24715 C8.329125,17.607975 8.1715875,17.828325 7.988325,17.9799 C7.972875,17.9926875 7.9507875,18.0040875 7.9231125,18.01335 C8.0532,18.223725 8.1239625,18.4469625 8.1363375,18.674925 C8.1555375,19.0285125 8.0112,19.2825 7.758975,19.462425 C7.6651875,19.5293625 7.387275,19.7406375 6.92805,19.580475 L6.9837,19.6756125 C7.2916125,20.2195125 7.475925,20.7509625 7.48725,21.1786875 C7.4956875,21.4986375 7.37115,21.6907875 7.264575,21.813825 C7.1125875,21.98925 6.91935,22.09515 6.6805125,22.121925 C6.5387625,22.137825 6.332625,22.1288625 6.1072125,22.0015125 C6.0329625,21.95955 5.8330125,21.7944375 5.7792,21.7494 L4.9152,21.225975 C5.186325,21.6541875 5.4511875,22.1009625 5.6530125,22.536375 C5.9507625,23.1787875 6.1166625,23.80815 6.083775,24.3552 C6.0522375,24.8794875 5.75835,25.0746375 5.59185,25.1625 C5.491425,25.2154875 5.37945,25.2554625 5.2579875,25.268625 C5.387475,25.467675 5.48685,25.62975 5.5138875,25.6954875 C5.6857125,26.1133875 5.7820125,26.4989625 5.7321375,26.781 C6.2781,27.21825 7.0487625,27.7900125 7.5321375,28.3752375 C8.0676375,29.023575 8.2863375,29.712825 8.117325,30.322275 C8.6781375,30.540225 9.2319,30.7534125 9.288675,30.77835 C9.7108875,30.963075 9.9037125,31.4558625 9.7189875,31.878075 C9.534225,32.300325 9.0414375,32.49315 8.619225,32.3083875 C8.5264125,32.2679625 7.0770375,31.7200875 6.5034375,31.4906625 C5.7508875,31.18965 5.766075,30.41685 5.7723,30.3936 C5.8281375,30.18495 5.9544,29.9865375 6.1689,29.827575 C6.2226,29.7877875 6.314775,29.73825 6.409875,29.6916375 C6.306375,29.5186125 6.1539375,29.3477625 5.9835375,29.1780375 C5.2401375,28.4374875 4.194675,27.7505625 3.879825,27.3758625 C3.582225,27.0217125 3.641925,26.7034875 3.754575,26.4580875 C3.77235,26.4193875 3.8378625,26.363325 3.92415,26.3028 C3.77145,26.0216625 3.0613125,25.1563875 2.8567875,24.7231875 C2.693175,24.376575 2.7083625,24.0859125 2.7525,23.9239875 C2.8324875,23.630325 3.0133875,23.3927625 3.291375,23.22285 C3.040125,22.9034625 2.785275,22.5859125 2.5459875,22.2580125 C2.3605875,22.0039125 2.1839625,21.7439625 2.0230125,21.4738125 C1.848975,21.1816875 1.4308875,20.58255 1.3193625,20.2709625 C1.2241125,20.0047875 1.236825,19.7816625 1.27455,19.633875 C1.333575,19.40265 1.4581125,19.2289875 1.63695,19.1066625 L1.5951,19.0288875 C1.5223125,18.89595 1.3176375,18.5870625 1.2913875,18.5031375 C1.1738625,18.127575 1.3092,17.8647375 1.413675,17.7171 C1.536675,17.5432125 1.9239375,17.0708625 2.61225,17.4771 L3.7647,18.283275 L2.9936625,17.2691625 C2.9107875,17.15475 2.6896125,16.89105 2.657775,16.817175 C2.4912,16.430325 2.6153625,16.137975 2.72775,15.9636 C2.8385625,15.7916625 3.151875,15.354075 3.83295,15.61605 L3.9058875,15.6455625 C3.97515,16.0188 4.1324625,16.3893375 4.3488,16.694625 C4.3810125,16.5826875 4.3916625,16.4541375 4.3670625,16.3072125 C4.357425,16.249725 4.2117,15.941925 4.2117,15.941925 C4.2117,15.941925 4.4007,16.1506875 4.4491875,16.2180375 L4.6354125,16.464375 C4.6506,16.4487375 4.66605,16.4335875 4.6816125,16.418925 C4.7515875,16.352925 4.8452625,16.28445 4.9668,16.2353625 L4.7999625,16.123875 C4.5061125,15.9343125 4.20795,15.7684125 3.9058875,15.6455625 C3.840675,15.2954625 3.85305,14.9429625 3.9674625,14.6397 L3.83955,14.5728375 C2.84385,13.9951125 3.093975,13.252725 3.260775,12.98865 C3.3748875,12.807975 3.66495,12.533325 4.198275,12.4734375 C4.530525,12.4360875 5.1113625,12.4703625 5.6751,12.5196 C5.576625,12.4234875 5.48355,12.3257625 5.446275,12.2671875 C5.3014125,12.0395625 5.2665,11.8172625 5.2822875,11.6272875 C4.1069625,11.0962875 5.469,9.8499375 5.5759125,9.8373375 C5.6017875,9.8342625 5.7477375,9.805575 5.966775,9.872775 C5.9842875,9.8781375 6.0457125,9.8990625 6.070575,9.9074625 L6.1377375,9.93045 C6.1326,9.7083375 6.1926,9.46725 6.4111125,9.234075 C6.4896,9.1503375 6.818025,8.902275 7.385175,8.9002125 C8.08305,8.8976625 9.8174625,9.0757125 9.981525,9.0791625 C10.4011875,9.08805 10.820025,9.100125 11.238225,9.1167 C10.2442875,9.0330375 9.2677875,8.8844625 8.3213625,8.6313375 C7.9138875,8.522325 7.7543625,8.30475 7.6850625,8.2111125 C7.4245875,7.85925 7.41705,7.50885 7.5489375,7.17465 C7.6152,7.00665 7.777425,6.6852 8.239875,6.534825 C8.3847,6.487725 8.9972625,6.4437375 9.242325,6.3970125 L10.6031625,6.136575 C11.5188,5.955525 12.4405875,5.774625 13.358925,5.5740375 C13.308675,5.4048 13.3041,5.225925 13.347225,5.036925 C13.3806,4.8907125 13.464975,4.5201 13.9839,4.27125 C14.7799125,3.8895375 15.9509625,3.5940375 17.150775,3.4341 C17.5354875,3.3828375 17.9229375,3.3451875 18.3012,3.3220875 Z M4.2258,26.110575 C4.3861875,26.01555 4.5256125,25.9414875 4.5256125,25.9414875 C4.5256125,25.9414875 4.44735,25.959975 4.4200875,25.9696875 C4.326225,26.0032125 4.26795,26.0567625 4.2258,26.110575 Z M5.8270125,16.213425 L5.6779125,16.2031125 C5.694975,16.203075 5.739,16.2062625 5.739,16.2062625 C5.739,16.2062625 5.3802,16.155375 5.2741125,16.16325 C5.1562125,16.172025 5.054175,16.198425 4.9668,16.2353625 C5.3883375,16.5213 5.8013625,16.8505875 6.2140875,17.1174 C6.2180625,16.9923375 6.1914,16.849575 6.1059,16.6899 C6.0954,16.670325 6.06525,16.6294875 6.06525,16.6294875 C6.06525,16.6294875 6.176025,16.7044125 6.306075,16.7868 C6.1845375,16.6165125 6.020925,16.43685 5.8571625,16.24755 L5.8270125,16.213425 Z M4.032225,14.4941625 C4.0078125,14.541225 3.98625,14.589825 3.9674625,14.6397 L4.5357,14.9368875 C4.941375,15.2993625 5.423175,15.75105 5.8270125,16.213425 L6.941325,16.2905625 L6.9598125,16.2571125 C6.9779625,16.2222375 6.99615,16.187325 7.0143,16.15245 L7.0665,16.0462125 L5.396925,15.34245 L4.5893625,14.9649375 L4.5357,14.9368875 L4.332075,14.756175 L4.032225,14.4941625 Z M22.2717,11.2102875 C22.2069,11.2895625 22.1240625,11.3685 22.0194,11.445525 C21.9468,11.4989625 21.87255,11.5506375 21.796425,11.6000625 L22.50435,11.3102625 L22.5318375,11.2989375 L22.5010125,11.2880625 L22.2717,11.2102875 Z M34.2244875,11.2200375 L34.2166125,11.2594875 L34.3126875,11.313975 L34.253625,11.24265 L34.22535,11.209425 L34.2244875,11.2200375 Z M12.8948625,9.2023125 C13.215675,9.223575 13.5363,9.2478 13.856775,9.2753625 L13.8622125,9.21495 L13.8623625,9.2142375 C13.539225,9.21375 13.2165375,9.21045 12.8948625,9.2023125 Z" id="Fill-4" fill="#000000"></path>
                    </g>
                </g>
            </g>
        </g>
    </g>
</svg>