<?xml version="1.0" encoding="UTF-8"?>
<svg width="43px" height="37px" viewBox="0 0 43 37" version="1.1" xmlns="http://www.w3.org/2000/svg" xmlns:xlink="http://www.w3.org/1999/xlink">
    <title>icon-ig</title>
    <g id="how.dactrtr.rocks" stroke="none" stroke-width="1" fill="none" fill-rule="evenodd">
        <g id="landing.Desktop" transform="translate(-726.000000, -2737.000000)">
            <g id="networks" transform="translate(531.000000, 2731.000000)">
                <g id="Group" transform="translate(192.000000, 0.000000)">
                    <g id="Group-7" transform="translate(5.625000, 7.875000)">
                        <path d="M36.157875,18.4834875 C29.0009625,20.9647125 21.648975,23.1656625 14.6502,26.3140875 C12.2482875,27.394575 9.9066375,28.6848 7.5082875,29.779275 C6.6252,30.1822875 5.7399375,30.5646 4.8449625,30.921225 C4.4565,31.076025 3.487425,31.86225 3.6835125,31.40175 C4.8032625,28.7719875 7.8826875,26.4154125 9.6852,24.61545 C14.1109125,20.1959625 18.64125,15.9915375 23.11755,11.660175 C25.11285,9.729525 27.022425,7.672425 28.9737375,5.6713125 C29.651925,4.9758 30.3429375,4.30395 30.98385,3.5505375 C31.3026375,3.1758 32.3433375,2.4959625 31.9191,2.397075 C28.4653875,1.5921 23.6540625,4.94235 20.4708375,6.4045125 C18.0121875,7.5338625 15.5939625,8.7981375 13.184475,10.0892625 C9.1784625,12.2358375 4.9555875,14.166375 1.0791375,16.6786125" id="Stroke-1" stroke="#FFC900" stroke-width="6.75" stroke-linecap="round" stroke-linejoin="round"></path>
                        <path d="M0.874875,14.7221625 L0.885675,3.5740875 L0.90165,3.5997 C0.8796375,2.851275 1.2411375,2.210475 2.0148375,1.723575 C2.7708,1.24785 4.0048875,0.907875 5.5601625,0.7049625 C10.7313,0.0303 19.710675,0.696975 24.8712,0.5031 C26.7839625,0.42645 29.44245,-0.03675 31.7393625,0.1594875 C32.8792875,0.2569125 33.9351,0.5134875 34.79775,1.02585 C35.567625,1.4808 36.019875,2.4579 36.222375,3.5713125 C36.51225,5.1643125 36.33075,7.015725 36.289875,7.3831875 L36.771375,23.577 C36.846375,24.0126375 37.272375,26.6398875 37.062375,28.691625 C36.952875,29.761725 36.637125,30.6825375 36.150375,31.2392625 C35.81925,31.614975 35.205,31.890675 34.4530125,31.9807125 C33.3598875,32.1115875 31.93095,31.9019625 31.5952125,31.8482625 L21.5089875,31.329075 L8.7514125,31.6051875 C8.4524625,31.6310625 6.768075,31.761825 5.173725,31.5877875 C4.181475,31.4794875 3.226725,31.2435 2.578575,30.8480625 C1.743525,30.3386625 1.1308125,29.3329125 0.75735,28.1805 C0.1449,26.2907625 0.114880689,24.05175 0.114880689,24.05175 C0.114880689,24.0221625 0.1153875,23.9925375 0.1176375,23.9630625 L0.874875,14.7221625 Z M34.6365,29.7770625 C34.963125,29.3620875 35.041125,28.609275 35.089875,27.8244375 C35.206875,25.941675 34.885125,23.8315125 34.885125,23.8315125 C34.87725,23.78325 34.87275,23.7343875 34.872,23.68545 L34.929,7.3642125 C34.928625,7.33005 34.9305,7.2958875 34.935375,7.2620625 C34.935375,7.2620625 35.223,5.3877 34.951875,3.7951125 C34.831125,3.086475 34.631625,2.418375 34.1437875,2.1276 C33.2068875,1.572675 31.988625,1.4095875 30.708675,1.3996875 C28.7006625,1.3841625 26.5452375,1.758 24.929475,1.834875 C20.5245,2.0543625 13.3122,1.6681125 8.109075,2.0235375 C6.138,2.1582 4.468275,2.3933625 3.393075,2.8305 C2.9060625,3.0285 2.5242,3.18375 2.539725,3.5398875 L2.5557375,3.5655 L2.681625,14.7549375 C2.6817375,14.779425 2.680875,14.8039125 2.679,14.828325 L2.0267625,24.054825 C2.035275,24.3228375 2.1099,26.075925 2.6112375,27.5688 C2.8342125,28.2327 3.11475,28.86315 3.6006375,29.1525 C4.0441875,29.4166875 4.7060625,29.5275375 5.3814375,29.5945875 C6.942,29.7495 8.596425,29.5764375 8.596425,29.5764375 C8.62155,29.573925 8.6467125,29.57235 8.67195,29.57175 L21.498525,29.2114875 C21.525225,29.21085 21.551925,29.2111875 21.5785875,29.2125375 L31.76295,29.7234 C31.80735,29.72565 31.8515625,29.730675 31.8953625,29.738475 C31.8953625,29.738475 32.53035,29.8524 33.256575,29.8892625 C33.6321375,29.90835 34.034625,29.909025 34.3729125,29.851575 C34.4327625,29.8414125 34.528125,29.844 34.588875,29.832975 C34.6035,29.8152375 34.623375,29.77245 34.6365,29.7770625 L34.62075,29.7973875 L34.589625,29.8328625 L34.588875,29.832975 L34.587,29.8360125 L34.589625,29.8328625 C34.632375,29.8258875 34.657875,29.8119 34.64175,29.78235 L34.6365,29.7770625 Z" id="Fill-3" fill="#000000"></path>
                        <path d="M17.7620625,10.7013375 C17.9438625,10.4665875 18.2439375,10.3376625 18.5548875,10.38555 C21.9954,10.9779375 23.4614625,14.4012375 23.119425,17.64405 C22.777125,20.889525 20.662125,23.8408125 16.977975,23.4610875 C12.94485,22.8871875 11.3638125,19.54725 11.767275,16.4237625 C11.93145,15.1526625 12.4237875,13.931475 13.213275,12.937875 C14.2312875,11.65665 15.7410375,10.7615625 17.7620625,10.7013375 Z M18.8626875,12.1707 C18.7022625,12.3093 18.491925,12.3813 18.272325,12.357075 L18.272325,12.3109125 C16.4571375,12.038325 15.0126375,12.6105375 14.0838,13.6660125 C13.3871625,14.4576375 12.97095,15.4933875 12.857925,16.55235 C12.59625,19.00455 13.9795125,21.61755 17.1574125,21.8934375 C19.913175,22.24035 21.49515,19.93815 21.7360875,17.502675 C21.9590625,15.2484375 21.0541875,12.8062125 18.8626875,12.1707 Z" id="Fill-4" fill="#000000"></path>
                        <path d="M19.224975,7.7068125 C19.39245,7.415625 19.7241375,7.2449625 20.0709375,7.2931875 C25.99395,8.18025 28.437375,13.5888375 27.808875,18.617625 C27.1921875,23.5521 23.642325,28.0751625 17.436,27.4753875 C10.4584125,26.6392125 7.7445,21.3534 8.460825,16.4843625 C8.7641625,14.4225375 9.6868125,12.444825 11.1781125,10.8795375 C13.008,8.9588625 15.6901125,7.65765 19.224975,7.7068125 Z M20.5468125,9.0849 C20.371725,9.3327375 20.0683125,9.478575 19.7458125,9.44895 L19.7458125,9.47205 C16.40295,9.045975 13.7586375,9.988725 12.0024,11.6956875 C10.6283625,13.0311375 9.7916625,14.8075125 9.542175,16.637625 C8.966925,20.857575 11.5395375,25.3788 17.5983,25.905675 C22.85025,26.484 25.9227375,22.631325 26.42925,18.4479 C26.917275,14.41725 25.0389,10.052325 20.5468125,9.0849 Z" id="Fill-5" fill="#000000"></path>
                        <path d="M27.5959125,5.9885625 C27.5776125,5.9979 27.5601375,6.0087375 27.543675,6.021 C26.5574625,6.461775 26.3488875,7.512825 26.5665375,8.4947625 C26.7094125,9.1393875 27.1623375,9.701175 27.6374625,10.0491 C28.189725,10.4535 28.8438375,10.5684375 29.4342,10.3404 C30.07185,10.0941375 30.8113125,9.3529875 31.0480125,7.6080375 C31.17525,6.386325 30.82785,5.7747375 30.34575,5.505525 C29.9686125,5.294925 29.492325,5.2318125 29.0134125,5.351625 C28.2886125,5.5330125 27.5959125,5.9885625 27.5959125,5.9885625 Z M27.960675,6.6249375 C27.635475,7.0270125 27.888,7.4872875 28.1231625,7.919475 C28.2339375,8.1231 28.38225,8.303175 28.5399375,8.4551625 C28.64085,8.5524375 28.731075,8.65875 28.8483,8.6675625 C28.9610625,8.676075 29.0304375,8.5620375 29.127,8.397675 C29.278425,8.139975 29.4223875,7.794525 29.5315875,7.3320375 C29.599575,7.0628625 29.6431125,6.8608875 29.6127,6.7018875 C29.5941375,6.6048375 29.581725,6.5239125 29.5053,6.5002875 C28.95225,6.329475 28.13865,6.5683125 27.960675,6.6249375 Z" id="Fill-6" fill="#000000"></path>
                    </g>
                </g>
            </g>
        </g>
    </g>
</svg>