<?xml version="1.0" encoding="UTF-8"?>
<svg width="45px" height="39px" viewBox="0 0 45 39" version="1.1" xmlns="http://www.w3.org/2000/svg" xmlns:xlink="http://www.w3.org/1999/xlink">
    <title>icon-medium</title>
    <g id="how.dactrtr.rocks" stroke="none" stroke-width="1" fill="none" fill-rule="evenodd">
        <g id="landing.Desktop" transform="translate(-596.000000, -2734.000000)">
            <g id="networks" transform="translate(531.000000, 2731.000000)">
                <g id="Group" transform="translate(64.000000, 0.000000)">
                    <g id="Group-7" transform="translate(4.875000, 6.750000)">
                        <path d="M0.3344625,10.655025 C7.420425,7.0191 14.6136375,3.6459 22.3936125,1.781475 C23.95455,1.407375 25.511325,1.02225 27.0844875,0.7009125 C28.8508875,0.340125 29.34,0.255075 29.339925,0.26775 C29.3304375,1.7967 26.071575,3.9373875 25.022325,4.6929375 C20.3664375,8.0455875 15.227175,10.734375 10.448775,13.9208625 C8.6191875,15.140925 6.8059875,16.3828875 4.9806375,17.6085375 C4.36545,18.0216375 3.7454625,18.4264875 3.1211625,18.8256 C2.784225,19.0409625 1.7071875,19.4625 2.10705,19.4664 C8.6766,19.5302625 17.487825,15.677625 24.1557375,14.2887375 C26.6592,13.7673 29.2108125,13.378575 31.74645,13.0477125 C32.6320875,12.9321375 33.518475,12.808725 34.406025,12.7089375 C34.741275,12.67125 35.6211375,12.3444 35.413275,12.610125 C33.40845,15.17265 28.123275,16.54665 25.2070125,17.6038125 C19.7836125,19.5697875 6.8677125,23.947575 2.7027375,27.228075 C2.4628125,27.417075 3.3127125,27.1939125 3.6169125,27.1665 C4.643025,27.0739875 5.6762625,26.935725 6.6942,26.7754875 C9.0339,26.4071625 11.361375,25.95435 13.699125,25.5762375 C21.2013375,24.3628125 29.5791,22.8799125 37.202625,23.7441375" id="Stroke-1" stroke="#FFC900" stroke-width="6.75" stroke-linecap="round" stroke-linejoin="round"></path>
                        <path d="M5.5506,6.5428125 C5.4809625,5.0979 5.378475,3.655875 5.21685,2.21925 C5.1696,1.7694 5.4964875,1.3657875 5.9463375,1.3185375 C6.396225,1.2712875 6.7998,1.598175 6.84705,2.048025 C6.8790375,2.375625 6.908025,2.7034125 6.9337875,3.0313125 C7.182225,2.87115 7.4284125,2.8778625 7.5747375,2.8870875 C7.8856125,2.906625 8.2263375,3.0493125 8.445,3.4843875 C8.4919125,3.577725 8.5428375,3.729075 8.56575,3.929625 C8.5915125,4.15485 8.560575,4.63455 8.5840125,4.8516375 L8.684025,6.977325 C8.6625375,8.06055 8.6284875,9.1345125 8.6526375,10.209 C8.6681625,10.89825 8.70765,11.5877625 8.7934125,12.2803125 C9.08745,14.7076125 9.3063,17.1145125 9.433275,19.5262875 C9.5603625,21.94065 9.5957625,24.3597375 9.5342625,26.8082625 C9.5256375,27.1527375 9.3171,29.070375 9.2008125,30.451575 C9.3785625,30.4764 9.5530875,30.5022 9.7237125,30.5281125 L11.841675,30.8651625 L11.8703625,30.8706375 C19.526025,31.8204 17.7566625,33.203025 12.765525,32.93475 C12.567375,33.006975 12.3196875,33.056925 12.035025,33.0661125 C11.2644,33.090975 10.062225,32.852025 9.701625,32.84025 C8.89965,32.8140375 8.099475,32.857575 7.299975,32.9216625 C7.15785,33.0284625 6.9591375,33.018525 6.773325,32.965875 C5.8393875,33.04785 4.9061625,33.1426125 3.9715875,33.171075 C3.4628625,33.1865625 2.9537625,33.1840125 2.4440625,33.1518375 C1.9839,33.1257375 1.6315125,32.7310125 1.6576125,32.27085 C1.6837125,31.810725 2.0784375,31.4583375 2.5386,31.4844 L2.669025,31.490025 C2.642025,31.185 2.7643875,30.8795625 2.8675875,30.742725 C2.9198625,30.673425 3.0690375,30.445875 3.491925,30.361725 C4.2936375,30.202275 5.170125,30.149475 6.0601125,30.167775 L6.2500125,30.17295 L6.2575875,29.5500375 C6.270975,28.5587625 6.22095,27.5910375 6.1231125,26.62755 C6.0241875,25.65315 5.8757625,24.6836625 5.71245,23.6971125 C5.3442375,21.539625 5.1776625,19.331475 5.1345375,17.1178125 C5.0917125,14.9177625 5.1739125,12.714 5.3135625,10.55055 C5.39115,9.3575625 5.36775,7.9098 5.5506,6.5428125 Z" id="Fill-3" fill="#000000"></path>
                        <path d="M6.9033,4.613625 C6.3988875,4.0773375 5.9022,3.5322375 5.4168375,2.9743125 C5.1121125,2.6285625 5.1454125,2.10045 5.4911625,1.795725 C5.8369125,1.491 6.365025,1.5243 6.6697875,1.87005 C9.1116,4.6045875 11.8317,7.016475 14.3412,9.6574875 C15.4366125,10.8103125 16.49175,12.0065625 17.470425,13.2877875 C18.1354125,14.159175 18.7840875,15.03705 19.4541,15.8997 C19.7979,16.34235 20.147475,16.7808375 20.5083,17.211825 C20.785275,17.463375 21.0554625,17.7157125 21.3171375,17.9689125 C21.8705625,17.336775 22.3842,16.4962125 22.8676125,15.587325 C23.24955,14.8692375 23.604825,14.1050625 23.929125,13.3432875 C24.4599,11.2232625 24.9939375,9.146475 25.700925,7.1215875 C26.1979125,5.6981625 26.7783,4.2994875 27.5098875,2.931825 C27.5537625,2.8495125 28.4525625,2.748225 28.6405875,3.2001 C29.061225,3.342225 29.2927125,3.796275 29.1585375,4.2217875 C28.2009,7.1812125 27.2044125,10.242075 26.0763375,13.22505 C25.4156625,14.97195 24.7106625,16.692375 23.9404125,18.3501 L23.8591875,18.572775 C23.7921,18.7150125 23.614425,19.0605 23.5611,19.156725 C23.495325,19.275375 23.431575,19.3328625 23.419125,19.3449 C23.18205,19.5735 22.945275,19.54845 22.830975,19.532475 L22.8006375,19.527525 L22.8429,19.5762 C22.9113,19.6560375 22.9460625,19.7155125 22.9630875,19.74615 C23.262225,20.2848375 23.009925,20.660475 22.9009875,20.8080375 C22.735425,21.032325 22.48095,21.2348625 22.0557,21.2101125 C21.991725,21.2064 21.7795875,21.20805 21.52395,21.0204 C21.5017125,21.0040875 21.452625,20.9658 21.3876375,20.9083125 C21.2947125,20.826075 21.1314375,20.6758875 20.9798625,20.5350375 C20.89065,20.5841625 20.8006875,20.6284875 20.71035,20.6680875 C20.5472625,20.7396 20.3151,20.7819 20.01885,20.686425 C19.8972375,20.6472375 19.66725,20.5200375 19.3810875,20.2727625 C18.818025,19.7863125 17.722875,18.6231375 16.546575,17.3178375 C15.59055,16.2347625 14.5946625,15.17475 13.589775,14.1184875 C12.591975,13.2983625 11.6355375,12.47625 10.7832375,11.6478 C10.3251375,11.2023 9.918225,10.7298 9.53835,10.2394125 C8.9963625,9.5398125 8.51145,8.8026375 8.0049375,8.058225 L7.736925,7.69365 C7.3086,7.1709 6.891225,6.6408375 6.4856625,6.103425 C5.9328,5.3709 6.424125,4.8777375 6.9033,4.613625 Z M24.3068625,17.345475 L23.9862375,18.2244 C24.2316375,17.652525 24.35295,17.2736625 24.3843375,17.0400375 L24.3068625,17.345475 Z" id="Fill-4" fill="#000000"></path>
                        <path d="M28.121475,3.59625 C28.1273625,3.294075 28.136475,2.9922375 28.1486625,2.690625 C28.1638875,2.2300125 28.5502125,1.8683625 29.010825,1.8835875 C29.471475,1.8988125 29.8330875,2.2851 29.8178625,2.74575 C29.77095,4.5792 29.8437,6.420975 29.978625,8.2657125 C30.042525,9.1390125 30.12045,10.01295 30.207375,10.8873375 L30.539625,12.719775 C31.03965,15.4102125 31.655625,19.5041625 31.998975,23.3536125 C32.2424625,26.0830875 32.34615,28.691325 32.1980625,30.6057375 C32.1445875,31.296825 31.66785,31.45275 31.6126875,31.4787375 C31.3393875,31.607475 31.0654875,31.614075 30.791025,31.502025 C30.64035,31.440525 30.3866625,31.3142625 30.2352,30.95595 C30.21735,30.9137625 30.1764,30.8170125 30.158175,30.6663375 C30.1502625,30.600675 30.1404375,30.361875 30.1312125,30.265575 L30.0610875,29.6092125 L29.8274625,27.6968625 C29.7318,26.85615 29.6595,26.0124 29.59905,25.167375 C29.50965,23.9185125 29.4455625,22.6671375 29.3661375,21.4197 C29.2379625,19.3920375 29.03535,17.3503875 28.8298125,15.302925 C28.6984125,14.50455 28.568175,13.7662125 28.4446125,13.1124375 L28.3212,12.4532625 C28.2813375,16.12875 28.5721875,19.9729125 28.8731625,22.7622 L30.0003,29.7927375 L30.2152125,31.35435 C30.2880375,31.4508 30.4075125,31.6158 30.431775,31.6858875 C30.47955,31.823925 30.4797375,31.95375 30.4554375,32.0709375 C30.4389375,32.1505125 30.4110375,32.2303125 30.36405,32.305425 L30.481125,32.3239125 C32.09025,32.573475 33.7018125,32.773125 35.308425,32.857275 C35.76,32.8848 36.10425,33.27375 36.0765,33.72525 C36.049125,34.17675 35.66025,34.5209625 35.2086,34.4934 C33.549975,34.3779 31.8881625,34.1438625 30.2298375,33.857625 C27.786675,33.4358625 25.3514625,32.901675 22.9461375,32.4804375 L22.8956625,32.471325 C22.1204625,32.3641125 21.4382625,32.2149375 20.879925,32.049075 C19.5030375,31.6919625 19.0501125,31.3672125 19.2550125,31.150575 C19.2177375,30.7924125 20.32815,30.62295 23.0864625,31.0563375 L23.151375,31.0653375 C23.252325,31.0802625 23.606775,31.136325 23.750625,31.1570625 L25.2355875,31.3830375 C26.036475,31.5047625 27.0039,31.672275 27.9252375,31.657875 C28.2603,31.6526625 28.5891,31.6248375 28.8976125,31.555725 L28.697325,29.9480625 L27.6005625,22.9190625 C27.187575,19.9414875 26.7748125,15.7724625 26.7135,11.8576875 C26.66955,9.0514125 26.811,6.37515 27.2805375,4.3329375 C27.3874875,3.8672625 27.7104,3.735075 27.8593875,3.6721125 C27.9309375,3.64185 28.0209375,3.6121875 28.121475,3.59625 Z" id="Fill-5" fill="#000000"></path>
                        <path d="M29.1097875,31.1711625 C28.9848,30.7519125 28.897575,30.2613 28.847025,29.7301875 C28.65165,27.67635 28.9400625,24.9701625 28.9338,23.93955 C28.905,23.0023875 28.8565875,22.0693125 28.745775,21.1425375 C28.2927,17.3536875 27.3138,13.6493625 27.122475,9.793275 C27.1071375,9.3412125 27.4617375,8.9617125 27.9138375,8.9464125 C28.3659,8.931075 28.7453625,9.285675 28.7607,9.7377375 C28.7787,11.1454125 28.88775,12.5373 29.0517,13.9214625 C29.3259375,16.2370125 29.6922,18.5341125 29.9991375,20.8412625 C30.1326,21.8443875 30.27675,22.8459 30.3588,23.859225 C30.453,24.7309125 30.4672125,26.855625 30.709575,28.7005875 C30.7929,29.3349 30.9121125,29.9282625 31.0690875,30.4128 C31.1440125,30.6440625 31.2044625,30.847875 31.3191,30.9672 L31.3438875,30.9901125 L31.34295,30.9901875 L31.3591125,31.0041375 L31.3438875,30.9901125 C31.5274125,30.9747375 31.7978625,30.8923125 31.9527375,30.89865 C32.2445625,30.91065 32.5040625,30.96165 32.7008625,31.0432875 C33.0886125,31.204125 33.2194125,31.437375 33.2754,31.5387 C33.3548625,31.6825125 33.39975,31.821375 33.4155375,31.955325 C34.6075875,31.9240875 35.799,31.85475 36.982875,31.7817375 C37.44225,31.7449875 37.845,32.08815 37.88175,32.5475625 C37.9185,33.006975 37.575375,33.4098 37.116,33.4465125 C35.63475,33.592125 34.14195,33.734775 32.6477625,33.8024625 C31.6341,33.8483625 30.6204375,33.857475 29.6097,33.81495 L27.227925,33.68385 C26.75205,33.6589125 26.381625,33.6384 26.20545,33.62595 C24.8205,33.5281125 25.7814,31.6626 25.87035,31.63335 C26.421675,31.45185 27.0003375,31.347975 27.587925,31.2820875 C28.09305,31.225425 28.6053,31.1994 29.1097875,31.1711625 Z M31.3191,30.9672 C31.2551625,30.906525 31.1634,30.816 31.1526375,30.888825 C31.138875,30.9820125 31.2218625,31.00095 31.34295,30.9901875 L31.3334625,30.981975 L31.3191,30.9672 Z" id="Fill-6" fill="#000000"></path>
                    </g>
                </g>
            </g>
        </g>
    </g>
</svg>