<?xml version="1.0" encoding="UTF-8"?>
<svg width="41px" height="37px" viewBox="0 0 41 37" version="1.1" xmlns="http://www.w3.org/2000/svg" xmlns:xlink="http://www.w3.org/1999/xlink">
    <title>icon-lkn</title>
    <g id="how.dactrtr.rocks" stroke="none" stroke-width="1" fill="none" fill-rule="evenodd">
        <g id="landing.Desktop" transform="translate(-662.000000, -2737.000000)">
            <g id="networks" transform="translate(531.000000, 2731.000000)">
                <g id="Group" transform="translate(128.000000, 0.000000)">
                    <g id="Group-7" transform="translate(5.250000, 7.500000)">
                        <path d="M1.4592,3.2289 C9.9435,1.12155 18.4483125,2.7161625 26.9980875,3.339525 C28.3557,3.4384875 34.733625,4.2663375 34.7059653,4.8509625 C34.596375,7.1368125 30.75015,8.11305 29.108775,8.4898875 C23.0820375,9.8734875 16.7476875,9.5599875 10.6268625,10.2328875 C8.6076,10.45485 6.6039,10.71465 4.6076625,11.0941125 C3.5778375,11.2899 2.55405,11.51115 1.5308625,11.739 C1.4005125,11.768025 1.018575,11.764575 1.139025,11.82225 C7.0639125,14.65995 14.458125,15.68175 20.8398,17.09715 C23.02575,17.58195 25.1799,18.1743375 27.30225,18.8898375 C28.2419625,19.2066375 29.1817125,19.5286875 30.1176375,19.8566625 C30.1553625,19.8699 30.269325,19.8849 30.230925,19.8959625 C24.657525,21.5023125 17.785425,20.455575 12.041025,20.7258375 C10.089975,20.8176375 8.1357,20.8996125 6.18825,21.0536625 C5.5876875,21.101175 4.9855125,21.152325 4.3885125,21.23385 C4.044075,21.280875 3.1285125,21.1259625 3.3570375,21.3879375 C6.09375,24.5249625 20.4613125,26.2888875 24.705525,26.533725 C26.652675,26.646075 28.6002375,26.63235 30.54915,26.58645 C31.22835,26.570475 31.907925,26.568225 32.5866,26.53695 C32.8004625,26.5270875 33.2671875,26.28615 33.227625,26.4965625 C33.128325,27.0248625 26.872725,28.655925 25.9789125,28.810725 C18.2249625,30.1538625 10.1186625,29.64495 2.4345,31.2567" id="Stroke-1" stroke="#FFC900" stroke-width="6.75" stroke-linecap="round" stroke-linejoin="round"></path>
                        <path d="M0.64245,0.9212625 C0.740025,0.540375 1.097925,0.27045 1.5045375,0.2968125 C4.1037,0.450075 6.710625,0.471225 9.321375,0.43395 C15.4611,0.3463125 21.6209625,-0.067125 27.747375,0.0879 C29.675475,0.1372875 31.8511875,-0.0031875 33.9127125,0.1116 C34.8705,0.164925 35.80425,0.2736375 36.682875,0.4706625 C37.104375,0.5654625 37.330125,0.8014875 37.468125,1.0558125 C37.58325,1.2688125 37.64025,1.5323625 37.5855,1.8424125 C37.55475,2.0166375 37.468125,2.2402875 37.338,2.4736875 L37.08225,2.926875 L36.77475,5.2743 C36.628875,6.556125 36.507,7.8324 36.4395,9.1108875 C36.37275,10.3728375 36.358875,11.636925 36.428625,12.910875 C36.58125,15.789675 36.738,18.6447375 36.798375,21.50805 C36.838875,23.425425 36.83475,25.3464 36.768375,27.280125 C36.757875,27.5251125 36.6675,30.5102625 36.5655,31.702425 C36.50775,32.37495 36.259125,32.7650625 36.202125,32.8209 C36.08625,32.9348625 35.71725,33.1812 35.1075,33.1582125 C34.341,33.1293 32.5795875,32.8221 31.8670125,32.76705 C30.8169,32.6826375 29.7657375,32.637225 28.713225,32.615175 C26.217825,32.5629375 23.718825,32.6347125 21.2238375,32.6023125 C17.7956625,32.5685625 14.336175,32.5867875 10.89165,32.5128 C9.4050375,32.4808875 7.92105,32.4407625 6.443775,32.3532 C6.0604125,32.332125 3.8472375,32.32065 2.5344,32.2317 C1.826025,32.1837 1.3218,32.0334 1.2115875,31.9446 C1.1005875,31.855125 0.9663,31.6774875 0.9126375,31.394175 C0.827325,30.9435375 0.9330375,29.844525 0.9339,29.6325 L1.0100625,24.2467875 C0.9517125,18.9558375 0.37785,13.65135 0.2403,8.3540625 C0.180525,6.0514125 0.2020875,3.7503 0.3823125,1.451925 C0.4003125,1.240425 0.497325,1.054425 0.64245,0.9212625 Z M35.1555,2.2608 C34.441125,2.1604875 33.6985875,2.1105375 32.9472,2.0851875 C31.1646,2.0251125 29.3345625,2.1027375 27.68745,2.0440125 C21.5889,1.8247125 15.4510875,2.17575 9.3367125,2.1951 C6.879075,2.2029 4.4253375,2.1572625 1.9795125,2.0022 C1.8036375,4.1059875 1.759575,6.2137125 1.787775,8.3236125 C1.8586875,13.6273875 2.374125,18.9433875 2.370075,24.2398125 L2.241525,29.6415 C2.24025,29.773575 2.2134,30.5086875 2.1985875,30.9042 C3.355575,31.033425 6.0882,31.0501125 6.516,31.074975 C8.461575,31.1773125 10.41825,31.219875 12.377475,31.21005 C15.329025,31.195275 18.28455,31.0767 21.2185125,31.02525 C23.7189,30.975975 26.21985,30.8232375 28.7212875,30.792975 C29.8109625,30.779775 30.9001125,30.790425 31.98945,30.8414625 C32.534925,30.8686875 33.7121625,31.0322625 34.555875,31.1056125 C34.614375,29.7669 34.64175,27.4243875 34.646625,27.21045 C34.70625,25.314975 34.699125,23.4322875 34.660125,21.552975 C34.600875,18.7111125 34.46325,15.876825 34.3215,13.0191 C34.25625,11.6692875 34.278,10.330425 34.357125,8.9941875 C34.435125,7.6746 34.56825,6.3576 34.72725,5.03505 L35.08725,2.461275 C35.09925,2.4070125 35.123625,2.337825 35.1555,2.2608 Z" id="Fill-2" fill="#000000"></path>
                        <path d="M10.376175,13.1591625 L10.3927125,13.067925 C10.4680875,12.6132375 10.8984,12.3052875 11.3530875,12.3806625 C11.807775,12.4560375 12.115725,12.88635 12.04035,13.3410375 C11.8474125,14.7114 11.8771125,16.06365 11.9913,17.409975 C12.15855,19.3818375 12.5355,21.3370875 12.770775,23.3056125 C12.935025,24.6802125 13.0219125,26.0607 12.966375,27.449175 C12.9523125,27.68715 12.8157,28.2855 12.0976875,28.4946375 C11.7075375,28.6083 10.7862,28.6873875 10.37235,28.6521 C10.1003625,28.6288875 9.9077625,28.5736875 9.81825,28.5225 C9.7581375,28.4874375 9.10815,28.13355 9.2981625,27.423375 C9.32565,27.320625 9.40935,27.0666 9.4137375,27.0505125 C9.5325375,26.6175375 9.6333,26.1818625 9.7130625,25.7379375 C9.8369625,25.047975 9.9254625,24.354825 10.01145,23.6634375 C10.0608,23.1279 10.1214,22.593 10.1571,22.0543125 C10.2103875,21.2508 10.23225,20.443725 10.25355,19.636425 L10.256475,19.5066 C10.1943375,18.8478 10.144125,18.1888125 10.1162625,17.529 C10.0657875,16.333875 10.0910625,15.137175 10.252275,13.936125 L10.2445875,13.603125 C10.244625,13.4394375 10.292775,13.2868875 10.376175,13.1591625 Z M10.694625,26.7936375 C10.6864875,26.7822375 10.679925,26.775375 10.6755,26.773575 C10.63095,26.7551625 10.4204625,26.55795 10.42455,26.6854875 C10.4271,26.7653625 10.5424875,26.7964125 10.694625,26.7936375 Z M11.3617875,26.365875 L11.3433375,26.6302875 C11.415525,26.5857 11.4546375,26.535675 11.4361125,26.4853125 C11.413575,26.424075 11.3887125,26.3854125 11.3617875,26.365875 Z" id="Fill-3" fill="#000000"></path>
                        <path d="M11.4093,4.5509625 C11.731875,4.4126625 12.06045,4.3549125 12.3268875,4.380375 C12.6474375,4.3924875 12.874725,4.55415 13.1007,4.6922625 C13.64835,5.02695 13.854375,5.7069 13.81575,6.4012875 C13.7674875,7.268625 13.0934625,8.0806875 12.3702,8.3436 C11.2873125,8.6903625 10.4853,8.2983375 10.043325,7.490325 C9.587175,6.6564375 9.57195,5.356875 10.0348125,4.6631625 C10.2625875,4.2625125 10.7728125,4.1221875 11.1734625,4.35 C11.266875,4.4031 11.34615,4.471575 11.4093,4.5509625 Z" id="Fill-4" fill="#000000"></path>
                        <path d="M17.5292625,27.695625 C17.44305,27.7317 17.3489625,27.75255 17.2501875,27.756 C16.798125,27.7718625 16.41825,27.417675 16.4023875,26.9656125 C16.3893,25.7397 16.4041125,24.515925 16.425825,23.291475 C16.46115,21.2974875 16.5645,19.3066875 16.61895,17.312625 C16.6422375,16.4598 16.6351875,15.6070875 16.64745,14.7537375 C16.6249875,13.5558 16.4532375,12.1795125 16.4885625,10.882275 C16.5059625,10.2432 16.5851625,9.62745 16.7277,9.0523125 C16.847775,8.5841625 17.1454125,8.465025 17.2159875,8.4208125 C17.6500125,8.14875 18.0417375,8.2499625 18.4079625,8.5572375 C18.49065,8.62665 18.7030125,8.84865 18.7422375,9.288825 C18.7532625,9.412725 18.7261875,9.87795 18.728325,10.0669125 L18.7765875,11.3398125 L18.8831625,15.420075 C18.8557875,18.174075 19.1575125,20.9562 19.2176625,23.7223875 C19.2443625,24.9503625 19.2230625,26.174175 19.11465,27.3910875 C19.0834125,27.8509125 18.68475,28.198875 18.224925,28.1676 C17.91435,28.146525 17.65485,27.9577875 17.5292625,27.695625 Z" id="Fill-5" fill="#000000"></path>
                        <path d="M19.1208375,13.8440625 C18.8134125,14.103225 18.3543375,14.1078375 18.040125,13.8369 C17.691075,13.535925 17.6520375,13.008225 17.952975,12.659175 C19.9593375,10.2606375 22.8307875,10.0243875 25.325325,11.0724 C27.7192125,12.0781875 29.7268125,14.31585 30.2631375,16.9074 C30.4684125,17.919975 30.5521875,18.9811125 30.564075,20.0540625 C30.57075,20.65725 30.5544,21.264225 30.5258625,21.8677125 C30.73455,24.3961875 30.5397375,26.9041875 29.91765,28.48875 C29.76315,28.872 29.503875,28.959525 29.4229875,29.0013375 C29.1454125,29.1448125 28.8860625,29.115225 28.655025,29.04285 C28.4847,28.9894875 28.015425,28.77435 27.97725,28.1085375 C27.9749625,28.0683 27.9909,27.913575 27.99375,27.8505 L28.0555875,26.7784875 L28.2226125,24.4359 C28.326375,23.0301375 28.46355,21.5361 28.466025,20.063925 C28.4676,19.1222625 28.4167125,18.189675 28.2511125,17.298225 C28.1127375,16.5363375 27.8029125,15.81465 27.371025,15.1687875 C26.46525,13.9386 25.1628375,13.0428375 23.754675,12.6971625 C22.3054125,12.3414375 20.7447,12.5979375 19.422975,13.692525 C19.331025,13.7659875 19.2280125,13.8163875 19.1208375,13.8440625 Z" id="Fill-6" fill="#000000"></path>
                    </g>
                </g>
            </g>
        </g>
    </g>
</svg>